<svg width="16" height="15" viewBox="0 0 16 15" fill="none" xmlns="http://www.w3.org/2000/svg">
<path d="M15 7.50516C14.9987 9.00877 14.4361 10.4655 13.4079 11.6271C12.3798 12.7887 10.9497 13.5834 9.36139 13.8759C7.77303 14.1683 6.12462 13.9404 4.69695 13.2309C3.26928 12.5214 2.15068 11.3742 1.53167 9.98478C0.912662 8.59538 0.831534 7.04966 1.30213 5.61095C1.77273 4.17224 2.76595 2.92953 4.11256 2.0945C5.45918 1.25947 7.07591 0.883776 8.68735 1.03142C10.2988 1.17907 11.8053 1.84093 12.9502 2.90424C13.602 3.50756 14.1187 4.22474 14.4705 5.0144C14.8223 5.80406 15.0022 6.65059 15 7.50516Z" fill="#14AF6C" stroke="black" stroke-width="1.9671" stroke-miterlimit="10" stroke-linecap="round"/>
</svg>
