<svg width="12" height="17" viewBox="0 0 12 17" fill="none" xmlns="http://www.w3.org/2000/svg">
<path d="M5 15H4C3.71667 15 3.47933 14.904 3.288 14.712C3.09667 14.52 3.00067 14.2827 3 14C2.99933 13.7173 3.09533 13.48 3.288 13.288C3.48067 13.096 3.718 13 4 13H5V10.9C3.68333 10.6667 2.604 10.0373 1.762 9.012C0.920001 7.98667 0.499334 6.79933 0.500001 5.45C0.500001 3.93333 1.03767 2.646 2.113 1.588C3.18833 0.53 4.484 0.000667296 6 6.28931e-07C7.516 -0.000666038 8.812 0.528667 9.888 1.588C10.964 2.64733 11.5013 3.93467 11.5 5.45C11.5 6.8 11.079 7.98767 10.237 9.013C9.395 10.0383 8.316 10.6673 7 10.9V13H8C8.28333 13 8.521 13.096 8.713 13.288C8.905 13.48 9.00067 13.7173 9 14C8.99933 14.2827 8.90333 14.5203 8.712 14.713C8.52067 14.9057 8.28333 15.0013 8 15H7V16C7 16.2833 6.904 16.521 6.712 16.713C6.52 16.905 6.28267 17.0007 6 17C5.71733 16.9993 5.48 16.9033 5.288 16.712C5.096 16.5207 5 16.2833 5 16V15ZM6 9C6.96667 9 7.79167 8.65833 8.475 7.975C9.15833 7.29167 9.5 6.46667 9.5 5.5C9.5 4.53333 9.15833 3.70833 8.475 3.025C7.79167 2.34167 6.96667 2 6 2C5.03333 2 4.20833 2.34167 3.525 3.025C2.84167 3.70833 2.5 4.53333 2.5 5.5C2.5 6.46667 2.84167 7.29167 3.525 7.975C4.20833 8.65833 5.03333 9 6 9Z" fill="#322285"/>
</svg>
