<svg width="402" height="404" viewBox="0 0 402 404" fill="none" xmlns="http://www.w3.org/2000/svg">
<path d="M142.633 135.75C142.633 140.31 141.06 144.729 138.181 148.254C135.302 151.779 131.296 154.192 126.846 155.082C122.395 155.972 117.775 155.283 113.774 153.133C109.772 150.983 106.635 147.506 104.899 143.292C103.162 139.079 102.933 134.391 104.251 130.028C105.568 125.664 108.35 121.894 112.123 119.36C115.896 116.827 120.426 115.686 124.942 116.133C129.458 116.58 133.68 118.587 136.889 121.812C138.713 123.64 140.16 125.812 141.146 128.204C142.132 130.596 142.637 133.161 142.633 135.75Z" fill="#ECE7E1" stroke="black" stroke-width="0.58203" stroke-miterlimit="10" stroke-linecap="round"/>
<path d="M134.535 119.808C131.59 118.876 128.466 118.661 125.422 119.182C122.371 119.658 119.512 120.98 117.168 123C114.953 125.022 113.458 127.718 112.911 130.676C112.317 133.63 112.554 136.692 113.595 139.519C114.136 140.982 114.955 142.325 116.007 143.474C117.054 144.627 118.357 145.515 119.81 146.068C122.075 146.838 124.533 146.815 126.784 146.003C129.035 145.191 130.946 143.638 132.207 141.596C132.753 140.571 133.086 139.446 133.185 138.288C133.284 137.13 133.147 135.964 132.782 134.861C132.063 132.663 130.447 130.857 127.958 130.457C126.992 130.273 125.992 130.388 125.092 130.786C124.192 131.185 123.433 131.85 122.917 132.692C122.4 133.534 122.102 134.494 122.052 135.483C122.003 136.471 122.202 137.457 122.632 138.348" stroke="#070707" stroke-width="0.58203" stroke-miterlimit="10" stroke-linecap="round"/>
<path d="M101.169 144.249C102.652 143.57 104.525 142.774 106.748 141.974C109.26 141.074 111.819 140.314 114.415 139.7C118.384 138.784 122.427 138.224 126.495 138.027C134.435 137.602 142.395 138.33 150.128 140.189C152.778 140.825 155.394 141.593 157.967 142.492C161.334 143.668 164.624 145.058 167.816 146.653C165.342 150.295 163.108 154.095 161.127 158.029C155.274 169.651 151.737 182.31 150.715 195.294C150.289 200.754 150.301 206.239 150.751 211.697C150.751 211.697 145.312 213.216 138.257 217.757C128.941 223.739 121.308 232.022 116.087 241.815C116.087 241.815 119.21 228.935 118.901 210.303C118.591 191.671 114.865 167.257 101.169 144.249Z" fill="#F6C34C" stroke="#070707" stroke-width="0.58203" stroke-miterlimit="10" stroke-linecap="round"/>
<path d="M330.138 204.365C329.909 194.273 328.347 184.257 325.495 174.578C321.286 160.288 313.23 143.664 297.797 130.792C292.681 126.525 287.053 122.917 281.046 120.054C276.332 117.808 271.422 116.008 266.377 114.677C246.984 109.736 227.407 110.714 209.996 116.737C192.585 122.761 177.354 133.838 166.656 149.098C155.634 164.813 151.71 181.704 150.705 195.505C150.014 204.826 150.538 214.197 152.265 223.381L241.203 213.875L330.138 204.365Z" fill="#ECE7E1" stroke="black" stroke-width="0.58203" stroke-miterlimit="10" stroke-linecap="round"/>
<path d="M247.494 213.203L288.815 208.783L330.137 204.363C329.908 194.271 328.346 184.255 325.494 174.576C321.285 160.287 313.229 143.662 297.796 130.791C292.68 126.523 287.052 122.916 281.045 120.052C276.332 117.807 271.421 116.006 266.376 114.675C263.141 113.851 259.904 113.19 256.664 112.692C253.423 112.193 250.197 111.855 246.983 111.677C240.399 123.553 236.229 136.625 234.714 150.134C232.761 167.704 234.956 189.379 247.494 213.203Z" fill="#F6991A" stroke="#070707" stroke-width="0.58203" stroke-miterlimit="10" stroke-linecap="round"/>
<path d="M263.06 113.884C264.381 119.23 264.883 124.747 264.548 130.246C264.021 139.538 260.93 151.108 250.767 160.101C252.53 163.726 253.425 167.714 253.38 171.748C253.34 178.58 250.602 187.412 239.821 195.439" stroke="#070707" stroke-width="0.58203" stroke-miterlimit="10" stroke-linecap="round"/>
<path d="M199.158 121.285C192.73 124.477 186.711 128.443 181.233 133.094C175.718 137.785 170.82 143.162 166.656 149.096C155.634 164.812 151.71 181.703 150.705 195.504C150.014 204.824 150.538 214.196 152.265 223.38L179.114 220.511L205.96 217.639C212.794 198.279 212.219 177.089 209.373 159.285C207.266 146.301 203.843 133.568 199.158 121.285Z" fill="#F6991A" stroke="#070707" stroke-width="0.58203" stroke-miterlimit="10" stroke-linecap="round"/>
<path d="M184.323 130.599C183.651 135.273 183.582 140.014 184.118 144.706C184.946 151.675 187.47 159.614 194.055 164.644C194.963 165.335 195.923 165.955 196.925 166.498C198.114 167.143 199.355 167.684 200.636 168.114C199.291 170.64 198.318 173.35 197.75 176.158C196.829 180.658 196.749 186.452 199.9 191.982C201.286 194.396 203.13 196.512 205.327 198.212C206.793 199.352 208.384 200.317 210.071 201.089" stroke="#070707" stroke-width="0.58203" stroke-miterlimit="10" stroke-linecap="round"/>
<path d="M148.393 284.92L158.443 301.605L168.493 318.29C163.066 322.346 157.644 326.416 152.228 330.499C146.811 334.582 141.37 338.622 135.902 342.619C131.332 345.964 126.713 349.228 121.74 351.507C116.767 353.786 111.445 355.042 105.463 354.391C102.763 354.072 100.109 353.438 97.5557 352.501C95.1754 351.668 92.9017 350.554 90.782 349.184C90.5247 349.01 90.2594 348.824 90.0624 348.683L89.7248 348.445C84.062 344.747 79.8981 339.14 77.9823 332.632C76.1975 326.713 76.1894 320.472 76.913 314.892C77.4586 310.713 78.4617 306.606 79.9039 302.647C81.3437 298.685 83.1894 294.885 85.4113 291.307L101.676 265.047L117.937 238.787C119.224 236.708 120.601 234.688 122.07 232.727C123.54 230.777 125.107 228.903 126.765 227.111C132.711 220.658 140.215 215.857 148.549 213.173C156.521 210.527 165.16 209.537 174.306 209.109C187.471 208.511 202.594 209.941 215.88 214.947C229.167 219.952 240.603 228.537 246.42 242.241C247.16 243.992 247.918 245.733 248.696 247.465C249.473 249.197 250.259 250.924 251.055 252.648L268.53 290.515L286.005 328.382C287.358 331.306 288.161 334.456 288.373 337.674C288.716 342.824 287.43 347.952 284.699 352.323C283.745 353.828 282.637 355.23 281.394 356.504C277.005 361.065 271.113 363.862 264.82 364.37C258.512 364.901 252.219 363.185 247.043 359.522C236.925 352.355 224.829 340.938 215.265 331.299C205.702 321.659 198.663 313.83 198.663 313.83L210.855 298.882L223.048 283.934C223.067 283.911 223.08 283.884 223.083 283.854C223.087 283.825 223.082 283.795 223.068 283.768C223.056 283.742 223.036 283.721 223.012 283.706C222.988 283.691 222.96 283.683 222.931 283.683L185.654 284.31L148.393 284.92Z" fill="#84A1E5" stroke="#070707" stroke-width="0.58203" stroke-miterlimit="10" stroke-linecap="round"/>
<path d="M265.402 306.697C265.403 309.751 264.349 312.71 262.422 315.07C260.494 317.431 257.812 319.047 254.832 319.643C251.852 320.239 248.759 319.778 246.079 318.339C243.399 316.899 241.299 314.571 240.136 311.75C238.973 308.929 238.819 305.789 239.701 302.867C240.583 299.945 242.446 297.421 244.972 295.724C247.498 294.027 250.532 293.264 253.556 293.563C256.58 293.862 259.407 295.205 261.555 297.365C262.777 298.589 263.745 300.043 264.405 301.645C265.066 303.247 265.404 304.963 265.402 306.697Z" fill="#DBCAF4" stroke="black" stroke-width="0.58203" stroke-miterlimit="10" stroke-linecap="round"/>
<path d="M215.394 260.408C215.394 263.462 214.34 266.42 212.412 268.78C210.484 271.14 207.801 272.755 204.821 273.35C201.841 273.946 198.748 273.484 196.069 272.044C193.389 270.605 191.289 268.276 190.127 265.455C188.965 262.634 188.811 259.495 189.693 256.573C190.576 253.651 192.439 251.127 194.965 249.431C197.491 247.734 200.524 246.971 203.548 247.27C206.572 247.569 209.399 248.913 211.547 251.072C212.769 252.297 213.737 253.752 214.398 255.354C215.058 256.956 215.397 258.674 215.394 260.408Z" fill="#DBCAF4" stroke="black" stroke-width="0.58203" stroke-miterlimit="10" stroke-linecap="round"/>
<path d="M113.903 319.895C113.903 322.949 112.849 325.908 110.922 328.268C108.995 330.629 106.312 332.245 103.332 332.841C100.352 333.437 97.2588 332.976 94.579 331.537C91.8992 330.097 89.7989 327.769 88.636 324.948C87.473 322.127 87.3194 318.987 88.2012 316.065C89.0831 313.143 90.9459 310.619 93.4722 308.922C95.9985 307.225 99.032 306.462 102.056 306.761C105.08 307.06 107.907 308.403 110.055 310.563C111.276 311.787 112.245 313.242 112.905 314.843C113.565 316.445 113.904 318.162 113.903 319.895Z" fill="#DBCAF4" stroke="black" stroke-width="0.58203" stroke-miterlimit="10" stroke-linecap="round"/>
<path d="M254.868 351.748C254.871 348.799 253.89 345.934 252.083 343.611C250.276 341.288 247.746 339.64 244.898 338.93C242.05 338.22 239.048 338.49 236.37 339.696C233.692 340.902 231.494 342.974 230.125 345.583C232.999 348.197 235.902 350.742 238.748 353.101C241.594 355.461 244.376 357.634 247.045 359.517C247.6 359.91 248.165 360.278 248.742 360.62C249.318 360.962 249.902 361.284 250.494 361.585C251.873 360.349 252.976 358.833 253.73 357.138C254.484 355.442 254.872 353.605 254.868 351.748Z" fill="#DBCAF4" stroke="black" stroke-width="0.58203" stroke-miterlimit="10" stroke-linecap="round"/>
<path d="M142.626 234.842C145.235 234.843 147.785 234.062 149.951 232.599C152.116 231.137 153.799 229.059 154.784 226.631C155.769 224.203 156.011 221.535 155.48 218.968C154.95 216.401 153.67 214.051 151.804 212.218C147.798 213.291 143.923 214.803 140.246 216.727C136.438 218.747 132.905 221.252 129.734 224.18C130.318 227.186 131.923 229.894 134.275 231.842C136.626 233.789 139.579 234.854 142.626 234.854V234.842Z" fill="#DBCAF4" stroke="black" stroke-width="0.58203" stroke-miterlimit="10" stroke-linecap="round"/>
<path d="M225.865 234.838C228.145 234.841 230.388 234.246 232.37 233.113C234.352 231.979 236.006 230.346 237.169 228.374C234.091 225.239 230.629 222.512 226.865 220.257C223.036 217.964 218.99 216.058 214.785 214.569C214.131 215.605 213.621 216.727 213.27 217.902C212.686 219.873 212.567 221.953 212.925 223.978C213.282 226.002 214.106 227.915 215.329 229.563C216.553 231.211 218.142 232.549 219.971 233.471C221.8 234.392 223.818 234.871 225.865 234.87V234.838Z" fill="#DBCAF4" stroke="black" stroke-width="0.58203" stroke-miterlimit="10" stroke-linecap="round"/>
<path d="M144.721 318.301C141.974 318.299 139.296 319.163 137.063 320.771C134.831 322.379 133.156 324.651 132.275 327.265C131.395 329.88 131.352 332.707 132.154 335.347C132.956 337.987 134.562 340.308 136.745 341.983C140.146 339.489 143.533 336.98 146.908 334.457C150.282 331.933 153.653 329.405 157.022 326.874C156.085 324.355 154.405 322.185 152.206 320.653C150.008 319.121 147.396 318.3 144.721 318.301Z" fill="#DBCAF4" stroke="black" stroke-width="0.58203" stroke-miterlimit="10" stroke-linecap="round"/>
<path d="M115.176 245.852C112.136 258.78 102.633 260.642 93.8897 259.289C85.1462 257.936 77.1826 253.354 77.1826 253.354C70.626 262.101 63.2211 264.965 57.4564 265.644C51.6918 266.323 47.5672 264.812 47.5672 264.812C29.9797 219.649 42.8558 188.694 60.1257 169.031C77.3956 149.369 99.0433 140.998 99.0433 140.998C99.0433 140.998 106.766 151.53 112.643 169.904C118.52 188.278 122.552 214.485 115.176 245.852Z" fill="#DBCAF4" stroke="black" stroke-width="0.58203" stroke-miterlimit="10" stroke-linecap="round"/>
<path d="M99.1146 229.117C99.1911 230.484 98.8728 231.845 98.198 233.035C97.5593 234.142 96.6422 235.061 95.5386 235.699C94.4351 236.337 93.1839 236.673 91.9107 236.671C90.5481 236.663 89.2168 236.26 88.0756 235.512H88.0435C86.9038 236.26 85.5738 236.663 84.2124 236.671C82.9388 236.672 81.6873 236.337 80.5832 235.698C79.4791 235.06 78.5611 234.142 77.9211 233.035C77.2478 231.845 76.9309 230.484 77.0086 229.117C75.7918 228.5 74.7782 227.543 74.0901 226.361C73.4529 225.251 73.1175 223.993 73.1175 222.711C73.1175 221.43 73.4529 220.171 74.0901 219.061C74.7785 217.88 75.7921 216.925 77.0086 216.31C76.9312 214.944 77.2481 213.584 77.9211 212.395C78.5624 211.289 79.4806 210.372 80.5844 209.734C81.6882 209.096 82.9391 208.76 84.2124 208.759C85.5741 208.769 86.9041 209.173 88.0435 209.923H88.0676C89.2084 209.173 90.5397 208.769 91.9027 208.759C93.1756 208.759 94.4261 209.095 95.5293 209.734C96.6326 210.372 97.55 211.289 98.19 212.395C98.8642 213.584 99.1825 214.943 99.1065 216.31C100.321 216.927 101.334 217.882 102.025 219.061C102.66 220.172 102.994 221.43 102.994 222.711C102.994 223.992 102.66 225.251 102.025 226.361C101.337 227.54 100.327 228.496 99.1146 229.117Z" fill="#FF6406" stroke="#070707" stroke-width="0.58203" stroke-miterlimit="10" stroke-linecap="round"/>
<path d="M92.1925 222.705C92.1905 223.666 91.8571 224.596 91.2491 225.338C90.6411 226.079 89.7962 226.586 88.8582 226.771C87.9202 226.957 86.9473 226.81 86.105 226.355C85.2628 225.901 84.6034 225.167 84.2391 224.279C83.8749 223.39 83.8284 222.403 84.1075 221.484C84.3866 220.565 84.974 219.772 85.7698 219.239C86.5655 218.707 87.5203 218.468 88.4716 218.564C89.4228 218.66 90.3116 219.084 90.9865 219.764C91.3705 220.15 91.6748 220.609 91.8818 221.114C92.0887 221.618 92.1944 222.159 92.1925 222.705Z" fill="#ECE7E1" stroke="black" stroke-width="0.58203" stroke-miterlimit="10" stroke-linecap="round"/>
<path d="M109.169 167.874C108.116 167.85 107.111 167.423 106.36 166.68C105.61 165.937 105.17 164.934 105.131 163.875C105.092 162.817 105.457 161.784 106.15 160.987C106.844 160.19 107.815 159.689 108.864 159.588C108.06 157.681 107.284 155.907 106.516 154.279C105.748 152.651 105.009 151.156 104.301 149.835C103.841 149.9 103.389 150.009 102.95 150.162C102.521 150.303 102.105 150.483 101.708 150.7C100.603 151.338 99.6858 152.259 99.0509 153.37C98.3766 154.561 98.0584 155.921 98.1344 157.289C96.9201 157.909 95.9074 158.865 95.2159 160.044C94.5787 161.154 94.2433 162.413 94.2433 163.694C94.2433 164.976 94.5787 166.235 95.2159 167.345C95.9074 168.524 96.9201 169.48 98.1344 170.1C98.0584 171.468 98.3766 172.828 99.0509 174.019C99.6897 175.126 100.607 176.044 101.71 176.682C102.814 177.321 104.065 177.656 105.338 177.655C106.701 177.646 108.032 177.244 109.173 176.495H109.197C110.02 177.034 110.945 177.395 111.914 177.555C112.883 177.715 113.875 177.67 114.825 177.424C114.343 175.539 113.838 173.73 113.31 171.999C112.783 170.253 112.237 168.577 111.682 166.965C110.964 167.526 110.079 167.829 109.169 167.825V167.874Z" fill="#FF6406" stroke="#070707" stroke-width="0.58203" stroke-miterlimit="10" stroke-linecap="round"/>
<path d="M105.032 163.715C105.032 164.261 105.139 164.801 105.347 165.305C105.555 165.81 105.86 166.268 106.244 166.653C106.628 167.039 107.084 167.345 107.586 167.553C108.088 167.762 108.626 167.869 109.169 167.868C110.079 167.872 110.963 167.569 111.682 167.008C111.223 165.675 110.753 164.386 110.283 163.15C109.812 161.913 109.338 160.726 108.863 159.574C107.822 159.65 106.848 160.119 106.137 160.887C105.427 161.656 105.032 162.666 105.032 163.715Z" fill="#ECE7E1" stroke="black" stroke-width="0.58203" stroke-miterlimit="10" stroke-linecap="round"/>
<path d="M47.8413 188.357C47.7678 189.716 48.0845 191.068 48.7538 192.251C49.3876 193.354 50.2986 194.271 51.3957 194.909C52.4927 195.547 53.7374 195.884 55.0049 195.887C56.3583 195.88 57.6806 195.478 58.8119 194.732H58.84C59.9712 195.478 61.2935 195.88 62.6469 195.887C63.6178 195.897 64.5804 195.706 65.4752 195.328C66.37 194.949 67.178 194.39 67.8494 193.685C68.5207 192.98 69.0411 192.144 69.3784 191.229C69.7158 190.314 69.8628 189.339 69.8106 188.365C71.0182 187.75 72.0243 186.799 72.709 185.626C73.3465 184.521 73.6822 183.267 73.6822 181.99C73.6822 180.713 73.3465 179.458 72.709 178.354C72.0243 177.18 71.0182 176.229 69.8106 175.614C69.8828 174.256 69.5676 172.905 68.9021 171.72C68.3463 170.755 67.5773 169.931 66.6544 169.313C65.7315 168.694 64.6795 168.297 63.5796 168.153C62.6063 168.023 61.6166 168.104 60.6771 168.391C58.0969 171.269 55.7015 174.309 53.5055 177.493C51.1853 180.856 49.1148 184.385 47.3106 188.054C47.3951 188.11 47.4835 188.163 47.5719 188.211L47.8413 188.361V188.357ZM58.8279 177.853C59.7771 177.854 60.6966 178.185 61.4298 178.791C62.1631 179.397 62.6648 180.239 62.8495 181.175C63.0342 182.11 62.8906 183.081 62.443 183.922C61.9954 184.764 61.2716 185.423 60.3947 185.788C59.5179 186.153 58.5422 186.202 57.6338 185.925C56.7254 185.649 55.9404 185.064 55.4125 184.272C54.8846 183.479 54.6464 182.527 54.7385 181.577C54.8306 180.628 55.2472 179.74 55.9175 179.065C56.3012 178.68 56.7571 178.375 57.2587 178.168C57.7604 177.962 58.2979 177.857 58.84 177.861L58.8279 177.853Z" fill="#FF6406" stroke="#070707" stroke-width="0.58203" stroke-miterlimit="10" stroke-linecap="round"/>
<path d="M58.8396 186.117C59.7909 186.117 60.7127 185.785 61.448 185.178C62.1833 184.572 62.6866 183.728 62.8721 182.79C63.0576 181.852 62.9139 180.879 62.4655 180.036C62.0171 179.193 61.2917 178.532 60.4129 178.166C59.534 177.8 58.5561 177.751 57.6457 178.029C56.7353 178.306 55.9487 178.892 55.4199 179.687C54.8912 180.482 54.6529 181.436 54.7458 182.387C54.8386 183.339 55.2568 184.229 55.9292 184.905C56.3108 185.29 56.7645 185.595 57.264 185.803C57.7635 186.011 58.299 186.118 58.8396 186.117Z" fill="#ECE7E1" stroke="black" stroke-width="0.58203" stroke-miterlimit="10" stroke-linecap="round"/>
<path d="M293.459 284.146L287.831 307.744L282.203 331.346L307.597 340.739L332.987 350.128C335.665 351.252 338.469 352.046 341.337 352.491C345.412 353.14 349.578 352.919 353.562 351.841C358.514 350.427 363.025 347.766 366.667 344.108C370.565 340.201 373.593 335.507 375.551 330.336C376.618 327.572 377.388 324.702 377.851 321.775C378.31 318.844 378.49 315.876 378.389 312.911C378.035 302.177 377.223 292.396 376.206 283.702C375.189 275.008 373.959 267.409 372.777 261.038C368.99 240.7 364.665 227.752 360.83 219.426C356.995 211.099 353.654 207.366 351.837 205.48C338.129 191.21 319.842 184.952 304.285 182.33C293.981 180.591 283.503 180.138 273.089 180.981C266.727 181.591 260.429 182.757 254.268 184.463C245.432 186.9 236.936 190.446 228.982 195.016C221.13 199.543 213.869 205.036 207.366 211.366C211.025 212.501 214.605 213.876 218.084 215.483C220.7 216.691 223.25 218.039 225.722 219.523C227.89 220.814 229.983 222.231 231.989 223.765C233.533 224.977 234.562 225.882 235.149 226.415C235.993 227.182 237.022 228.172 238.139 229.392C239.397 230.767 240.569 232.219 241.649 233.739C243.675 236.598 245.369 239.681 246.698 242.926C247.448 244.772 248.088 246.66 248.616 248.582C252.451 261.914 258.34 274.499 264.74 286.873C271.14 299.248 278.058 311.424 283.939 323.997C285.526 317.361 287.111 310.721 288.695 304.08C290.279 297.438 291.867 290.794 293.459 284.146Z" fill="#C6FCDB" stroke="black" stroke-width="0.58203" stroke-miterlimit="10" stroke-linecap="round"/>
<path d="M159.308 256.175C159.308 256.175 161.101 255.048 165.197 255.726C169.294 256.405 175.694 258.886 184.895 266.097" stroke="black" stroke-width="0.58203" stroke-miterlimit="10" stroke-linecap="round"/>
<path d="M189.167 261.682C189.167 261.682 185.714 259.214 181.095 256.596C176.476 253.978 170.691 251.211 166.032 250.617" stroke="black" stroke-width="0.58203" stroke-miterlimit="10" stroke-linecap="round"/>
<path d="M192.155 257.834C190.981 257.006 189.743 256.161 188.384 255.313C187.025 254.464 185.614 253.616 184.099 252.78C182.684 251.996 181.304 251.28 179.958 250.63C178.62 249.984 177.317 249.394 176.071 248.865" stroke="black" stroke-width="0.58203" stroke-miterlimit="10" stroke-linecap="round"/>
<path d="M162.411 210.112C159.693 210.516 158.431 212.851 158.113 215.606C157.833 218.34 158.301 221.099 159.468 223.585C160.493 225.522 162.139 227.054 164.139 227.932C165.388 228.502 166.715 228.884 168.075 229.063C170.523 229.366 173.005 228.945 175.219 227.851C177.559 226.686 179.571 224.95 181.072 222.801C181.768 224.095 182.653 225.277 183.697 226.308C185.703 228.365 188.331 229.698 191.17 230.097C192.681 230.266 194.208 230.204 195.7 229.912C198.499 229.441 201.019 227.929 202.76 225.678C204.26 223.652 205.069 221.193 205.063 218.668C205.064 216.022 204.282 213.436 202.816 211.239C202.816 211.239 197.59 210.257 189.952 209.623C182.314 208.988 172.175 208.698 162.411 210.112Z" fill="#ECE7E1" stroke="black" stroke-width="0.58203" stroke-miterlimit="10" stroke-linecap="round"/>
<path d="M125.585 264.877L121.485 262.793L117.385 260.704L107.254 273.147L97.1198 285.586L99.4755 287.13L101.831 288.677L114.522 288.12L127.209 287.566L128.118 281.357L129.043 275.147L127.326 270.012L125.585 264.877Z" fill="#F2B3C1" stroke="black" stroke-width="0.58203" stroke-miterlimit="10" stroke-linecap="round"/>
<path d="M109.019 256.443C108.738 256.649 108.364 256.912 107.909 257.199C107.389 257.524 106.852 257.822 106.301 258.092C102.683 259.849 98.8564 260.075 95.3469 259.667C91.8375 259.259 88.6376 258.213 86.2416 257.433C85.1281 257.07 83.7693 256.581 82.2216 255.914C80.4824 255.163 78.7908 254.305 77.1564 253.345C76.4931 254.197 75.7092 255.134 74.7927 256.104C71.7212 259.349 68.0832 262 64.0593 263.925L80.5855 274.753L97.1117 285.58L107.246 273.141L117.377 260.698L113.196 258.572L109.019 256.443Z" fill="#F6C34C" stroke="#070707" stroke-width="0.58203" stroke-miterlimit="10" stroke-linecap="round"/>
<path d="M236.075 191.421C241.237 204.942 246.397 218.453 251.556 231.954C256.715 245.456 261.876 258.969 267.037 272.492C267.272 273.083 267.696 273.579 268.243 273.901C268.79 274.223 269.428 274.352 270.056 274.268C270.685 274.184 271.267 273.892 271.711 273.438C272.155 272.983 272.436 272.393 272.509 271.761L277.799 226.109L283.093 180.457C278.374 180.473 273.661 180.795 268.983 181.422C263.251 182.185 257.59 183.414 252.055 185.094C249.012 186.024 246.158 187.046 243.496 188.116C240.835 189.187 238.351 190.29 236.075 191.421Z" fill="#ECE7E1" stroke="black" stroke-width="0.58203" stroke-miterlimit="10" stroke-linecap="round"/>
<path d="M202.553 206.295L214.247 210.17L225.942 214.04L216.76 222.286L207.574 230.527L205.066 218.411L202.553 206.295Z" fill="#040400" stroke="#040400" stroke-width="0.58203" stroke-miterlimit="10"/>
<path d="M223.279 283.679L214.889 274.944L206.5 266.214C204.495 264.126 202.393 262.14 200.192 260.255C197.994 258.38 195.697 256.627 193.31 255.003C190.391 253.011 187.147 251.064 184.096 249.827C181.045 248.591 178.191 248.058 176.056 248.894C175.364 248.635 174.645 248.452 173.914 248.349C171.765 248.037 169.575 248.443 167.678 249.504C167.096 249.829 166.546 250.21 166.038 250.644C164.555 250.675 163.119 251.171 161.93 252.062C161.086 252.706 160.399 253.535 159.92 254.486C159.646 255.03 159.441 255.607 159.309 256.203C157.632 257.159 156.064 258.297 154.634 259.596C154.015 260.158 153.456 260.715 152.953 261.261C152.451 261.806 152.005 262.335 151.611 262.836C151.04 263.388 150.631 264.087 150.429 264.856C150.249 265.486 150.321 266.162 150.63 266.739C150.86 267.121 151.195 267.428 151.594 267.624C151.84 267.732 152.098 267.811 152.362 267.858C152.853 267.975 153.363 267.975 153.854 267.858C154.605 267.648 155.308 267.29 155.92 266.804C157.181 265.839 158.513 264.972 159.904 264.21C160.892 263.69 161.982 263.396 163.096 263.349H163.329H163.558C164.763 263.366 165.953 263.627 167.055 264.117C168.177 264.6 169.26 265.169 170.296 265.818C173.958 268.03 177.444 270.526 180.719 273.284C184.378 276.475 187.236 279.994 186.367 282.721C186.272 283.017 186.136 283.298 185.965 283.557C185.76 283.855 185.518 284.127 185.246 284.365C185.246 284.365 184.562 285.278 182.902 285.274C181.242 285.27 178.605 284.345 174.697 280.669C174.408 280.398 174.131 280.123 173.853 279.861C173.576 279.598 173.302 279.299 173.049 279.012C172.19 278.085 171.187 277.305 170.078 276.702C168.752 276.031 167.228 275.788 165.946 276.976C165.521 277.203 165.167 277.542 164.921 277.958C164.676 278.373 164.549 278.848 164.555 279.332C164.511 281.077 165.781 283.969 171.019 288.539C172.193 289.565 173.364 290.595 174.533 291.629C175.698 292.664 176.86 293.706 178.006 294.764L188.353 304.295L198.697 313.821L210.994 298.748L223.279 283.679Z" fill="#D87D61" stroke="black" stroke-width="0.58203" stroke-miterlimit="10" stroke-linecap="round"/>
<path d="M271.352 273.744C271.184 273.877 271 273.988 270.805 274.075C270.485 274.224 270.139 274.307 269.788 274.322C269.243 274.345 268.705 274.204 268.24 273.918C266.592 262.606 264.946 251.283 263.303 239.95C261.661 228.616 260.014 217.292 258.363 205.977L259.754 205.763L261.141 205.545C262.856 216.919 264.563 228.286 266.262 239.647C267.961 251.007 269.658 262.373 271.352 273.744Z" fill="#F6991A" stroke="#070707" stroke-width="0.58203" stroke-miterlimit="10" stroke-linecap="round"/>
<path d="M276.943 233.338C276.75 234.762 276.559 236.187 276.368 237.612L275.778 241.886C274.679 235.288 273.58 228.689 272.481 222.09C271.382 215.492 270.282 208.893 269.181 202.294L270.491 201.422L271.806 200.553C272.658 206.015 273.513 211.478 274.371 216.943C275.228 222.408 276.086 227.873 276.943 233.338Z" fill="#F6991A" stroke="#070707" stroke-width="0.58203" stroke-miterlimit="10" stroke-linecap="round"/>
<path d="M257.713 249.071C256.845 246.647 255.978 244.213 255.113 241.771L252.512 234.466C251.507 229.247 250.503 224.025 249.501 218.803C248.498 213.581 247.496 208.358 246.494 203.136C246.735 203.261 246.992 203.391 247.257 203.516C247.523 203.641 247.796 203.762 248.061 203.887C248.287 203.984 248.512 204.073 248.729 204.158L249.376 204.401C250.759 211.848 252.144 219.292 253.533 226.734L257.713 249.071Z" fill="#F6991A" stroke="#070707" stroke-width="0.58203" stroke-miterlimit="10" stroke-linecap="round"/>
<path d="M125.581 298.821C126.154 294.876 126.728 290.93 127.301 286.984C127.875 283.039 128.447 279.093 129.018 275.147C128.447 273.434 127.875 271.722 127.301 270.012L125.581 264.877L101.368 254.818L77.1801 244.754L102.582 238.646L127.989 232.533C131.165 231.77 134.328 230.966 137.492 230.146C140.656 229.325 143.808 228.481 146.967 227.649C150.305 226.751 153.816 226.733 157.162 227.596C161.27 228.683 165.793 231.374 169.861 237.135L179.509 249.408L189.157 261.682L157.367 280.266L125.581 298.821Z" fill="#ECE7E1" stroke="black" stroke-width="0.58203" stroke-miterlimit="10" stroke-linecap="round"/>
<path d="M111.275 258.794C112.432 258.54 113.514 258.017 114.435 257.267C116.103 255.975 117.94 253.631 118.62 249.361" stroke="black" stroke-width="0.58203" stroke-miterlimit="10" stroke-linecap="round"/>
<path d="M169.844 237.148C165.776 231.383 161.25 228.697 157.145 227.606C153.798 226.745 150.288 226.765 146.95 227.662C143.791 228.495 140.635 229.335 137.471 230.159C134.308 230.983 131.148 231.775 127.972 232.547L125.624 233.108L123.277 233.674C123.789 238.82 125.513 243.769 128.306 248.113C130.954 252.237 134.687 255.544 139.091 257.667C142.231 259.145 145.636 259.969 149.101 260.091C151.422 260.176 153.744 259.985 156.02 259.522C156.947 261.55 157.874 263.579 158.801 265.61L161.587 271.702C161.891 272.468 162.233 273.218 162.612 273.949C163.044 274.789 163.533 275.599 164.076 276.373C166.224 279.589 169.532 281.839 173.302 282.647C176.997 283.472 180.868 282.802 184.075 280.78C185.09 280.132 186.018 279.357 186.837 278.473C187.638 277.604 188.33 276.639 188.899 275.601C190.277 273.077 190.862 270.192 190.575 267.327C190.292 264.454 189.192 261.724 187.408 259.461L178.628 248.315L169.844 237.148Z" fill="#040400" stroke="#040400" stroke-width="0.58203" stroke-miterlimit="10"/>
<path d="M118.625 249.36C120.506 249.189 122.399 249.483 124.14 250.217C125.592 250.879 126.589 251.873 126.93 253.045C127.011 253.345 127.056 253.654 127.063 253.966C127.09 254.532 126.95 255.094 126.661 255.582C126.026 256.588 124.631 257.145 122.754 257.198C120.424 257.173 118.122 256.685 115.98 255.763C116.249 255.417 116.5 255.057 116.732 254.685C117.006 254.246 117.254 253.791 117.475 253.323C118.066 252.072 118.455 250.734 118.629 249.36H118.625Z" fill="#FC762B" stroke="#070707" stroke-width="0.58203" stroke-miterlimit="10" stroke-linecap="round"/>
<path d="M135.56 242.467C135.56 242.927 135.401 243.372 135.111 243.728C134.821 244.083 134.417 244.326 133.968 244.416C133.519 244.505 133.053 244.436 132.65 244.219C132.246 244.002 131.93 243.651 131.755 243.226C131.58 242.801 131.557 242.329 131.69 241.889C131.823 241.449 132.104 241.068 132.484 240.813C132.865 240.558 133.322 240.443 133.777 240.488C134.232 240.533 134.658 240.736 134.982 241.061C135.166 241.245 135.311 241.465 135.411 241.706C135.51 241.947 135.561 242.206 135.56 242.467Z" fill="#ECE7E1" stroke="black" stroke-width="0.58203" stroke-miterlimit="10" stroke-linecap="round"/>
<path d="M126.838 268.627C128.892 268.825 131.123 268.966 133.515 269.031C135.907 269.096 138.459 269.031 141.153 268.833C144.389 268.608 147.609 268.204 150.801 267.621C153.759 267.072 156.429 266.409 158.841 265.734L160.208 268.732L161.578 271.726C158.265 272.998 154.854 273.998 151.38 274.715C147.015 275.613 142.568 276.038 138.114 275.984C136.457 275.96 134.865 275.871 133.346 275.733C131.826 275.596 130.383 275.406 129.012 275.184L127.931 271.891L126.838 268.627Z" fill="#DBCAF4" stroke="black" stroke-width="0.58203" stroke-miterlimit="10" stroke-linecap="round"/>
<path d="M202.65 208.487C202.903 208.007 203.153 207.506 203.394 206.976C203.635 206.447 203.872 205.894 204.097 205.312C204.737 203.659 205.233 201.953 205.581 200.213C205.868 198.765 206.054 197.297 206.135 195.822C206.78 195.864 207.416 195.989 208.029 196.194C208.824 196.451 209.539 196.912 210.103 197.531C211.333 198.921 211.631 201.102 211.168 203.187C210.706 205.272 209.484 207.227 207.679 208.176C206.766 208.643 205.749 208.869 204.724 208.831C204.021 208.805 203.324 208.69 202.65 208.487Z" fill="#D87D61" stroke="black" stroke-width="0.58203" stroke-miterlimit="10" stroke-linecap="round"/>
<path d="M161.618 197.078L149.309 197.405L137 197.732L143.44 208.281L149.876 218.829L155.745 207.954L161.618 197.078Z" fill="#040400" stroke="#040400" stroke-width="0.58203" stroke-miterlimit="10"/>
<path d="M148.611 285.434L158.046 277.758L167.485 270.082C169.768 268.302 172.13 266.637 174.572 265.088C177.015 263.542 179.539 262.129 182.133 260.855C185.301 259.299 188.791 257.841 191.986 257.053C195.182 256.265 198.085 256.148 200.079 257.283C201.495 256.968 202.962 256.965 204.379 257.276C205.795 257.587 207.128 258.205 208.284 259.085C208.814 259.49 209.304 259.946 209.747 260.447C210.299 260.539 210.838 260.695 211.355 260.911C212.268 261.292 213.089 261.866 213.762 262.594C214.436 263.321 214.946 264.186 215.258 265.129C215.454 265.706 215.575 266.306 215.62 266.915L218.772 270.393L221.923 273.875C222.644 274.522 223.115 275.403 223.254 276.364C223.322 276.75 223.309 277.145 223.217 277.525C223.125 277.906 222.956 278.263 222.719 278.574C222.409 278.893 222.031 279.137 221.613 279.287C221.195 279.437 220.748 279.488 220.307 279.439C219.758 279.397 219.222 279.242 218.734 278.984C218.246 278.726 217.815 278.371 217.469 277.94C216.762 277.188 215.97 276.521 215.109 275.952C213.739 275.038 212.204 274.401 210.591 274.077L210.362 274.033L210.137 273.997C208.999 273.815 207.841 273.803 206.7 273.96C205.557 274.121 204.44 274.433 203.379 274.89C199.441 276.554 195.638 278.526 192.007 280.788C187.922 283.39 184.59 286.444 185.064 289.272C185.117 289.579 185.211 289.876 185.345 290.157C185.504 290.487 185.704 290.795 185.94 291.074C185.94 291.074 186.487 292.076 188.131 292.286C189.775 292.496 192.513 291.983 196.907 288.904C197.229 288.678 197.546 288.448 197.86 288.209C198.173 287.971 198.483 287.733 198.788 287.486C199.772 286.694 200.875 286.065 202.057 285.624C203.468 285.151 205.007 285.131 206.113 286.492C206.501 286.777 206.803 287.164 206.987 287.61C207.171 288.056 207.228 288.544 207.154 289.021C206.945 290.755 205.281 293.437 199.448 297.211C198.137 298.054 196.832 298.905 195.532 299.764C194.23 300.62 192.935 301.485 191.649 302.37L180.059 310.353L168.465 318.303C165.156 312.825 161.846 307.347 158.536 301.869L148.611 285.434Z" fill="#D87D61" stroke="black" stroke-width="0.58203" stroke-miterlimit="10" stroke-linecap="round"/>
<path d="M205.766 199.172C204.56 206.412 200.994 212.549 196.178 216.617C191.362 220.685 185.324 222.677 179.153 221.667C172.982 220.657 167.897 216.778 164.661 211.365C161.425 205.951 159.994 198.97 161.2 191.73C162.406 184.491 165.972 178.354 170.788 174.282C175.604 170.209 181.642 168.222 187.812 169.232C193.983 170.242 199.068 174.124 202.304 179.538C205.54 184.951 206.964 191.924 205.766 199.172Z" fill="#D87D61" stroke="black" stroke-width="0.58203" stroke-miterlimit="10" stroke-linecap="round"/>
<path d="M189.684 193.916C189.623 194.275 189.424 194.596 189.13 194.808C188.947 194.94 188.734 195.024 188.511 195.053C188.288 195.082 188.061 195.056 187.85 194.976C187.64 194.896 187.452 194.765 187.303 194.595C187.155 194.425 187.051 194.221 187 194C186.949 193.78 186.952 193.55 187.011 193.332C187.069 193.113 187.18 192.913 187.334 192.748C187.487 192.582 187.679 192.458 187.893 192.385C188.106 192.312 188.333 192.293 188.555 192.33C188.733 192.359 188.904 192.423 189.057 192.519C189.21 192.615 189.343 192.74 189.448 192.887C189.553 193.035 189.627 193.202 189.668 193.378C189.709 193.555 189.714 193.738 189.684 193.916Z" fill="#040400"/>
<path d="M173.313 191.638C173.275 191.861 173.183 192.071 173.046 192.25C172.908 192.429 172.729 192.571 172.524 192.664C172.319 192.756 172.094 192.797 171.869 192.782C171.645 192.766 171.428 192.696 171.237 192.576C171.046 192.456 170.887 192.291 170.775 192.095C170.663 191.899 170.6 191.678 170.593 191.452C170.586 191.226 170.634 191.002 170.734 190.799C170.833 190.596 170.981 190.421 171.164 190.29C171.384 190.131 171.647 190.041 171.918 190.032C172.189 190.023 172.457 190.096 172.688 190.24C172.918 190.385 173.1 190.595 173.211 190.844C173.323 191.093 173.358 191.369 173.313 191.638Z" fill="#040400"/>
<path d="M177.095 197.964L176.021 196.582L174.952 195.201C174.937 195.184 174.928 195.163 174.924 195.141C174.921 195.119 174.923 195.096 174.932 195.076C174.94 195.054 174.954 195.036 174.971 195.022C174.989 195.007 175.01 194.998 175.032 194.995L176.64 194.874L178.248 194.748L178.912 190.728L179.579 186.688" stroke="black" stroke-width="0.58203" stroke-miterlimit="10" stroke-linecap="round"/>
<path d="M182.912 202.208C182.502 202.924 181.902 203.513 181.18 203.909C180.42 204.325 179.569 204.545 178.703 204.547C177.757 204.553 176.826 204.304 176.006 203.828C175.218 203.377 174.578 202.704 174.165 201.893" stroke="black" stroke-width="0.58203" stroke-miterlimit="10" stroke-linecap="round"/>
<path d="M186.577 185.664L190.436 187.357L194.295 189.054" stroke="black" stroke-width="0.58203" stroke-miterlimit="10" stroke-linecap="round"/>
<path d="M215.608 266.872C215.608 266.872 214 265.499 209.843 265.584C205.687 265.668 198.989 267.2 188.871 273.025" stroke="black" stroke-width="0.58203" stroke-miterlimit="10" stroke-linecap="round"/>
<path d="M176.106 184.93L171.954 185.94L167.805 186.946" stroke="black" stroke-width="0.58203" stroke-miterlimit="10" stroke-linecap="round"/>
<path d="M185.27 268.056C185.27 268.056 189.04 266.109 193.981 264.178C198.922 262.246 205.044 260.34 209.743 260.416" stroke="black" stroke-width="0.58203" stroke-miterlimit="10" stroke-linecap="round"/>
<path d="M195.156 201.305C195.02 202.136 194.601 202.893 193.972 203.447C193.342 204.002 192.541 204.32 191.704 204.348C190.867 204.375 190.047 204.11 189.383 203.598C188.719 203.086 188.252 202.358 188.062 201.538C187.872 200.719 187.971 199.859 188.342 199.104C188.712 198.35 189.332 197.748 190.095 197.401C190.858 197.054 191.716 196.984 192.525 197.202C193.333 197.421 194.042 197.914 194.529 198.599C195.086 199.382 195.312 200.355 195.156 201.305Z" fill="#FF6406" stroke="#070707" stroke-width="0.58203" stroke-miterlimit="10" stroke-linecap="round"/>
<path d="M173.187 198.036C173.05 198.866 172.631 199.623 172.002 200.177C171.372 200.731 170.571 201.049 169.734 201.076C168.897 201.103 168.077 200.837 167.414 200.325C166.75 199.812 166.284 199.084 166.094 198.265C165.904 197.446 166.003 196.586 166.374 195.831C166.745 195.077 167.364 194.476 168.127 194.129C168.89 193.782 169.748 193.712 170.557 193.93C171.365 194.148 172.073 194.642 172.56 195.326C172.837 195.714 173.034 196.153 173.142 196.618C173.25 197.083 173.265 197.565 173.187 198.036Z" fill="#FF6406" stroke="#070707" stroke-width="0.58203" stroke-miterlimit="10" stroke-linecap="round"/>
<path d="M164.074 182.885C167.148 183.462 170.292 183.565 173.397 183.192C178.691 182.586 185.252 180.453 190.321 174.361C191.3 177.6 192.588 180.736 194.168 183.726C196.765 188.638 200.721 194.003 206.152 195.825C206.797 195.872 207.433 196.008 208.041 196.229C208.649 196.421 209.212 196.734 209.696 197.151C210.179 197.568 210.574 198.079 210.855 198.653C210.855 198.653 213.914 191.959 213.183 184.109C212.451 176.26 207.929 167.218 192.765 162.548C188.023 161.303 183.045 161.284 178.293 162.491C170.563 164.511 161.855 170.693 157.944 187.216C158.367 187.025 158.813 186.889 159.27 186.812C160.272 186.613 161.309 186.714 162.253 187.103L163.178 185.006L164.074 182.885Z" fill="#040400" stroke="#040400" stroke-width="0.58203" stroke-miterlimit="10"/>
<path d="M171.596 202.679C171.617 202.582 171.632 202.483 171.641 202.384C171.641 202.283 171.661 202.182 171.665 202.085C171.675 201.806 171.666 201.527 171.637 201.249C171.608 200.97 171.568 200.696 171.524 200.421C171.415 199.714 171.287 199.007 171.142 198.308C170.997 197.609 170.837 196.906 170.66 196.215C170.644 196.156 170.612 196.103 170.567 196.062C170.522 196.021 170.467 195.993 170.407 195.982C170.348 195.971 170.286 195.977 170.23 196C170.173 196.022 170.124 196.061 170.089 196.11C169.811 196.514 169.538 196.918 169.285 197.322C169.032 197.726 168.762 198.15 168.513 198.566C168.216 199.063 167.898 199.572 167.629 200.106C167.351 200.626 167.15 201.184 167.034 201.762C166.985 202.041 166.97 202.324 166.989 202.606C167.012 202.885 167.08 203.158 167.19 203.414C167.367 203.794 167.645 204.116 167.994 204.344C168.333 204.581 168.731 204.719 169.143 204.743C169.555 204.768 169.966 204.677 170.33 204.481C170.862 204.213 171.272 203.75 171.476 203.188C171.53 203.022 171.57 202.852 171.596 202.679Z" fill="#84A1E5" stroke="#070707" stroke-width="0.58203" stroke-miterlimit="10" stroke-linecap="round"/>
<path d="M182.886 263.808C184.165 263.158 185.527 262.504 186.979 261.857C188.43 261.211 189.961 260.572 191.577 259.962C193.089 259.389 194.56 258.88 195.979 258.431C197.398 257.983 198.769 257.583 200.08 257.219" stroke="black" stroke-width="0.58203" stroke-miterlimit="10" stroke-linecap="round"/>
<path d="M223.277 283.667L238.955 296.91L254.633 310.153" stroke="black" stroke-width="0.58203" stroke-miterlimit="10" stroke-linecap="round"/>
<path d="M283.46 173.114C283.862 181.759 281.357 189.738 276.952 195.645C272.546 201.551 266.254 205.385 259.119 205.745C251.983 206.104 245.354 202.945 240.398 197.519C235.441 192.094 232.181 184.414 231.767 175.768C231.353 167.122 233.873 159.147 238.275 153.241C242.677 147.334 248.972 143.496 256.108 143.141C263.243 142.785 269.872 145.945 274.821 151.37C279.77 156.796 283.046 164.468 283.46 173.114Z" fill="#D87D61" stroke="black" stroke-width="0.58203" stroke-miterlimit="10" stroke-linecap="round"/>
<path d="M259.694 171.613C259.716 171.936 259.642 172.258 259.48 172.537C259.318 172.817 259.076 173.041 258.786 173.182C258.496 173.322 258.171 173.371 257.852 173.323C257.534 173.276 257.237 173.133 257 172.914C256.684 172.622 256.493 172.218 256.47 171.787C256.448 171.463 256.525 171.14 256.688 170.861C256.852 170.581 257.095 170.357 257.387 170.219C257.679 170.08 258.006 170.033 258.325 170.083C258.644 170.134 258.94 170.28 259.175 170.502C259.487 170.789 259.673 171.188 259.694 171.613Z" fill="#040400"/>
<path d="M242.557 175.297C242.582 175.727 242.437 176.149 242.155 176.473C242.013 176.632 241.84 176.761 241.647 176.853C241.455 176.945 241.246 176.999 241.033 177.01C240.82 177.021 240.607 176.989 240.406 176.918C240.205 176.846 240.02 176.735 239.862 176.592C239.704 176.448 239.575 176.275 239.483 176.081C239.391 175.888 239.339 175.678 239.328 175.464C239.317 175.25 239.348 175.036 239.419 174.834C239.49 174.632 239.601 174.446 239.743 174.287C240.033 173.969 240.436 173.777 240.865 173.754C241.077 173.742 241.29 173.772 241.491 173.844C241.692 173.915 241.876 174.026 242.034 174.169C242.192 174.313 242.32 174.486 242.41 174.68C242.501 174.874 242.552 175.083 242.561 175.297H242.557Z" fill="#040400"/>
<path d="M249.314 180.985L247.509 179.991L245.704 178.965C245.681 178.952 245.662 178.933 245.649 178.911C245.636 178.888 245.628 178.862 245.628 178.836C245.626 178.809 245.632 178.783 245.645 178.759C245.658 178.736 245.677 178.716 245.7 178.703L247.392 177.81L249.085 176.917L247.935 172.247L246.785 167.581" stroke="black" stroke-width="0.58203" stroke-miterlimit="10" stroke-linecap="round"/>
<path d="M257.342 183.854C257.149 184.81 256.697 185.694 256.035 186.408C255.341 187.159 254.47 187.725 253.503 188.052C252.444 188.412 251.309 188.483 250.214 188.258C249.164 188.05 248.198 187.536 247.436 186.779" stroke="black" stroke-width="0.58203" stroke-miterlimit="10" stroke-linecap="round"/>
<path d="M254.307 162.97L259.208 162.158L264.108 161.345" stroke="black" stroke-width="0.58203" stroke-miterlimit="10" stroke-linecap="round"/>
<path d="M243.613 164.856L238.837 166.472L234.061 168.088" stroke="black" stroke-width="0.58203" stroke-miterlimit="10" stroke-linecap="round"/>
<path d="M283.09 180.416C283.215 179.608 283.32 178.727 283.396 177.798C283.472 176.869 283.513 175.891 283.509 174.861C283.506 173.072 283.372 171.285 283.107 169.516C282.89 168.056 282.588 166.61 282.202 165.185C283.037 164.972 283.897 164.872 284.759 164.886C285.932 164.885 287.079 165.234 288.055 165.888C289.876 167.177 290.745 169.625 290.704 172.134C290.664 174.643 289.719 177.217 287.89 178.756C287.132 179.389 286.246 179.848 285.293 180.101C284.575 180.297 283.835 180.403 283.09 180.416Z" fill="#D87D61" stroke="black" stroke-width="0.58203" stroke-miterlimit="10" stroke-linecap="round"/>
<path d="M268.365 178.827C268.413 179.817 268.118 180.792 267.531 181.588C266.943 182.383 266.1 182.949 265.143 183.19C264.187 183.43 263.177 183.33 262.286 182.906C261.395 182.482 260.678 181.761 260.257 180.866C259.836 179.97 259.736 178.955 259.976 177.994C260.215 177.033 260.779 176.186 261.571 175.596C262.363 175.006 263.334 174.71 264.318 174.758C265.303 174.807 266.24 175.197 266.97 175.862C267.386 176.239 267.723 176.696 267.963 177.204C268.202 177.713 268.339 178.265 268.365 178.827Z" fill="#FF6406" stroke="#070707" stroke-width="0.58203" stroke-miterlimit="10" stroke-linecap="round"/>
<path d="M244.382 184.562C244.43 185.552 244.135 186.529 243.547 187.326C242.959 188.122 242.115 188.689 241.157 188.93C240.2 189.171 239.189 189.071 238.297 188.646C237.405 188.222 236.687 187.5 236.266 186.604C235.844 185.707 235.744 184.691 235.984 183.729C236.224 182.768 236.789 181.919 237.582 181.328C238.374 180.738 239.346 180.442 240.332 180.491C241.318 180.539 242.256 180.93 242.987 181.596C243.403 181.974 243.74 182.43 243.98 182.939C244.219 183.448 244.356 183.999 244.382 184.562Z" fill="#FF6406" stroke="#070707" stroke-width="0.58203" stroke-miterlimit="10" stroke-linecap="round"/>
<path d="M234.587 188.669C234.306 187.949 234.028 187.19 233.783 186.394C233.538 185.598 233.269 184.778 233.035 183.893C232.532 182.022 232.148 180.121 231.886 178.201C231.665 176.561 231.531 174.91 231.484 173.256C230.747 173.182 230.003 173.205 229.273 173.325C228.324 173.478 227.433 173.879 226.688 174.488C225.04 175.874 224.678 178.354 225.196 180.851C225.715 183.348 227.114 185.869 228.983 187.315C229.922 188.031 231.031 188.488 232.199 188.64C232.991 188.754 233.793 188.764 234.587 188.669Z" fill="#D87D61" stroke="black" stroke-width="0.58203" stroke-miterlimit="10" stroke-linecap="round"/>
<path d="M244.704 152.255C244.697 154.731 243.837 157.129 242.269 159.038C240.701 160.948 238.523 162.253 236.106 162.73C233.688 163.207 231.181 162.826 229.011 161.653C226.841 160.481 225.143 158.588 224.206 156.298C223.269 154.008 223.151 151.463 223.872 149.095C224.594 146.728 226.109 144.685 228.161 143.314C230.213 141.944 232.675 141.331 235.126 141.58C237.577 141.83 239.867 142.925 241.604 144.68C242.592 145.676 243.374 146.857 243.905 148.157C244.437 149.457 244.709 150.85 244.704 152.255Z" fill="#040400" stroke="#040400" stroke-width="0.58203" stroke-miterlimit="10"/>
<path d="M263.984 145C263.984 148.495 262.778 151.881 260.572 154.583C258.365 157.284 255.295 159.133 251.885 159.814C248.474 160.496 244.934 159.968 241.867 158.32C238.8 156.673 236.397 154.008 235.066 150.779C233.736 147.55 233.56 143.957 234.57 140.613C235.58 137.269 237.712 134.38 240.603 132.439C243.495 130.497 246.967 129.623 250.427 129.966C253.888 130.309 257.123 131.847 259.582 134.318C260.981 135.719 262.089 137.384 262.845 139.217C263.6 141.05 263.988 143.016 263.984 145Z" fill="#040400" stroke="#040400" stroke-width="0.58203" stroke-miterlimit="10"/>
<path d="M288.151 144.995C288.156 148.49 286.955 151.879 284.752 154.584C282.549 157.29 279.481 159.144 276.071 159.831C272.661 160.518 269.119 159.995 266.049 158.352C262.979 156.709 260.571 154.047 259.235 150.82C257.899 147.592 257.718 143.999 258.722 140.653C259.726 137.306 261.854 134.413 264.743 132.466C267.632 130.52 271.103 129.64 274.565 129.976C278.027 130.313 281.265 131.846 283.729 134.313C285.131 135.712 286.243 137.377 287.002 139.21C287.761 141.043 288.152 143.009 288.151 144.995Z" fill="#040400" stroke="#040400" stroke-width="0.58203" stroke-miterlimit="10"/>
<path d="M138.724 126.344C137.035 134.161 138.197 141.829 141.445 147.906C144.693 153.982 150.028 158.466 156.677 159.916C163.326 161.367 170.027 159.512 175.491 155.339C180.954 151.166 185.183 144.678 186.871 136.86C188.56 129.043 187.402 121.371 184.15 115.295C180.897 109.219 175.571 104.734 168.922 103.284C162.273 101.833 155.571 103.688 150.108 107.861C144.645 112.034 140.416 118.523 138.724 126.344Z" fill="#F2B3C1" stroke="black" stroke-width="0.58203" stroke-miterlimit="10" stroke-linecap="round"/>
<path d="M271.209 158.18C271.47 160.703 272.134 163.166 273.175 165.476C274.831 168.947 277.834 172.078 283.225 170.692C283.225 170.692 283.124 169.815 282.948 168.692C282.772 167.513 282.524 166.346 282.204 165.198C282.204 165.198 282.606 165.105 283.197 165.028C283.952 164.927 284.716 164.901 285.476 164.951C285.752 163.682 285.935 162.394 286.023 161.097C286.263 158.012 286.079 154.908 285.476 151.874L278.345 155.025L271.209 158.18Z" fill="#040400" stroke="#040400" stroke-width="0.58203" stroke-miterlimit="10"/>
<path d="M293.459 283.679L288.297 304.973L283.139 326.268C277.176 324.742 271.384 322.607 265.853 319.897C261.874 317.938 258.054 315.667 254.429 313.106C251.961 311.373 249.623 309.461 247.434 307.385C244.025 304.156 241.028 300.514 238.513 296.542C237.453 294.793 236.53 292.964 235.752 291.072C234.505 288.013 233.537 284.305 234.634 281.719C234.755 281.414 234.91 281.124 235.096 280.855C235.369 280.45 235.741 280.124 236.178 279.909C236.91 279.602 237.727 279.567 238.481 279.812C239.089 279.978 239.662 280.252 240.174 280.62C241.445 281.623 242.575 282.796 243.53 284.107C244.515 285.408 245.4 286.797 246.264 288.123C246.915 289.187 247.688 290.172 248.567 291.056C249.536 291.961 250.666 292.538 251.836 292.033C252.057 291.933 252.252 291.78 252.403 291.589C252.557 291.397 252.678 291.179 252.76 290.947C253.564 288.644 252.76 285.513 251.743 282.955C251.115 281.388 250.367 279.873 249.504 278.423C248.049 276.203 246.41 274.11 244.604 272.169C242.529 269.866 239.912 267.187 236.439 263.644C235.126 262.382 233.907 261.023 232.793 259.58C231.856 258.255 231.346 256.986 231.74 255.839C231.923 255.333 232.243 254.89 232.664 254.558C233.05 254.247 233.476 253.99 233.931 253.795C233.046 252.996 232.475 251.905 232.323 250.72C232.25 250.244 232.281 249.758 232.414 249.295C232.548 248.833 232.78 248.405 233.094 248.042C233.644 247.507 234.372 247.196 235.137 247.169C235.572 247.136 236.01 247.159 236.439 247.238C236.004 246.368 235.815 245.396 235.892 244.426C235.918 243.717 236.179 243.038 236.634 242.495C237.089 241.953 237.71 241.579 238.401 241.432C238.747 241.347 239.102 241.3 239.458 241.291C239.796 241.285 240.134 241.328 240.459 241.42C240.898 241.553 241.329 241.71 241.75 241.893C242.232 242.095 242.795 242.337 243.422 242.628C244.049 242.919 244.74 243.262 245.488 243.658C245.757 243.38 246.043 243.044 246.344 242.721C246.626 242.405 246.943 242.123 247.289 241.881C248.752 240.927 250.59 241.331 252.338 242.18C253.935 243.037 255.454 244.033 256.877 245.157C259.033 246.731 261.05 248.488 262.907 250.409C263.987 251.52 265.006 252.688 265.962 253.908C271.457 260.925 274.597 265.22 276.973 268.306C278.913 270.949 281.064 273.429 283.405 275.72C284.514 276.798 285.897 278.063 287.573 279.424C289.456 280.95 291.42 282.371 293.459 283.679Z" fill="#D87D61" stroke="black" stroke-width="0.58203" stroke-miterlimit="10" stroke-linecap="round"/>
<path d="M233.933 253.796C235.541 254.846 237.221 256.026 238.966 257.359C240.711 258.692 242.504 260.187 244.325 261.803C246.672 263.925 248.901 266.176 251.002 268.546C252.948 270.747 254.62 272.869 256.059 274.836" stroke="black" stroke-width="0.58203" stroke-miterlimit="10" stroke-linecap="round"/>
<path d="M236.44 247.248C238.245 248.367 240.178 249.672 242.192 251.167C244.206 252.662 246.305 254.375 248.423 256.302C250.874 258.529 253.188 260.902 255.354 263.408C257.364 265.719 259.036 267.937 260.459 269.961" stroke="black" stroke-width="0.58203" stroke-miterlimit="10" stroke-linecap="round"/>
<path d="M245.49 243.67C247.403 245.189 249.425 246.902 251.52 248.862C253.614 250.821 255.733 252.978 257.863 255.386C259.335 257.047 260.677 258.687 261.927 260.287C263.178 261.887 264.299 263.45 265.332 264.957" stroke="black" stroke-width="0.58203" stroke-miterlimit="10" stroke-linecap="round"/>
<path d="M340.276 296.91L316.868 290.288L293.463 283.667" stroke="black" stroke-width="0.58203" stroke-miterlimit="10" stroke-linecap="round"/>
<path d="M137.954 133.082C137.954 132.319 137.998 131.507 138.07 130.658C138.143 129.81 138.251 128.901 138.408 127.964C138.679 126.333 139.07 124.724 139.578 123.152C139.997 121.852 140.494 120.578 141.065 119.338C140.335 119.018 139.566 118.795 138.778 118.676C137.709 118.494 136.611 118.635 135.622 119.08C133.765 119.976 132.607 122.077 132.265 124.372C131.924 126.667 132.398 129.155 133.817 130.836C134.415 131.525 135.154 132.077 135.984 132.452C136.613 132.74 137.275 132.952 137.954 133.082Z" fill="#F2B3C1" stroke="black" stroke-width="0.58203" stroke-miterlimit="10" stroke-linecap="round"/>
<path d="M309.987 260.91L313.561 275.478L317.135 290.043" stroke="black" stroke-width="0.58203" stroke-miterlimit="10" stroke-linecap="round"/>
<path d="M142.398 116.818C144.72 118.171 147.316 118.981 149.992 119.185C154.515 119.561 160.493 118.309 166.305 111.78C166.736 114.485 167.699 117.077 169.138 119.404C170.577 121.73 172.464 123.745 174.687 125.33C178.816 128.239 183.804 129.37 188.251 128.182C191.579 127.294 194.546 125.128 196.749 122.147C199.066 118.95 200.415 115.15 200.636 111.202C200.599 106.86 199.192 102.642 196.616 99.155C194.255 95.9193 190.83 93.6291 186.948 92.691C183.445 91.9531 179.798 92.3785 176.556 93.903C174.79 94.6896 173.142 95.7203 171.66 96.9653C169.32 95.654 166.799 94.7008 164.179 94.1373C159.998 93.2243 154.531 93.0546 148.947 95.7775C144.725 97.853 141.223 101.159 138.897 105.263C136.514 109.457 135.381 114.25 135.633 119.072C135.921 118.952 136.218 118.853 136.521 118.777C137.584 118.504 138.699 118.513 139.757 118.806C140.213 118.931 140.655 119.103 141.076 119.319C141.159 119.133 141.247 118.943 141.341 118.749C141.434 118.559 141.534 118.345 141.639 118.163C141.743 117.981 141.892 117.686 142.017 117.46C142.141 117.234 142.27 117.024 142.398 116.818Z" fill="#ECE7E1" stroke="black" stroke-width="0.58203" stroke-miterlimit="10" stroke-linecap="round"/>
<path d="M182.284 148.187C182.658 147.572 183.032 146.926 183.398 146.239C183.763 145.552 184.125 144.833 184.475 144.078C185.23 142.453 185.877 140.779 186.413 139.068C186.867 137.608 187.243 136.125 187.538 134.624C188.242 134.667 188.936 134.803 189.604 135.028C190.469 135.312 191.246 135.816 191.86 136.491C193.198 138.014 193.162 140.333 192.298 142.531C191.434 144.728 189.741 146.809 187.767 147.863C186.772 148.369 185.666 148.613 184.551 148.57C183.783 148.538 183.021 148.409 182.284 148.187Z" fill="#F2B3C1" stroke="black" stroke-width="0.58203" stroke-miterlimit="10" stroke-linecap="round"/>
<path d="M315.362 207.588C315.615 206.611 315.764 205.568 315.941 204.566C316.067 203.65 316.266 202.744 316.536 201.86C317.03 200.426 317.605 198.676 318.49 197.262C319.374 195.848 320.564 194.778 322.284 194.701C322.284 194.701 323.012 194.673 323.659 195.699C324.306 196.725 324.865 198.81 324.54 203.043C324.32 205.842 323.793 208.607 322.968 211.289C322.141 213.974 321.032 216.564 319.659 219.014L316.086 225.429L312.508 231.836C312.138 232.501 311.851 233.21 311.656 233.945C311.461 234.682 311.372 235.442 311.39 236.204C311.364 237.258 311.702 238.289 312.347 239.121C313.038 239.929 314.192 240.405 316.053 240.236C315.237 241.368 314.548 242.587 313.999 243.872C313.195 245.843 312.793 248.13 314.514 249.378C315.235 249.952 316.14 250.24 317.058 250.186C318.602 250.089 320.676 248.998 322.819 245.019C322.819 245.019 323.864 247.039 325.657 247.762C327.45 248.485 329.979 247.875 332.953 242.611C333.34 243.163 333.88 243.587 334.506 243.832C335.132 244.076 335.815 244.129 336.471 243.985C338.742 243.464 342.043 240.518 346.155 230.831C346.729 229.484 347.318 228.137 347.924 226.791C348.53 225.444 349.143 224.109 349.765 222.787C351.775 218.505 354.694 210.942 355.128 202.777C355.562 194.612 353.496 185.845 345.48 179.151C343.732 177.68 341.767 176.493 339.655 175.632C337.549 174.775 335.309 174.295 333.038 174.214C329.408 174.083 325.82 175.035 322.727 176.949C319.109 179.171 315.491 183.009 312.367 189.376C311.195 191.815 310.192 194.333 309.364 196.911C308.029 201.092 307.029 206.11 308.363 209.435C308.676 210.223 309.259 210.872 310.007 211.265C310.375 211.461 310.777 211.582 311.191 211.619C311.606 211.657 312.023 211.61 312.419 211.483L312.548 211.439L312.677 211.39C313.402 211.086 314.015 210.562 314.429 209.891C314.857 209.177 315.172 208.4 315.362 207.588Z" fill="#F2B3C1" stroke="black" stroke-width="0.58203" stroke-miterlimit="10" stroke-linecap="round"/>
<path d="M329.515 214.443C328.384 217.166 327.124 219.977 325.736 222.875C324.341 225.767 322.805 228.737 321.117 231.763C320.281 233.263 319.439 234.719 318.593 236.13C317.744 237.54 316.896 238.914 316.048 240.239" stroke="black" stroke-width="0.58203" stroke-miterlimit="10" stroke-linecap="round"/>
<path d="M336.398 217.999C336.398 217.999 334.055 223.214 331.172 229.198C328.29 235.181 324.917 241.944 322.807 245.026" stroke="black" stroke-width="0.58203" stroke-miterlimit="10" stroke-linecap="round"/>
<path d="M342.867 221.313L337.91 231.962L332.953 242.612" stroke="black" stroke-width="0.58203" stroke-miterlimit="10" stroke-linecap="round"/>
<path d="M245.669 106.602C246.071 114.593 243.659 121.954 239.474 127.424C235.289 132.894 229.287 136.429 222.493 136.768C215.7 137.108 209.384 134.175 204.677 129.157C199.969 124.139 196.854 117.037 196.46 109.054C196.066 101.071 198.47 93.702 202.655 88.2278C206.84 82.7536 212.841 79.2226 219.635 78.8833C226.429 78.5439 232.74 81.4769 237.452 86.4946C242.163 91.5123 245.275 98.6065 245.669 106.602Z" fill="#F2B3C1" stroke="black" stroke-width="0.58203" stroke-miterlimit="10" stroke-linecap="round"/>
<path d="M223.717 107.75C223.734 108.096 223.63 108.438 223.424 108.715C223.218 108.993 222.923 109.191 222.588 109.275C222.254 109.359 221.901 109.324 221.589 109.175C221.278 109.027 221.027 108.775 220.879 108.461C220.732 108.148 220.697 107.793 220.781 107.457C220.864 107.121 221.061 106.824 221.338 106.618C221.615 106.411 221.954 106.307 222.299 106.323C222.643 106.34 222.971 106.476 223.227 106.708C223.373 106.841 223.492 107.001 223.576 107.18C223.66 107.359 223.708 107.553 223.717 107.75Z" fill="#040400"/>
<path d="M207.699 112.768C207.706 112.966 207.675 113.164 207.606 113.35C207.537 113.535 207.432 113.706 207.297 113.851C207.132 114.034 206.924 114.174 206.693 114.257C206.461 114.341 206.213 114.366 205.969 114.33C205.726 114.294 205.495 114.198 205.297 114.05C205.1 113.903 204.941 113.709 204.836 113.486C204.731 113.262 204.682 113.016 204.694 112.769C204.706 112.522 204.778 112.282 204.905 112.07C205.031 111.858 205.208 111.68 205.419 111.553C205.63 111.426 205.869 111.354 206.115 111.342C206.311 111.331 206.508 111.36 206.693 111.426C206.878 111.492 207.048 111.595 207.194 111.727C207.34 111.86 207.458 112.02 207.542 112.198C207.626 112.377 207.674 112.571 207.683 112.768H207.699Z" fill="#040400"/>
<path d="M215.15 116.762L213.481 115.845L211.817 114.928C211.795 114.916 211.777 114.898 211.764 114.877C211.75 114.856 211.742 114.832 211.741 114.807C211.741 114.782 211.748 114.759 211.76 114.737C211.771 114.716 211.789 114.698 211.809 114.686L213.373 113.878L214.941 113.07L213.863 108.71L212.802 104.396" stroke="black" stroke-width="0.58203" stroke-miterlimit="10" stroke-linecap="round"/>
<path d="M223.163 117.871C223.069 118.768 222.728 119.622 222.178 120.335C221.603 121.088 220.85 121.683 219.987 122.068C219.044 122.492 218.007 122.655 216.98 122.541C215.996 122.439 215.064 122.048 214.299 121.418" stroke="black" stroke-width="0.58203" stroke-miterlimit="10" stroke-linecap="round"/>
<path d="M217.661 102.171L222.22 101.626L226.779 101.072" stroke="black" stroke-width="0.58203" stroke-miterlimit="10" stroke-linecap="round"/>
<path d="M208.887 104.464L204.71 106.528L200.529 108.593" stroke="black" stroke-width="0.58203" stroke-miterlimit="10" stroke-linecap="round"/>
<path d="M245.339 113.361C245.455 112.606 245.552 111.798 245.62 110.937C245.688 110.077 245.729 109.172 245.729 108.219C245.728 105.197 245.323 102.19 244.523 99.278C245.295 99.0798 246.09 98.9861 246.886 98.9993C247.971 98.9988 249.032 99.3222 249.934 99.9285C251.618 101.116 252.422 103.379 252.386 105.698C252.35 108.017 251.473 110.396 249.797 111.818C249.093 112.405 248.27 112.831 247.385 113.067C246.717 113.248 246.03 113.347 245.339 113.361Z" fill="#F2B3C1" stroke="black" stroke-width="0.58203" stroke-miterlimit="10" stroke-linecap="round"/>
<path d="M233.765 112.294C233.811 113.209 233.539 114.113 232.996 114.85C232.452 115.587 231.672 116.112 230.787 116.335C229.902 116.558 228.967 116.466 228.142 116.075C227.317 115.683 226.653 115.016 226.262 114.187C225.872 113.358 225.779 112.419 226.001 111.529C226.222 110.64 226.744 109.855 227.477 109.308C228.209 108.762 229.108 108.488 230.019 108.533C230.931 108.577 231.799 108.939 232.475 109.554C232.859 109.903 233.171 110.324 233.392 110.794C233.614 111.265 233.74 111.774 233.765 112.294Z" fill="#FF6406" stroke="#070707" stroke-width="0.58203" stroke-miterlimit="10" stroke-linecap="round"/>
<path d="M210.145 120.661C210.19 121.577 209.918 122.48 209.375 123.217C208.832 123.954 208.051 124.479 207.166 124.702C206.281 124.926 205.347 124.833 204.522 124.442C203.696 124.05 203.032 123.383 202.642 122.554C202.251 121.725 202.159 120.786 202.38 119.896C202.602 119.007 203.123 118.222 203.856 117.675C204.589 117.129 205.487 116.855 206.399 116.9C207.31 116.945 208.178 117.306 208.854 117.922C209.238 118.27 209.55 118.692 209.772 119.162C209.993 119.632 210.12 120.141 210.145 120.661Z" fill="#FF6406" stroke="#070707" stroke-width="0.58203" stroke-miterlimit="10" stroke-linecap="round"/>
<path d="M199.14 120.967C198.872 120.302 198.612 119.602 198.36 118.867C198.111 118.131 197.869 117.36 197.648 116.556C196.769 113.349 196.275 110.047 196.177 106.722C195.476 106.652 194.77 106.674 194.074 106.787C193.174 106.925 192.325 107.295 191.61 107.862C190.038 109.138 189.697 111.433 190.191 113.744C190.686 116.055 192.016 118.382 193.809 119.727C194.711 120.386 195.766 120.803 196.872 120.939C197.624 121.043 198.386 121.053 199.14 120.967Z" fill="#F2B3C1" stroke="black" stroke-width="0.58203" stroke-miterlimit="10" stroke-linecap="round"/>
<path d="M196.178 106.732C196.178 106.732 200.138 106.518 204.938 103.823C209.738 101.128 215.39 95.9532 218.735 86.0269C220.31 89.1944 222.429 92.0581 224.994 94.4867C229.187 98.4095 235.51 101.726 244.028 99.2943C244.205 99.2458 244.394 99.2014 244.595 99.165C244.796 99.1287 244.997 99.0923 245.234 99.064C245.545 99.027 245.858 99.0068 246.171 99.0034C246.461 99.0034 246.73 99.0034 246.975 99.0277C247.135 96.0908 246.906 93.1455 246.296 90.2689C245.403 86.0997 243.482 81.2234 239.393 77.2561C234.167 72.1617 226.831 69.8831 219.547 70.2588C212.262 70.6345 205.006 73.6645 199.897 79.1872C194.88 84.6129 193.228 91.1577 192.874 96.5309C192.64 99.9813 192.897 103.448 193.638 106.825C193.793 106.783 193.95 106.749 194.108 106.724C194.289 106.691 194.471 106.668 194.655 106.655C194.933 106.635 195.213 106.635 195.491 106.655C195.721 106.668 195.951 106.693 196.178 106.732Z" fill="#040400" stroke="#040400" stroke-width="0.58203" stroke-miterlimit="10"/>
<path d="M244.543 56.8195C244.543 60.818 243.164 64.6929 240.64 67.7838C238.116 70.8747 234.603 72.9905 230.701 73.7705C226.799 74.5506 222.748 73.9468 219.239 72.0619C215.73 70.177 212.98 67.1277 211.457 63.4335C209.935 59.7393 209.734 55.6289 210.889 51.8025C212.044 47.9761 214.483 44.6706 217.791 42.4491C221.1 40.2277 225.072 39.2277 229.031 39.6196C232.991 40.0115 236.693 41.7711 239.506 44.5985C241.106 46.2015 242.374 48.1064 243.239 50.2038C244.103 52.3011 244.546 54.5494 244.543 56.8195Z" fill="#040400" stroke="#040400" stroke-width="0.58203" stroke-miterlimit="10"/>
<path d="M156.053 131.095C155.97 131.485 156.045 131.892 156.259 132.227C156.474 132.563 156.811 132.799 157.199 132.885C157.489 132.949 157.791 132.925 158.067 132.816C158.343 132.706 158.581 132.518 158.75 132.273C158.92 132.028 159.013 131.738 159.018 131.44C159.023 131.141 158.94 130.848 158.78 130.598C158.619 130.347 158.388 130.15 158.116 130.031C157.844 129.912 157.543 129.877 157.251 129.93C156.959 129.984 156.689 130.123 156.476 130.33C156.263 130.538 156.116 130.804 156.053 131.095Z" fill="#040400"/>
<path d="M174.305 136.304C174.222 136.693 174.296 137.1 174.511 137.435C174.725 137.77 175.064 138.005 175.451 138.09C175.643 138.132 175.841 138.136 176.034 138.102C176.228 138.067 176.412 137.994 176.577 137.888C176.743 137.781 176.885 137.643 176.997 137.48C177.108 137.318 177.187 137.135 177.228 136.942C177.272 136.749 177.277 136.548 177.243 136.353C177.209 136.157 177.137 135.97 177.031 135.803C176.925 135.635 176.787 135.491 176.625 135.377C176.463 135.264 176.28 135.184 176.087 135.141C175.894 135.099 175.695 135.096 175.501 135.132C175.306 135.167 175.121 135.241 174.955 135.35C174.79 135.458 174.647 135.598 174.535 135.761C174.424 135.925 174.346 136.11 174.305 136.304Z" fill="#040400"/>
<path d="M165.742 139.235L167.439 138.375L169.139 137.518C169.161 137.507 169.179 137.49 169.192 137.47C169.206 137.449 169.214 137.426 169.216 137.401C169.218 137.376 169.213 137.35 169.202 137.327C169.19 137.304 169.173 137.285 169.151 137.272L167.636 136.395L166.1 135.518L167.306 131.24L168.512 126.966" stroke="black" stroke-width="0.58203" stroke-miterlimit="10" stroke-linecap="round"/>
<path d="M157.396 143.832C157.605 144.71 158.053 145.511 158.69 146.147C159.362 146.82 160.192 147.314 161.102 147.581C162.092 147.878 163.142 147.905 164.145 147.662C165.107 147.431 165.982 146.925 166.662 146.204" stroke="black" stroke-width="0.58203" stroke-miterlimit="10" stroke-linecap="round"/>
<path d="M163.618 121.827L159.027 121.601L154.44 121.375" stroke="black" stroke-width="0.58203" stroke-miterlimit="10" stroke-linecap="round"/>
<path d="M175.602 126.489L179.791 128.537L183.976 130.586" stroke="black" stroke-width="0.58203" stroke-miterlimit="10" stroke-linecap="round"/>
<path d="M147.823 137.278C147.629 138.175 147.75 139.112 148.167 139.929C148.583 140.746 149.268 141.393 150.106 141.759C150.944 142.126 151.882 142.188 152.76 141.937C153.639 141.686 154.404 141.137 154.924 140.383C155.445 139.628 155.689 138.716 155.615 137.801C155.542 136.886 155.154 136.025 154.52 135.365C153.885 134.705 153.042 134.286 152.135 134.18C151.228 134.075 150.312 134.289 149.544 134.786C148.664 135.355 148.045 136.251 147.823 137.278Z" fill="#FF6406" stroke="#070707" stroke-width="0.58203" stroke-miterlimit="10" stroke-linecap="round"/>
<path d="M171.209 144.116C171.016 145.011 171.138 145.945 171.553 146.76C171.969 147.575 172.653 148.22 173.489 148.585C174.325 148.95 175.261 149.013 176.137 148.762C177.014 148.511 177.777 147.963 178.296 147.21C178.815 146.458 179.059 145.548 178.986 144.635C178.912 143.722 178.526 142.863 177.893 142.204C177.261 141.545 176.42 141.127 175.515 141.021C174.61 140.915 173.696 141.128 172.929 141.623C172.493 141.904 172.117 142.269 171.822 142.697C171.526 143.125 171.318 143.607 171.209 144.116Z" fill="#FF6406" stroke="#070707" stroke-width="0.58203" stroke-miterlimit="10" stroke-linecap="round"/>
<path d="M180.785 132.888L178.43 132.221L176.078 131.555C175.412 131.367 174.715 131.312 174.028 131.393C173.339 131.475 172.674 131.693 172.07 132.035C171.642 132.275 171.249 132.574 170.904 132.924C170.568 133.273 170.279 133.666 170.048 134.092L167.636 133.344L165.224 132.601C165.353 131.358 165.041 130.11 164.344 129.075C163.647 128.041 162.609 127.286 161.413 126.945L158.39 126.085L155.375 125.228C154.039 124.881 152.62 125.073 151.424 125.764C150.227 126.455 149.347 127.59 148.973 128.925C148.599 130.26 148.759 131.689 149.421 132.907C150.083 134.124 151.193 135.032 152.513 135.437L155.528 136.294L158.539 137.146C158.754 137.207 158.973 137.254 159.194 137.287C159.874 137.389 160.568 137.356 161.236 137.191C161.695 137.076 162.137 136.901 162.551 136.669C163.021 136.404 163.449 136.068 163.817 135.671C164.182 135.28 164.486 134.834 164.717 134.35L167.081 135.082L169.441 135.809C169.342 136.395 169.342 136.993 169.441 137.578C169.545 138.167 169.746 138.733 170.036 139.255C170.375 139.862 170.83 140.396 171.375 140.827C171.917 141.259 172.54 141.578 173.208 141.764L175.563 142.43L177.919 143.097C178.133 143.16 178.35 143.207 178.57 143.238C178.785 143.271 179.001 143.29 179.218 143.295C180.502 143.326 181.754 142.885 182.738 142.054C183.722 141.224 184.371 140.061 184.563 138.784C184.755 137.507 184.477 136.204 183.78 135.118C183.084 134.033 182.018 133.24 180.781 132.888H180.785ZM161.662 135.082C161.263 135.298 160.826 135.435 160.376 135.486C159.923 135.538 159.464 135.501 159.025 135.377L156.014 134.536L152.999 133.684C152.114 133.433 151.365 132.839 150.915 132.033C150.466 131.227 150.354 130.275 150.603 129.385C150.853 128.496 151.443 127.743 152.246 127.291C153.048 126.839 153.996 126.727 154.88 126.977L157.895 127.83L160.906 128.682C161.346 128.805 161.757 129.014 162.116 129.296C162.475 129.579 162.775 129.93 162.999 130.329C163.223 130.728 163.367 131.168 163.422 131.623C163.476 132.078 163.441 132.539 163.318 132.981C163.196 133.422 162.987 133.834 162.703 134.193C162.419 134.556 162.065 134.858 161.662 135.082ZM182.691 138.94C182.443 139.831 181.854 140.587 181.052 141.042C180.249 141.496 179.301 141.612 178.414 141.364L176.078 140.681L173.722 140.014C173.284 139.892 172.874 139.683 172.516 139.4C172.159 139.117 171.861 138.766 171.64 138.366C171.415 137.968 171.271 137.528 171.218 137.073C171.166 136.618 171.202 136.157 171.326 135.716C171.448 135.275 171.655 134.863 171.937 134.504C172.222 134.145 172.572 133.844 172.97 133.619C173.772 133.168 174.719 133.055 175.604 133.304L177.959 133.971L180.315 134.637C180.755 134.76 181.166 134.969 181.525 135.252C181.884 135.535 182.184 135.887 182.408 136.286C182.632 136.686 182.776 137.126 182.83 137.581C182.885 138.036 182.85 138.498 182.727 138.94H182.691Z" fill="#84A1E5" stroke="#070707" stroke-width="0.58203" stroke-miterlimit="10" stroke-linecap="round"/>
<path d="M118.7 280.427C118.313 279.957 117.871 279.533 117.385 279.167C116.668 278.608 115.848 278.197 114.973 277.955C113.353 277.555 111.644 277.746 110.149 278.492C109.199 278.945 108.323 279.542 107.552 280.262L107.347 280.456L107.138 280.649L97.1687 289.671L87.187 298.7L86.8333 299.003L86.4755 299.302C85.723 299.942 85.1056 300.726 84.6596 301.61C84.2136 302.493 83.948 303.457 83.8786 304.445C83.7893 305.407 83.9014 306.377 84.2079 307.292C84.5143 308.208 85.0082 309.049 85.6577 309.761C86.3072 310.473 87.0979 311.041 87.9789 311.427C88.8599 311.813 89.8117 312.01 90.7729 312.004C91.7594 312.025 92.74 311.846 93.6569 311.48C94.5738 311.114 95.4084 310.567 96.1114 309.871L96.4411 309.535L96.7747 309.208L106.636 300.098L116.493 290.984C117.331 290.191 118.061 289.29 118.664 288.305C119.588 286.782 120.344 284.762 119.793 282.649C119.7 282.3 119.576 281.959 119.423 281.631C119.226 281.205 118.983 280.801 118.7 280.427Z" fill="#ECE7E1" stroke="black" stroke-width="0.58203" stroke-miterlimit="10" stroke-linecap="round"/>
<path d="M160.844 200.138C160.784 199.597 160.735 199.039 160.703 198.457C160.671 197.876 160.655 197.274 160.659 196.651C160.666 194.877 160.827 193.106 161.141 191.359C161.401 189.901 161.762 188.463 162.223 187.056C161.61 186.856 160.973 186.736 160.329 186.701C159.497 186.649 158.666 186.815 157.917 187.182C156.261 188.022 155.188 189.937 154.862 192.03C154.536 194.122 154.959 196.401 156.289 197.956C156.968 198.728 157.831 199.314 158.798 199.657C159.457 199.902 160.145 200.064 160.844 200.138Z" fill="#D87D61" stroke="black" stroke-width="0.58203" stroke-miterlimit="10" stroke-linecap="round"/>
<path d="M138.031 291.416L132.829 286.475L127.627 281.531C126.134 280.396 124.376 279.664 122.521 279.405C119.539 279.03 115.687 280.028 112.266 285.534L105.4 297.396L98.5301 309.257C97.6514 310.888 97.416 312.792 97.8708 314.59C98.0827 315.492 98.4732 316.342 99.0191 317.09C99.565 317.837 100.255 318.466 101.048 318.94C101.841 319.413 102.721 319.722 103.635 319.846C104.549 319.97 105.479 319.909 106.369 319.664C107.325 319.423 108.222 318.991 109.008 318.394C109.794 317.797 110.452 317.048 110.944 316.19L115.402 309.322L119.86 302.454L128.945 296.919L138.031 291.416Z" fill="#ECE7E1" stroke="black" stroke-width="0.58203" stroke-miterlimit="10" stroke-linecap="round"/>
<path d="M83.0904 244.775C83.0905 245.727 82.7622 246.65 82.1615 247.386C81.5607 248.122 80.7246 248.627 79.7956 248.813C78.8665 248.999 77.902 248.856 77.0661 248.408C76.2302 247.96 75.5747 247.235 75.2112 246.355C74.8477 245.476 74.7987 244.497 75.0724 243.586C75.3462 242.675 75.9258 241.887 76.7127 241.356C77.4995 240.826 78.4449 240.586 79.3879 240.678C80.3309 240.77 81.2131 241.187 81.8844 241.858C82.2677 242.24 82.5717 242.695 82.7787 243.195C82.9857 243.696 83.0917 244.233 83.0904 244.775Z" fill="#040400" stroke="#040400" stroke-width="0.58203" stroke-miterlimit="10"/>
<path d="M119.299 303.361L121.417 299.915L123.54 296.469" stroke="black" stroke-width="0.58203" stroke-miterlimit="10" stroke-linecap="round"/>
<path d="M296.75 241.303C296.75 240.899 295.717 240.532 294.005 240.245C291.741 239.908 289.458 239.721 287.171 239.683C287.138 237.393 286.9 235.111 286.459 232.864C286.085 231.147 285.595 230.108 285.056 230.108C284.518 230.108 284.023 231.147 283.649 232.864C283.21 235.111 282.972 237.393 282.938 239.683C280.65 239.721 278.367 239.909 276.104 240.245C274.391 240.532 273.358 240.899 273.358 241.303C273.358 241.707 274.391 242.075 276.104 242.362C278.367 242.698 280.65 242.886 282.938 242.923C282.972 245.213 283.21 247.496 283.649 249.743C284.023 251.46 284.518 252.498 285.056 252.498C285.595 252.498 286.085 251.46 286.459 249.743C286.9 247.496 287.138 245.213 287.171 242.923C289.458 242.886 291.741 242.698 294.005 242.362C295.717 242.075 296.75 241.707 296.75 241.303Z" fill="url(#paint0_linear_19_1190)" stroke="black" stroke-width="0.58203" stroke-miterlimit="10" stroke-linecap="round"/>
<path d="M77.1797 128.3C77.1797 127.808 75.9175 127.355 73.8271 127.008C71.0659 126.596 68.2807 126.367 65.4896 126.325C65.4466 123.53 65.1561 120.745 64.6213 118.003C64.163 115.906 63.564 114.637 62.9087 114.637C62.2535 114.637 61.6505 115.906 61.1922 118.003C60.6574 120.745 60.3668 123.53 60.3239 126.325C57.5328 126.367 54.7475 126.596 51.9864 127.008C49.896 127.355 48.6337 127.816 48.6337 128.3C48.6337 128.785 49.896 129.242 51.9864 129.593C54.7386 130.001 57.5142 130.227 60.2957 130.272C60.3385 133.067 60.6291 135.852 61.1641 138.594C61.6223 140.691 62.2213 141.96 62.8806 141.96C63.5399 141.96 64.1348 140.691 64.5931 138.594C65.1281 135.852 65.4187 133.067 65.4615 130.272C68.2524 130.228 71.0374 130.002 73.7989 129.593C75.8974 129.242 77.1797 128.789 77.1797 128.3Z" fill="url(#paint1_linear_19_1190)" stroke="black" stroke-width="0.58203" stroke-miterlimit="10" stroke-linecap="round"/>
<path d="M306.19 97.149C302.327 97.957 299.951 98.7974 298.339 100.413C296.727 102.029 295.891 104.421 295.091 108.303C295.075 108.39 295.03 108.468 294.962 108.525C294.895 108.581 294.81 108.612 294.723 108.612C294.635 108.612 294.551 108.581 294.483 108.525C294.416 108.468 294.371 108.39 294.355 108.303C293.551 104.421 292.715 102.029 291.107 100.413C289.499 98.7974 287.123 97.949 283.256 97.149C283.17 97.1333 283.092 97.0877 283.036 97.0201C282.98 96.9526 282.949 96.8674 282.949 96.7794C282.949 96.6914 282.98 96.6062 283.036 96.5386C283.092 96.4711 283.17 96.4255 283.256 96.4097C287.123 95.6017 289.499 94.7614 291.107 93.1454C292.715 91.5294 293.559 89.1377 294.355 85.2553C294.371 85.1687 294.416 85.0904 294.483 85.034C294.551 84.9777 294.635 84.9468 294.723 84.9468C294.81 84.9468 294.895 84.9777 294.962 85.034C295.03 85.0904 295.075 85.1687 295.091 85.2553C295.895 89.1377 296.731 91.5254 298.339 93.1454C299.947 94.7654 302.327 95.6098 306.19 96.4097C306.276 96.4255 306.354 96.4711 306.41 96.5386C306.466 96.6062 306.497 96.6914 306.497 96.7794C306.497 96.8674 306.466 96.9526 306.41 97.0201C306.354 97.0877 306.276 97.1333 306.19 97.149Z" fill="url(#paint2_linear_19_1190)" stroke="black" stroke-width="0.58203" stroke-miterlimit="10" stroke-linecap="round"/>
<path d="M53.6111 150.862C51.384 151.342 49.9931 151.864 49.0363 152.825C48.0796 153.787 47.561 155.184 47.0826 157.423C47.069 157.489 47.0329 157.549 46.9806 157.592C46.9282 157.635 46.8627 157.658 46.7952 157.658C46.7276 157.658 46.6621 157.635 46.6098 157.592C46.5574 157.549 46.5214 157.489 46.5077 157.423C46.0294 155.184 45.5108 153.787 44.554 152.825C43.5973 151.864 42.2063 151.342 39.9793 150.862C39.9131 150.848 39.8537 150.812 39.811 150.759C39.7683 150.707 39.745 150.641 39.745 150.573C39.745 150.505 39.7683 150.439 39.811 150.386C39.8537 150.334 39.9131 150.298 39.9793 150.284C42.2063 149.803 43.5973 149.282 44.554 148.321C45.5108 147.359 46.0294 145.961 46.5077 143.723C46.5214 143.656 46.5574 143.597 46.6098 143.554C46.6621 143.511 46.7276 143.488 46.7952 143.488C46.8627 143.488 46.9282 143.511 46.9806 143.554C47.0329 143.597 47.069 143.656 47.0826 143.723C47.561 145.961 48.0796 147.359 49.0363 148.321C49.9931 149.282 51.384 149.803 53.6111 150.284C53.6773 150.298 53.7367 150.334 53.7794 150.386C53.8221 150.439 53.8454 150.505 53.8454 150.573C53.8454 150.641 53.8221 150.707 53.7794 150.759C53.7367 150.812 53.6773 150.848 53.6111 150.862Z" fill="url(#paint3_linear_19_1190)" stroke="black" stroke-width="0.58203" stroke-miterlimit="10" stroke-linecap="round"/>
<path d="M296.749 264.832C295.725 264.834 294.733 264.478 293.941 263.826C293.149 263.175 292.606 262.267 292.406 261.258C292.205 260.249 292.359 259.202 292.841 258.295C293.324 257.387 294.104 256.676 295.05 256.282C295.996 255.889 297.048 255.837 298.027 256.136C299.007 256.435 299.853 257.066 300.421 257.922C300.989 258.778 301.244 259.805 301.142 260.829C301.041 261.852 300.589 262.809 299.864 263.535C299.037 264.364 297.917 264.83 296.749 264.832ZM296.749 258.396C296.283 258.395 295.832 258.557 295.471 258.853C295.111 259.149 294.864 259.562 294.773 260.021C294.682 260.48 294.752 260.956 294.972 261.369C295.191 261.781 295.546 262.105 295.977 262.283C296.407 262.462 296.886 262.485 297.331 262.348C297.776 262.212 298.161 261.924 298.418 261.534C298.676 261.145 298.791 260.677 298.744 260.212C298.697 259.746 298.49 259.312 298.16 258.982C297.975 258.796 297.755 258.648 297.512 258.548C297.27 258.447 297.011 258.396 296.749 258.396Z" fill="url(#paint4_linear_19_1190)" stroke="black" stroke-width="0.58203" stroke-miterlimit="10" stroke-linecap="round"/>
<path d="M118.044 252.569C118.353 252.698 118.679 252.827 119.029 252.949C119.378 253.07 119.74 253.191 120.122 253.304C120.669 253.462 121.195 253.591 121.694 253.708C122.192 253.825 122.671 253.89 123.113 253.947" fill="#ECE7E1"/>
<path d="M118.044 252.569C118.353 252.698 118.679 252.827 119.029 252.949C119.378 253.07 119.74 253.191 120.122 253.304C120.669 253.462 121.195 253.591 121.694 253.708C122.192 253.825 122.671 253.89 123.113 253.947" stroke="black" stroke-width="0.58203" stroke-miterlimit="10" stroke-linecap="round"/>
<path d="M251.251 231.117C253.876 223.373 256.035 217.014 257.534 212.594L259.878 205.682L262.692 209.261C265.104 212.327 269.526 217.951 277.566 228.18L280.335 204.304L283.101 180.427C282.863 183.082 282.258 185.69 281.304 188.176C279.593 192.802 276.621 196.851 272.73 199.86C270.86 201.303 268.811 202.496 266.635 203.407C262.925 204.986 258.869 205.562 254.869 205.08C248.698 204.312 244.131 201.161 241.044 198.07C239.068 196.109 237.39 193.868 236.063 191.416C238.266 197.226 240.474 203.033 242.688 208.837C244.902 214.641 247.128 220.442 249.365 226.241C249.607 226.863 249.956 227.768 250.302 228.665C250.648 229.562 250.997 230.491 251.251 231.117Z" fill="#DBCAF4" stroke="black" stroke-width="0.58203" stroke-miterlimit="10" stroke-linecap="round"/>
<path d="M301.665 285.995L296.35 310.159L291.036 334.322" fill="#DBCAF4"/>
<path d="M301.665 285.995L296.35 310.159L291.036 334.322" stroke="black" stroke-width="0.58203" stroke-miterlimit="10" stroke-linecap="round"/>
<path d="M165.664 112.483C165.768 112.382 165.873 112.273 165.981 112.156C166.09 112.039 166.19 111.921 166.298 111.792C166.548 111.488 166.779 111.168 166.989 110.836C167.169 110.55 167.332 110.255 167.479 109.951" stroke="#070707" stroke-width="0.58203" stroke-miterlimit="10" stroke-linecap="round"/>
<path d="M64.0359 232.244C63.6902 231.295 63.4289 230.265 63.1716 229.287C62.9563 228.385 62.67 227.501 62.3154 226.645C61.6923 225.263 60.9526 223.574 59.9395 222.253C58.9265 220.932 57.6401 219.975 55.9195 220.064C55.9195 220.064 55.1919 220.1 54.6452 221.187C54.0985 222.273 53.7367 224.419 54.4563 228.58C54.9389 231.352 55.7249 234.062 56.7999 236.66C57.8776 239.254 59.2251 241.727 60.8199 244.037L64.9806 250.097L69.1413 256.157C69.5767 256.782 69.9294 257.461 70.1905 258.177C70.4546 258.891 70.6144 259.639 70.6649 260.399C70.791 261.447 70.5523 262.506 69.9895 263.397C69.3705 264.249 68.273 264.847 66.4037 264.859C67.323 265.909 68.1239 267.058 68.7916 268.285C69.7845 270.172 70.3996 272.41 68.7916 273.816C68.1281 274.455 67.2537 274.826 66.3354 274.858C64.7917 274.907 62.6249 274.018 60.1164 270.261C60.1164 270.261 59.2642 272.378 57.5476 273.258C55.8311 274.139 53.2543 273.779 49.8011 268.814C49.4676 269.4 48.9698 269.873 48.3699 270.176C47.77 270.478 47.0946 270.596 46.4283 270.515C44.1168 270.212 40.5551 267.594 35.5502 258.339C34.8561 257.046 34.1432 255.762 33.4116 254.488C32.6839 253.216 31.9443 251.943 31.2046 250.679C28.8167 246.602 25.1746 239.367 23.9887 231.287C22.8028 223.207 24.0249 214.274 31.3654 206.849C32.9672 205.224 34.8119 203.861 36.8326 202.809C38.8477 201.754 41.0316 201.063 43.2847 200.769C46.8888 200.288 50.5537 200.891 53.8171 202.502C57.6321 204.368 61.6078 207.847 65.2982 213.89C66.695 216.207 67.9308 218.618 68.9966 221.106C70.7172 225.146 72.1845 230.042 71.1674 233.488C70.9307 234.302 70.4115 235.003 69.7041 235.464C69.358 235.693 68.9702 235.85 68.563 235.927C68.1558 236.004 67.7375 235.999 67.3323 235.912L67.1997 235.88L67.067 235.84C66.3175 235.606 65.6596 235.143 65.1856 234.515C64.6819 233.826 64.2935 233.059 64.0359 232.244Z" fill="#F2B3C1" stroke="black" stroke-width="0.58203" stroke-miterlimit="10" stroke-linecap="round"/>
<path d="M50.5778 240.414C51.9607 243.016 53.4762 245.703 55.1324 248.45C56.7887 251.197 58.6017 254.005 60.5635 256.857C61.5417 258.268 62.5172 259.637 63.49 260.962C64.4629 262.287 65.4397 263.572 66.4085 264.816" stroke="black" stroke-width="0.58203" stroke-miterlimit="10" stroke-linecap="round"/>
<path d="M44.0592 244.585C44.0592 244.585 46.8732 249.554 50.3023 255.242C53.7314 260.931 57.7353 267.334 60.1191 270.19" stroke="black" stroke-width="0.58203" stroke-miterlimit="10" stroke-linecap="round"/>
<path d="M37.9354 248.511L43.8689 258.643L49.8024 268.775" stroke="black" stroke-width="0.58203" stroke-miterlimit="10" stroke-linecap="round"/>
<path d="M92.9785 148.924C94.5142 151.873 96.0217 155.012 97.4608 158.341C98.9 161.67 100.275 165.209 101.541 168.901C105.737 181.226 108.267 194.062 109.063 207.063C109.682 217.164 109.336 227.301 108.029 237.335" stroke="black" stroke-width="0.58203" stroke-miterlimit="10" stroke-linecap="round"/>
<path d="M129.744 137.916C129.463 138.504 129.249 139.122 129.105 139.758C128.885 140.72 128.839 141.713 128.968 142.691C129.194 144.311 129.885 145.829 130.958 147.058C131.53 147.732 132.195 148.321 132.932 148.808C132.717 149.538 132.608 150.296 132.61 151.058C132.592 152.431 132.97 153.78 133.698 154.941C134.426 156.103 135.474 157.027 136.715 157.603C137.9 158.16 139.209 158.398 140.514 158.294C140.516 159.092 140.644 159.886 140.891 160.645C141.362 162.208 142.371 163.551 143.738 164.434C144.78 165.097 145.979 165.471 147.212 165.517C148.445 165.563 149.668 165.28 150.757 164.697C150.954 165.426 151.213 166.136 151.528 166.822C151.952 167.738 152.478 168.603 153.096 169.399C153.454 169.861 153.844 170.297 154.262 170.704C154.612 171.048 154.981 171.372 155.368 171.674" fill="#F6C34C"/>
<path d="M129.744 137.916C129.463 138.504 129.249 139.122 129.105 139.758C128.885 140.72 128.839 141.713 128.968 142.691C129.194 144.311 129.885 145.829 130.958 147.058C131.53 147.732 132.195 148.321 132.932 148.808C132.717 149.538 132.608 150.296 132.61 151.058C132.592 152.431 132.97 153.78 133.698 154.941C134.426 156.103 135.474 157.027 136.715 157.603C137.9 158.16 139.209 158.398 140.514 158.294C140.516 159.092 140.644 159.886 140.891 160.645C141.362 162.208 142.371 163.551 143.738 164.434C144.78 165.097 145.979 165.471 147.212 165.517C148.445 165.563 149.668 165.28 150.757 164.697C150.954 165.426 151.213 166.136 151.528 166.822C151.952 167.738 152.478 168.603 153.096 169.399C153.454 169.861 153.844 170.297 154.262 170.704C154.612 171.048 154.981 171.372 155.368 171.674" stroke="#070707" stroke-width="0.58203" stroke-miterlimit="10" stroke-linecap="round"/>
<path d="M87.3534 279.194L95.5662 269.134L103.775 259.074" fill="#F6C34C"/>
<path d="M87.3534 279.194L95.5662 269.134L103.775 259.074" stroke="#070707" stroke-width="0.58203" stroke-miterlimit="10" stroke-linecap="round"/>
<path d="M156.831 149.739C157.114 150.305 157.528 150.795 158.037 151.169C158.877 151.787 160.2 152.215 162.125 151.447" stroke="black" stroke-width="0.58203" stroke-miterlimit="10" stroke-linecap="round"/>
<path d="M251.41 200.407C251.887 199.506 252.555 198.721 253.367 198.108C254.202 197.475 255.177 197.053 256.209 196.88C257.24 196.707 258.299 196.787 259.293 197.114C260.314 197.442 261.254 197.984 262.051 198.706" stroke="black" stroke-width="0.58203" stroke-miterlimit="10" stroke-linecap="round"/>
<path d="M105.628 311.541C105.161 312.066 104.757 312.643 104.422 313.262C103.902 314.211 103.558 315.247 103.409 316.32C103.325 316.941 103.307 317.57 103.357 318.195C103.395 318.673 103.47 319.147 103.582 319.613" stroke="black" stroke-width="0.58203" stroke-miterlimit="10" stroke-linecap="round"/>
<path d="M101.056 309.889C100.545 310.482 100.124 311.148 99.8057 311.864C99.0431 313.501 98.7815 315.329 99.054 317.116" stroke="black" stroke-width="0.58203" stroke-miterlimit="10" stroke-linecap="round"/>
<path d="M87.0231 310.922C87.0876 310.531 87.1817 310.146 87.3045 309.77C87.45 309.312 87.6357 308.867 87.8593 308.441C88.3823 307.439 89.1 306.553 89.9698 305.835C90.539 305.361 91.1609 304.954 91.823 304.623" stroke="black" stroke-width="0.58203" stroke-miterlimit="10" stroke-linecap="round"/>
<path d="M84.3089 307.539C84.4312 307.028 84.5966 306.528 84.8034 306.044C85.0888 305.373 85.4503 304.737 85.8808 304.15C86.3674 303.487 86.9392 302.892 87.5812 302.38C88.0278 302.023 88.5054 301.706 89.0083 301.435" stroke="black" stroke-width="0.58203" stroke-miterlimit="10" stroke-linecap="round"/>
<defs>
<linearGradient id="paint0_linear_19_1190" x1="285.056" y1="230.108" x2="285.056" y2="252.498" gradientUnits="userSpaceOnUse">
<stop offset="0.26" stop-color="#FEC2D9"/>
<stop offset="0.75" stop-color="#A4C2FF"/>
</linearGradient>
<linearGradient id="paint1_linear_19_1190" x1="62.8887" y1="114.637" x2="62.8887" y2="141.96" gradientUnits="userSpaceOnUse">
<stop offset="0.31" stop-color="#FEC2D9"/>
<stop offset="0.75" stop-color="#A4C2FF"/>
</linearGradient>
<linearGradient id="paint2_linear_19_1190" x1="294.725" y1="84.9523" x2="294.725" y2="108.606" gradientUnits="userSpaceOnUse">
<stop offset="0.31" stop-color="#FEC2D9"/>
<stop offset="0.88" stop-color="#A4C2FF"/>
</linearGradient>
<linearGradient id="paint3_linear_19_1190" x1="46.7932" y1="143.489" x2="46.7932" y2="157.657" gradientUnits="userSpaceOnUse">
<stop offset="0.31" stop-color="#FEC2D9"/>
<stop offset="0.75" stop-color="#A4C2FF"/>
</linearGradient>
<linearGradient id="paint4_linear_19_1190" x1="296.749" y1="255.972" x2="296.749" y2="264.832" gradientUnits="userSpaceOnUse">
<stop offset="0.22" stop-color="#FEC2D9"/>
<stop offset="0.75" stop-color="#A4C2FF"/>
</linearGradient>
</defs>
</svg>
