<svg width="243" height="197" viewBox="0 0 243 197" fill="none" xmlns="http://www.w3.org/2000/svg">
<path d="M106.597 196.069C114.779 195.807 122.167 195.65 128.577 195.555C134.987 195.46 140.423 195.434 144.691 195.428C169.101 195.398 187.41 195.372 199.824 195.369C212.237 195.365 218.755 195.369 219.585 195.428C225.359 195.755 228.964 195.866 231.756 195.722C234.233 195.602 236.686 195.183 239.062 194.475C249.816 191.492 255.606 183.111 258.781 173.174C261.957 163.237 262.521 151.745 262.82 142.548C262.892 140.289 263.003 136.831 263 132.791C262.997 128.751 262.869 124.131 262.472 119.548C261.721 110.917 260.786 100.181 257.905 89.6126C255.025 79.0439 250.196 68.6585 241.663 60.7058C235.663 55.1234 229.132 51.9607 220.93 49.862C212.729 47.7633 202.848 46.7254 190.159 45.3929C178.983 44.1891 167.702 44.3177 156.557 45.7759C150.354 46.5831 144.228 47.8972 138.241 49.7048C135.463 50.5528 132.874 51.3419 130.286 52.3077C127.543 53.3202 124.883 54.544 122.331 55.9682C112.197 61.6323 105.088 69.6604 100.115 77.5771C95.1417 85.4938 92.3106 93.2632 90.7262 98.4363L87.9377 110.017L85.1525 121.6L73.441 107.237L61.7492 92.8867L44.0343 108.638L26.3195 124.387L27.6317 126.063C28.0483 126.587 28.4321 127.078 28.7864 127.526L29.3408 128.237C29.6689 128.653 30.0954 129.2 30.4923 129.71C31.8045 131.393 38.6936 141.559 46.767 152.658C54.8404 163.757 64.0325 175.79 69.9669 181.212C70.3934 181.601 70.9675 182.109 71.6925 182.665C72.5277 183.307 73.4044 183.893 74.3169 184.42C75.4472 185.058 76.6264 185.606 77.8435 186.057C80.4491 187.091 83.2217 187.641 86.0252 187.681C91.068 187.626 95.9433 185.867 99.8559 182.691C103.983 179.345 106.919 174.761 108.231 169.618C107.96 174.025 107.689 178.433 107.417 182.842L106.597 196.069Z" fill="#84A1E5" stroke="black" stroke-width="0.964984" stroke-miterlimit="10" stroke-linecap="round"/>
<path d="M155.725 81.1375L150.208 138.283L144.696 195.426H164.347H183.994L169.858 138.283L155.725 81.1375Z" fill="#FFF8F8" stroke="black" stroke-width="0.964984" stroke-miterlimit="10" stroke-linecap="round"/>
<path d="M148.788 68.2789L152.252 74.7092L155.723 81.1395L158.049 73.8907L160.374 66.6418L154.581 67.4604L148.788 68.2789Z" fill="#FFF8F8" stroke="black" stroke-width="0.964984" stroke-miterlimit="10" stroke-linecap="round"/>
<path d="M85.1423 121.583L89.9844 127.83L94.8265 134.077C94.8585 134.118 94.9044 134.147 94.9559 134.158C95.0073 134.169 95.061 134.161 95.107 134.135C95.153 134.11 95.1884 134.069 95.2068 134.02C95.2251 133.97 95.2252 133.916 95.207 133.867C93.8948 130.316 92.5913 126.763 91.2966 123.21C90.0019 119.657 88.6984 116.105 87.3862 112.556L86.2643 117.068L85.1423 121.583Z" fill="black" stroke="black" stroke-width="0.964984" stroke-miterlimit="10" stroke-linecap="round"/>
<path d="M111.455 120.048C110.923 128.617 110.393 137.185 109.864 145.75C109.334 154.315 108.804 162.882 108.273 171.451" stroke="black" stroke-width="0.964984" stroke-miterlimit="10" stroke-linecap="round"/>
<path d="M138.233 49.6985L133.736 51.126L132.197 51.6171C132.197 51.6171 131.754 57.9426 131.111 67.1493C130.468 76.356 129.619 88.4472 128.815 99.9818L142.265 90.559L155.715 81.1362L146.973 65.4206L138.233 49.6985Z" fill="#6391FF" stroke="black" stroke-width="0.964984" stroke-miterlimit="10" stroke-linecap="round"/>
<path d="M168.491 44.7167L162.107 62.9369C159.982 69.0071 157.854 75.0772 155.724 81.1474L172.244 89.7844L188.765 98.4247C187.892 95.2128 184.231 81.7269 180.784 69.0529L174.111 44.4973L171.342 44.6086L168.491 44.7167Z" fill="#104FC1" stroke="black" stroke-width="0.964984" stroke-miterlimit="10" stroke-linecap="round"/>
<path d="M174.064 25.8743L164.803 28.2316L155.542 30.589C156.327 33.036 157.43 35.3696 158.823 37.53C161.821 42.2057 166.264 45.7791 171.479 47.7091C172.95 48.2534 174.466 48.6675 176.01 48.9467C176.618 46.9189 177.018 44.8346 177.204 42.726C177.552 38.7063 177.142 34.6571 175.993 30.7887C175.488 29.1 174.843 27.4562 174.064 25.8743Z" fill="black" stroke="black" stroke-width="0.964984" stroke-miterlimit="10" stroke-linecap="round"/>
<path d="M168.074 46.1519C167.461 45.8245 166.978 45.4971 166.604 45.2548C166.23 45.0125 165.948 44.7964 165.778 44.6491L165.407 44.3413L165.125 44.0925L165.377 44.1089H165.673H165.925C166.08 44.1089 166.283 44.0925 166.486 44.0663C167.604 43.95 168.676 43.5648 169.611 42.9438C170.546 42.3228 171.317 41.4846 171.856 40.5011C172.395 39.5176 172.687 38.4182 172.707 37.2972C172.726 36.1763 172.473 35.0674 171.969 34.0656C171.465 33.0638 170.724 32.1991 169.811 31.5458C168.898 30.8925 167.84 30.47 166.728 30.3146C165.615 30.1593 164.482 30.2757 163.424 30.6539C162.367 31.0321 161.417 31.6607 160.657 32.4859C159.524 33.7039 158.845 35.2738 158.734 36.9321C158.406 36.513 158.078 36.035 157.75 35.4981C157.384 34.9161 157.049 34.315 156.746 33.6973C156.471 33.1309 156.238 32.5809 156.041 32.0603C155.844 31.5397 155.687 31.0486 155.556 30.5968L139.75 34.6173L123.948 38.6379C123.948 39.2632 123.964 39.8919 124 40.5238C124.036 41.1557 124.089 41.7908 124.164 42.4293C125.116 50.441 128.941 57.3427 134.357 62.0247C139.773 66.7066 146.774 69.1752 154.086 68.3109C159.223 67.6958 164.04 65.4959 167.864 62.0181C171.733 58.4892 174.561 53.9718 176.042 48.9545C175.075 48.7745 174.116 48.545 173.172 48.267C172.326 48.0149 171.597 47.7562 170.994 47.5172C170.666 47.3862 170.229 47.2094 169.741 46.9868C169.252 46.7642 168.668 46.476 168.074 46.1519Z" fill="#FFC0C0" stroke="black" stroke-width="0.964984" stroke-miterlimit="10" stroke-linecap="round"/>
<path d="M161.934 45.7683C162.034 46.6205 161.836 47.4813 161.373 48.204C160.909 48.9267 160.209 49.4666 159.391 49.7317C158.573 49.9969 157.688 49.9708 156.888 49.6581C156.087 49.3453 155.42 48.7651 155 48.0164C154.579 47.2677 154.432 46.3968 154.583 45.552C154.734 44.7072 155.174 43.9408 155.828 43.3834C156.482 42.8259 157.309 42.5119 158.169 42.4949C159.028 42.4778 159.867 42.7588 160.543 43.2898C160.927 43.5907 161.248 43.9647 161.487 44.3901C161.725 44.8155 161.877 45.284 161.934 45.7683Z" fill="#EF3F3F" stroke="black" stroke-width="0.964984" stroke-miterlimit="10" stroke-linecap="round"/>
<path d="M142.963 60.0747C143.064 60.9269 142.866 61.7877 142.402 62.5104C141.938 63.2331 141.238 63.773 140.42 64.0381C139.602 64.3032 138.718 64.2772 137.917 63.9644C137.117 63.6517 136.449 63.0715 136.029 62.3228C135.609 61.5741 135.462 60.7032 135.613 59.8584C135.764 59.0136 136.204 58.2472 136.858 57.6897C137.511 57.1323 138.338 56.8183 139.198 56.8013C140.058 56.7842 140.897 57.0652 141.572 57.5962C141.956 57.8976 142.276 58.2717 142.515 58.6971C142.754 59.1224 142.906 59.5905 142.963 60.0747Z" fill="#EF3F3F" stroke="black" stroke-width="0.964984" stroke-miterlimit="10" stroke-linecap="round"/>
<path d="M136.785 51.5639C136.816 51.7625 136.807 51.9653 136.757 52.1602C136.708 52.3552 136.62 52.5382 136.498 52.6983C136.376 52.8585 136.224 52.9926 136.049 53.0925C135.874 53.1924 135.681 53.2561 135.481 53.2799C135.281 53.3037 135.078 53.287 134.885 53.2308C134.691 53.1746 134.511 53.0802 134.355 52.953C134.199 52.8258 134.07 52.6686 133.977 52.4907C133.883 52.3128 133.826 52.1178 133.809 51.9175C133.778 51.7188 133.788 51.516 133.837 51.3211C133.886 51.1262 133.975 50.9432 134.096 50.783C134.218 50.6228 134.371 50.4888 134.546 50.3889C134.72 50.2889 134.914 50.2252 135.114 50.2014C135.314 50.1776 135.516 50.1943 135.71 50.2505C135.903 50.3067 136.083 50.4012 136.239 50.5283C136.395 50.6555 136.524 50.8127 136.618 50.9907C136.711 51.1686 136.768 51.3635 136.785 51.5639Z" fill="black"/>
<path d="M150.374 43.7472C150.409 44.041 150.356 44.3385 150.222 44.6022C150.087 44.8659 149.877 45.0838 149.619 45.2285C149.36 45.3731 149.064 45.438 148.769 45.415C148.473 45.3919 148.191 45.2819 147.958 45.0988C147.725 44.9158 147.552 44.6679 147.46 44.3866C147.368 44.1053 147.362 43.8031 147.442 43.5183C147.523 43.2334 147.686 42.9787 147.911 42.7864C148.136 42.594 148.413 42.4726 148.708 42.4376C148.903 42.4142 149.102 42.4296 149.291 42.4829C149.481 42.5361 149.658 42.6261 149.813 42.7477C149.968 42.8693 150.097 43.0202 150.193 43.1917C150.29 43.3632 150.351 43.5519 150.374 43.7472Z" fill="black"/>
<path d="M132.937 43.6184C134 42.6663 135.129 41.791 136.316 40.9992C140.002 38.5318 144.198 36.9248 148.592 36.2976" stroke="black" stroke-width="0.964984" stroke-miterlimit="10" stroke-linecap="round"/>
<path d="M136.647 41.3188L139.852 47.6509L143.061 53.9797L143.917 53.4559L144.773 52.9353" stroke="black" stroke-width="0.964984" stroke-miterlimit="10" stroke-linecap="round"/>
<path d="M147.181 10.2714C140.453 11.0703 134.64 14.5474 130.51 19.632C126.21 25.0262 123.894 31.729 123.949 38.6217L149.015 32.2503L174.082 25.8757C171.624 20.8199 167.75 16.5844 162.928 13.683C158.202 10.8377 152.664 9.63779 147.181 10.2714Z" fill="#F6C34C" stroke="black" stroke-width="0.964984" stroke-miterlimit="10" stroke-linecap="round"/>
<path d="M163.78 39.7299L165.726 37.6836L167.674 35.634" stroke="black" stroke-width="0.964984" stroke-miterlimit="10" stroke-linecap="round"/>
<path d="M133.448 36.2076C134.264 38.8373 134.271 41.6511 133.467 44.2847C132.71 46.7935 131.15 48.9854 129.025 50.5251C128.228 51.0953 127.359 51.5577 126.44 51.9002C123.503 52.9822 120.26 52.8848 117.393 51.6285C115.931 50.9855 114.632 50.0257 113.588 48.8189C112.544 47.6121 111.783 46.1885 111.36 44.6514C111.101 43.7079 110.98 42.7319 111.002 41.7539C111.077 39.619 111.743 37.5465 112.925 35.7656C114.129 33.9648 115.877 32.5603 118.046 32.115C119.357 31.8632 120.712 31.9476 121.982 32.3605C122.816 32.6251 123.614 32.9947 124.354 33.4606C124.269 33.9616 124.19 34.492 124.124 35.0453C124.059 35.5986 124.01 36.1781 123.973 36.7805C123.957 37.108 123.944 37.4354 123.937 37.7366C123.931 38.0378 123.937 38.3521 123.937 38.6468L128.697 37.4354L133.448 36.2076Z" fill="black" stroke="black" stroke-width="0.964984" stroke-miterlimit="10" stroke-linecap="round"/>
<path d="M125.316 29.3886L147.433 24.2745L169.554 19.1604" stroke="black" stroke-width="0.964984" stroke-miterlimit="10" stroke-linecap="round"/>
<path d="M132.003 27.8425L132.508 32.0792L133.01 36.3159" stroke="black" stroke-width="0.964984" stroke-miterlimit="10" stroke-linecap="round"/>
<path d="M140.753 25.8826L141.229 29.89L141.705 33.8942" stroke="black" stroke-width="0.964984" stroke-miterlimit="10" stroke-linecap="round"/>
<path d="M151.44 23.5215L151.906 27.4569L152.375 31.3924" stroke="black" stroke-width="0.964984" stroke-miterlimit="10" stroke-linecap="round"/>
<path d="M162.309 20.9958L162.749 24.7185L163.192 28.4411" stroke="black" stroke-width="0.964984" stroke-miterlimit="10" stroke-linecap="round"/>
<path d="M154.777 51.3867C154.689 51.2672 154.576 51.1678 154.447 51.095C154.317 51.0222 154.174 50.9776 154.026 50.9643C153.879 50.9493 153.73 50.9661 153.591 51.0136C153.451 51.061 153.323 51.138 153.216 51.2393L151.434 52.9026C150.844 53.4592 150.251 54.0136 149.656 54.5658C149.334 55.8494 149.251 57.1811 149.41 58.4947C149.52 59.5044 149.74 60.4991 150.066 61.461C150.929 61.4672 151.784 61.3025 152.582 60.9765C153.369 60.6562 154.073 60.1613 154.639 59.5293C155.577 58.4421 156.097 57.0577 156.106 55.6233C156.136 54.1046 155.669 52.6173 154.777 51.3867Z" fill="#EF3F3F" stroke="black" stroke-width="0.964984" stroke-miterlimit="10" stroke-linecap="round"/>
<path d="M145.681 58.2923C145.573 58.3948 145.488 58.519 145.431 58.6566C145.375 58.7943 145.348 58.9424 145.353 59.0911C145.355 59.2405 145.389 59.3876 145.453 59.5227C145.517 59.6577 145.609 59.7774 145.723 59.8736C146.946 60.9008 148.492 61.4664 150.09 61.4714C149.763 60.5095 149.543 59.5148 149.434 58.5051C149.274 57.1914 149.358 55.8598 149.68 54.5762L147.692 56.4391L145.681 58.2923Z" fill="black" stroke="black" stroke-width="0.964984" stroke-miterlimit="10" stroke-linecap="round"/>
<path d="M142.303 126.309C142.299 126.722 142.151 127.121 141.885 127.438C141.619 127.754 141.251 127.969 140.844 128.045C140.437 128.121 140.017 128.054 139.654 127.855C139.291 127.656 139.009 127.338 138.855 126.954C138.701 126.571 138.685 126.145 138.811 125.752C138.936 125.358 139.194 125.02 139.542 124.795C139.889 124.57 140.304 124.472 140.715 124.518C141.126 124.565 141.509 124.752 141.797 125.048C142.127 125.385 142.308 125.838 142.303 126.309Z" fill="black" stroke="black" stroke-width="0.964984" stroke-miterlimit="10" stroke-linecap="round"/>
<path d="M139.34 160.527C139.341 160.82 139.268 161.109 139.13 161.368C138.992 161.628 138.791 161.849 138.547 162.012C138.302 162.175 138.021 162.276 137.728 162.305C137.436 162.334 137.14 162.29 136.868 162.178C136.597 162.065 136.357 161.888 136.17 161.661C135.984 161.434 135.856 161.164 135.799 160.876C135.741 160.588 135.756 160.291 135.842 160.01C135.927 159.729 136.081 159.473 136.289 159.266C136.539 159.017 136.858 158.847 137.204 158.779C137.551 158.71 137.91 158.745 138.236 158.88C138.563 159.015 138.842 159.244 139.038 159.536C139.235 159.829 139.34 160.174 139.34 160.527Z" fill="black" stroke="black" stroke-width="0.964984" stroke-miterlimit="10" stroke-linecap="round"/>
<path d="M219.587 195.424C207.951 194.347 197.069 173.488 189.078 152.861C181.086 132.235 176.054 111.916 176.054 111.916L197.82 101.53L219.587 91.1482L229.1 113.864L238.614 136.576" stroke="black" stroke-width="0.964984" stroke-miterlimit="10" stroke-linecap="round"/>
<path d="M189.54 78.0315L178.865 76.8266L168.177 75.6217C167.765 75.5753 167.367 75.4484 167.004 75.2482C166.641 75.048 166.322 74.7785 166.063 74.455C165.805 74.1315 165.613 73.7604 165.498 73.3629C165.384 72.9653 165.349 72.5492 165.395 72.1381L167.938 49.6681L170.48 27.1981C170.575 26.3681 170.996 25.6094 171.65 25.0883C172.304 24.5673 173.139 24.3264 173.971 24.4184L184.649 25.6102L195.333 26.815C195.745 26.8614 196.144 26.9883 196.507 27.1885C196.869 27.3887 197.189 27.6583 197.447 27.9818C197.706 28.3052 197.898 28.6763 198.012 29.0739C198.127 29.4714 198.162 29.8876 198.115 30.2986L195.573 52.785L193.031 75.2583C192.984 75.6694 192.857 76.0673 192.656 76.4293C192.456 76.7913 192.186 77.1103 191.862 77.3681C191.537 77.6259 191.166 77.8175 190.767 77.9319C190.369 78.0463 189.952 78.0812 189.54 78.0347V78.0315Z" fill="#D1B7E5" stroke="black" stroke-width="0.964984" stroke-miterlimit="10" stroke-linecap="round"/>
<path d="M193.163 35.2821C193.165 35.7885 192.991 36.28 192.671 36.6731C192.352 37.0661 191.905 37.3365 191.408 37.438C190.911 37.5396 190.394 37.4661 189.945 37.2301C189.496 36.9942 189.143 36.6102 188.946 36.1437C188.749 35.6771 188.719 35.1568 188.863 34.6712C189.007 34.1856 189.315 33.7647 189.735 33.4802C190.155 33.1957 190.66 33.0651 191.165 33.1107C191.671 33.1563 192.145 33.3752 192.506 33.7302C192.713 33.9328 192.877 34.1743 192.99 34.4407C193.103 34.707 193.161 34.993 193.163 35.2821Z" fill="black" stroke="black" stroke-width="0.964984" stroke-miterlimit="10" stroke-linecap="round"/>
<path d="M192.36 43.197C192.363 43.7051 192.19 44.1986 191.869 44.5933C191.548 44.988 191.101 45.2596 190.602 45.3618C190.103 45.4641 189.584 45.3906 189.134 45.1539C188.683 44.9173 188.329 44.5321 188.131 44.0639C187.933 43.5957 187.904 43.0736 188.048 42.5864C188.193 42.0991 188.502 41.6769 188.923 41.3917C189.345 41.1065 189.852 40.9758 190.359 41.022C190.866 41.0682 191.342 41.2884 191.704 41.6451C191.91 41.848 192.075 42.0895 192.187 42.3558C192.3 42.6221 192.359 42.908 192.36 43.197Z" fill="black" stroke="black" stroke-width="0.964984" stroke-miterlimit="10" stroke-linecap="round"/>
<path d="M198.353 34.9992C198.56 34.7607 198.804 34.5563 199.075 34.3935C199.34 34.2354 199.635 34.1319 199.941 34.089C200.099 34.0726 200.258 34.0726 200.416 34.089C200.799 34.1278 201.171 34.2389 201.512 34.4164C203.152 35.2677 204.009 38.1587 204.445 40.8401C204.713 42.5424 204.867 44.2608 204.904 45.9837C204.941 49.9586 205.27 53.9254 205.888 57.8523C206.472 61.6764 207.282 65.5562 208.221 70.0515C208.221 70.0515 208.362 70.7063 209.353 73.9182C210.343 77.13 212.197 82.8695 215.608 93.0584C213.955 93.8442 212.298 94.6333 210.638 95.4256L205.659 97.8059C201.641 99.7354 197.638 101.666 193.649 103.598C189.659 105.529 185.689 107.465 181.737 109.406C176.593 103.185 172.223 97.6192 168.818 93.1272C165.413 88.6352 162.949 85.1679 161.621 83.1216C161.029 82.1668 160.51 81.1686 160.069 80.1356C159.321 78.384 158.622 76.1249 158.832 74.0786C158.879 73.6156 158.957 73.1562 159.065 72.7035C159.16 72.304 159.265 71.9734 159.351 71.7213C158.792 71.1601 158.314 70.5243 157.93 69.8321C157.208 68.5719 156.88 67.125 156.989 65.6773C157.056 64.8622 157.263 64.0648 157.602 63.32C157.832 62.8152 158.116 62.3366 158.448 61.8925C158.18 61.4749 157.971 61.022 157.828 60.5468C157.527 59.5932 157.522 58.5706 157.815 57.6142C158.107 56.6578 158.684 55.8127 159.469 55.1904C159.89 54.8384 160.362 54.5525 160.87 54.3424C160.55 53.513 160.476 52.6097 160.656 51.7395C160.819 50.9181 161.241 50.1702 161.86 49.6048C162.604 48.9582 163.561 48.6084 164.547 48.6226C165.601 48.6266 166.622 48.9879 167.444 49.6474C167.572 49.7488 167.693 49.8582 167.808 49.9748C167.926 50.0927 168.034 50.2171 168.136 50.3448C169.112 51.5018 170.172 52.5852 171.308 53.5861C172.722 54.8309 174.251 55.9393 175.875 56.8962C179.293 58.8935 183.072 60.2006 186.996 60.7433C189.534 61.1021 192.106 61.1647 194.659 60.9299C195.315 55.7143 195.623 52.9837 195.794 51.5562C195.965 50.1287 195.968 50.0076 195.968 50.0076C196.083 48.2461 196.234 46.6025 196.457 44.6282C196.68 42.654 196.965 40.3719 197.352 37.2976C197.403 36.8727 197.513 36.4571 197.68 36.0633C197.847 35.6757 198.074 35.3166 198.353 34.9992Z" fill="#F2B3C1" stroke="black" stroke-width="0.964984" stroke-miterlimit="10" stroke-linecap="round"/>
<path d="M160.858 54.3269C162.342 56.4285 163.975 58.422 165.743 60.2923C168.718 63.4518 172.766 66.9714 177.044 68.3956" stroke="black" stroke-width="0.964984" stroke-miterlimit="10" stroke-linecap="round"/>
<path d="M158.451 61.8809C159.956 63.8827 161.574 65.7978 163.296 67.6171C166.154 70.6358 169.877 73.9589 173.345 75.1704" stroke="black" stroke-width="0.964984" stroke-miterlimit="10" stroke-linecap="round"/>
<path d="M159.352 71.7104C159.352 71.7104 161.016 73.6127 163.289 75.8063C165.562 78 168.403 80.4784 170.785 81.6342" stroke="black" stroke-width="0.964984" stroke-miterlimit="10" stroke-linecap="round"/>
<path d="M99.2216 0.526855H52.8414C51.4029 0.528588 50.0238 1.09969 49.0066 2.11488C47.9894 3.13008 47.4171 4.50648 47.4154 5.94218V31.7256C47.4154 33.1618 47.9871 34.5392 49.0046 35.5548C50.0222 36.5704 51.4023 37.1409 52.8414 37.1409H73.9549L80.2535 43.4239L86.5489 49.7035L85.4368 43.4239L84.3247 37.1409H99.2216C100.661 37.1409 102.041 36.5704 103.058 35.5548C104.076 34.5392 104.648 33.1618 104.648 31.7256V5.94218C104.646 4.50648 104.074 3.13008 103.056 2.11488C102.039 1.09969 100.66 0.528588 99.2216 0.526855Z" fill="#14AF6C" stroke="black" stroke-width="0.964984" stroke-miterlimit="10" stroke-linecap="round"/>
<path d="M66.1198 19.9313C66.1206 20.7214 65.8468 21.4873 65.3452 22.0985C64.8436 22.7097 64.1451 23.1284 63.3688 23.2833C62.5925 23.4381 61.7864 23.3195 61.0879 22.9477C60.3894 22.5759 59.8417 21.9738 59.5382 21.2441C59.2346 20.5144 59.194 19.7022 59.4232 18.946C59.6523 18.1897 60.1372 17.5362 60.7951 17.0967C61.453 16.6573 62.2432 16.4591 63.0311 16.536C63.819 16.6128 64.5558 16.96 65.116 17.5183C65.4342 17.8347 65.6867 18.2108 65.859 18.6249C66.0313 19.039 66.1199 19.4829 66.1198 19.9313Z" fill="#F7CE21" stroke="black" stroke-width="0.964984" stroke-miterlimit="10" stroke-linecap="round"/>
<path d="M92.7837 19.9323C92.7793 20.7209 92.501 21.4837 91.9962 22.0905C91.4914 22.6973 90.7913 23.1105 90.0154 23.2599C89.2394 23.4092 88.4356 23.2853 87.7409 22.9094C87.0462 22.5335 86.5037 21.9287 86.2057 21.1982C85.9078 20.4677 85.8729 19.6567 86.1071 18.9034C86.3412 18.1502 86.8298 17.5012 87.4897 17.0673C88.1495 16.6333 88.9398 16.4411 89.7257 16.5236C90.5116 16.606 91.2445 16.9579 91.7996 17.5193C92.1144 17.8372 92.3634 18.214 92.5323 18.628C92.7012 19.042 92.7866 19.4852 92.7837 19.9323Z" fill="#F7CE21" stroke="black" stroke-width="0.964984" stroke-miterlimit="10" stroke-linecap="round"/>
<path d="M79.4682 19.9334C79.4676 20.7218 79.1932 21.4856 78.6916 22.0947C78.1901 22.7038 77.4925 23.1206 76.7176 23.274C75.9428 23.4274 75.1386 23.3079 74.4421 22.936C73.7456 22.564 73.1998 21.9626 72.8977 21.2341C72.5957 20.5056 72.556 19.6951 72.7854 18.9407C73.0149 18.1863 73.4993 17.5346 74.1562 17.0967C74.813 16.6587 75.6017 16.4616 76.3879 16.5389C77.174 16.6161 77.909 16.963 78.4677 17.5204C79.1084 18.1607 79.4682 19.0285 79.4682 19.9334Z" fill="#F7CE21" stroke="black" stroke-width="0.964984" stroke-miterlimit="10" stroke-linecap="round"/>
<path d="M28.4534 78.1482C27.2479 76.9631 26.1663 75.6588 25.2253 74.2553C24.3921 73.0341 23.7589 71.9307 23.1979 71.0827C21.4443 68.4403 19.8302 65.7081 18.3624 62.8975C16.8923 60.0892 15.6218 57.1811 14.5603 54.195C14.301 53.4044 13.9556 52.6447 13.5302 51.9293C12.9714 50.9302 12.0904 50.149 11.0304 49.7128C10.7667 49.6147 10.4926 49.5466 10.2136 49.5098C9.75814 49.4478 9.2945 49.4915 8.85873 49.6375C8.18171 49.8806 7.60477 50.3413 7.21846 50.9471C6.77563 51.6367 6.50662 52.4231 6.43442 53.239C5.98912 53.3217 5.55818 53.4684 5.15501 53.6744C4.87733 53.8157 4.61745 53.9893 4.3808 54.1917C3.56483 54.9255 3.03015 55.9199 2.86848 57.0042C2.66689 58.2584 2.7796 59.543 3.19653 60.7431C3.01146 60.8389 2.83381 60.9484 2.66509 61.0706C2.51023 61.186 2.36437 61.3129 2.22877 61.4504C0.618032 63.0612 0.713168 65.8376 1.24461 68.2965C1.63462 69.9956 2.19628 71.651 2.92097 73.237L3.45897 74.4026C3.63612 74.789 3.81655 75.1786 3.9937 75.5682C3.83599 75.6531 3.68469 75.7494 3.54099 75.8563C3.3559 75.9958 3.18454 76.1526 3.02922 76.3245C2.44857 76.9793 1.83511 78.1449 2.14348 80.6266C2.45185 83.1084 3.68533 86.8998 6.78871 92.7899C9.02915 97.006 11.5282 101.08 14.2716 104.989C18.5858 111.133 23.298 116.988 28.3779 122.519L45.0463 107.697L61.7508 92.8848C56.2198 81.6285 51.4696 71.9536 48.0119 64.9078C44.5542 57.862 42.3956 53.442 42.038 52.6824C41.9899 52.5792 41.9362 52.4786 41.8773 52.3812C41.425 51.6111 40.7689 50.9801 39.9811 50.5575C39.4515 50.2827 38.8527 50.1689 38.2589 50.2301C38.0666 50.2518 37.8774 50.2946 37.6946 50.3578C37.3399 50.4702 37.011 50.6516 36.7269 50.8914C35.7427 51.7263 35.5229 52.8919 35.618 54.0968C35.7668 55.2802 36.0519 56.4425 36.4677 57.5607C37.7534 61.4103 38.7502 65.3501 39.4497 69.3474C40.26 74.3961 40.2666 79.4316 37.6192 81.0686C37.1635 81.337 36.6535 81.5003 36.1265 81.5467C35.6102 81.5908 35.0911 81.5908 34.5748 81.5467C33.6435 81.4831 32.7364 81.2219 31.9143 80.7805C30.6367 80.0785 29.4704 79.1914 28.4534 78.1482Z" fill="#F2B3C1" stroke="black" stroke-width="0.964984" stroke-miterlimit="10" stroke-linecap="round"/>
<path d="M4.01538 75.583C4.01538 75.583 5.2259 78.88 6.96786 82.6485C8.70982 86.4169 10.9307 90.6536 12.9876 92.5362" stroke="black" stroke-width="0.964984" stroke-miterlimit="10" stroke-linecap="round"/>
<path d="M3.20789 60.7522C3.20789 60.7522 5.81591 67.2316 8.90617 73.9042C11.9964 80.5768 15.5624 87.4294 17.4651 88.1792" stroke="black" stroke-width="0.964984" stroke-miterlimit="10" stroke-linecap="round"/>
<path d="M6.43689 53.2524C6.43689 53.2524 8.92353 60.1051 12.1385 67.331C15.3534 74.5569 19.2999 82.1626 22.2163 83.6654" stroke="black" stroke-width="0.964984" stroke-miterlimit="10" stroke-linecap="round"/>
<path d="M184.017 138.741V167.085V195.428H217.698C216.754 195.428 215.783 194.918 214.874 194.273C213.965 193.628 213.119 192.842 212.427 192.308C208.454 189.155 205.183 185.154 202.365 180.823C199.547 176.491 197.182 171.822 195.027 167.34C193.669 164.518 192.573 162.003 191.553 159.482C190.532 156.961 189.584 154.44 188.528 151.605C187.905 149.938 187.216 148.003 186.442 145.865C185.667 143.727 184.867 141.324 184.017 138.741Z" fill="black" stroke="black" stroke-width="0.964984" stroke-miterlimit="10" stroke-linecap="round"/>
</svg>
