<svg width="396" height="396" viewBox="0 0 396 396" fill="none" xmlns="http://www.w3.org/2000/svg">
<path d="M345.242 371.565L248.107 371.236L150.976 370.907C116.548 339.227 91.022 315.76 74.0969 300.198L48.8599 276.984C48.8599 276.984 48.9311 260.546 49.0658 228.613C49.2004 196.679 49.4024 149.258 49.6637 87.2842H202.029C202.029 87.2842 228.022 142.764 254.02 198.239L306.014 309.195C314.156 323.162 321.819 335.588 328.515 346.106C335.211 356.624 340.957 365.233 345.242 371.565Z" fill="url(#paint0_linear_16_2654)" stroke="black" stroke-width="0.413091" stroke-miterlimit="10" stroke-linecap="round"/>
<path d="M202.833 362.629H125.846H48.8599V335.206V307.787H125.846H202.833V335.206V362.629Z" fill="#F6991A" stroke="#070707" stroke-width="0.413091" stroke-miterlimit="10" stroke-linecap="round"/>
<path d="M197.115 346.542H125.847H54.5745V333.818V321.091H125.847H197.115V333.818V346.542Z" fill="#F6991A" stroke="#070707" stroke-width="0.413091" stroke-miterlimit="10" stroke-linecap="round"/>
<path d="M54.5745 326.001H125.847H197.115" fill="#D87D61"/>
<path d="M54.5745 326.001H125.847H197.115" stroke="black" stroke-width="0.413091" stroke-miterlimit="10" stroke-linecap="round"/>
<path d="M54.5745 331.146H125.847H197.115" fill="#D87D61"/>
<path d="M54.5745 331.146H125.847H197.115" stroke="black" stroke-width="0.413091" stroke-miterlimit="10" stroke-linecap="round"/>
<path d="M54.5745 336.297H125.847H197.115" fill="#D87D61"/>
<path d="M54.5745 336.297H125.847H197.115" stroke="black" stroke-width="0.413091" stroke-miterlimit="10" stroke-linecap="round"/>
<path d="M54.5745 341.453H125.847H197.115" fill="#D87D61"/>
<path d="M54.5745 341.453H125.847H197.115" stroke="black" stroke-width="0.413091" stroke-miterlimit="10" stroke-linecap="round"/>
<path d="M53.9524 373.837H51.4061H48.8599V368.233V362.63H51.4061H53.9524V368.233V373.837Z" fill="#F6991A" stroke="#070707" stroke-width="0.413091" stroke-miterlimit="10" stroke-linecap="round"/>
<path d="M202.833 373.837H200.287H197.741V368.233V362.63H200.287H202.833V368.233V373.837Z" fill="#F6991A" stroke="#070707" stroke-width="0.413091" stroke-miterlimit="10" stroke-linecap="round"/>
<path d="M125.847 14.2517C106.165 14.2517 88.3493 23.6567 75.4516 38.8631C62.5539 54.0695 54.5745 75.0733 54.5745 98.2631V269.402H197.134V98.2671C197.134 75.0654 189.159 54.0616 176.261 38.8671C163.364 23.6726 145.528 14.2517 125.847 14.2517Z" fill="#543FC2"/>
<path d="M100.707 273.694C100.821 273.694 100.935 273.685 101.048 273.666C101.162 273.645 101.275 273.615 101.384 273.575C101.495 273.534 101.603 273.484 101.705 273.424C101.81 273.363 101.909 273.293 102.002 273.215C102.203 273.042 102.364 272.827 102.473 272.585C102.579 272.347 102.64 272.092 102.655 271.833C102.669 271.564 102.632 271.296 102.548 271.041C102.461 270.785 102.327 270.549 102.152 270.344C99.8427 267.58 97.7871 264.614 96.0104 261.481C92.4333 255.181 89.9684 248.311 88.724 241.174C88.1043 237.626 87.8048 234.029 87.8291 230.427C87.8291 229.742 87.8528 229.029 87.9003 228.308C87.941 227.58 88.019 226.854 88.134 226.134C88.2482 225.41 88.415 224.695 88.6329 223.996C88.848 223.301 89.1346 222.631 89.4883 221.996C89.7755 221.484 90.121 221.007 90.5179 220.574C90.931 220.123 91.3978 219.724 91.9079 219.386C92.4154 219.044 92.9742 218.785 93.5631 218.618C94.1538 218.451 94.7727 218.408 95.3808 218.491C95.8513 218.558 96.3099 218.692 96.743 218.887C97.1964 219.096 97.6298 219.345 98.0379 219.632C98.4611 219.93 98.8682 220.249 99.2576 220.59C99.6536 220.931 100.03 221.283 100.394 221.632C101.355 222.55 102.298 223.49 103.222 224.451C104.148 225.413 105.047 226.395 105.93 227.397C106.813 228.399 107.669 229.421 108.508 230.462C109.348 231.504 110.156 232.557 110.948 233.63C111.264 234.05 111.729 234.333 112.246 234.422C112.5 234.47 112.761 234.47 113.015 234.422C113.401 234.342 113.755 234.152 114.036 233.875C114.317 233.598 114.512 233.247 114.599 232.862C114.72 232.347 114.636 231.804 114.365 231.349C113.106 229.222 111.948 227.032 110.892 224.78C109.836 222.528 108.89 220.232 108.053 217.893C107.217 215.557 106.489 213.177 105.879 210.765C105.269 208.354 104.774 205.934 104.398 203.495C104.16 201.946 104.002 200.489 103.895 199.111C103.801 197.813 103.774 196.511 103.812 195.21C103.848 194.043 103.962 192.878 104.152 191.726C104.326 190.662 104.58 189.614 104.912 188.589C105.378 187.223 106.039 185.931 106.873 184.752C107.77 183.458 108.836 182.289 110.041 181.275C111.208 180.276 112.551 179.501 114.001 178.99C115.401 178.501 116.91 178.416 118.357 178.745C119.212 178.965 120.019 179.345 120.733 179.865C121.495 180.413 122.202 181.034 122.843 181.719C123.509 182.412 124.138 183.152 124.74 183.873C125.342 184.594 125.928 185.295 126.467 185.901C127.296 186.803 128.11 187.716 128.91 188.637C129.702 189.564 130.494 190.494 131.286 191.441C132.078 192.387 132.83 193.337 133.583 194.3C134.335 195.262 135.076 196.24 135.8 197.222C136.101 197.631 136.538 197.918 137.032 198.034C137.272 198.093 137.52 198.105 137.765 198.07C138.014 198.036 138.254 197.951 138.47 197.82C138.715 197.674 138.925 197.477 139.087 197.242C139.243 197.019 139.35 196.765 139.4 196.497C139.453 196.236 139.453 195.967 139.4 195.705C139.339 195.431 139.221 195.172 139.056 194.945C138.042 193.575 137.004 192.222 135.943 190.886C134.882 189.55 133.794 188.23 132.68 186.926C131.571 185.627 130.439 184.348 129.282 183.089C128.126 181.83 126.959 180.594 125.782 179.382C125.386 178.986 125.009 178.59 124.594 178.222C124.178 177.854 123.77 177.474 123.326 177.121C122.886 176.769 122.424 176.444 121.944 176.147C121.453 175.85 120.94 175.591 120.408 175.375C119.868 175.158 119.31 174.988 118.741 174.868C118.157 174.746 117.563 174.672 116.967 174.646C116.351 174.624 115.734 174.646 115.121 174.714C114.481 174.788 113.846 174.906 113.221 175.066C111.852 175.428 110.543 175.984 109.332 176.717C108.08 177.472 106.93 178.383 105.91 179.43C104.848 180.52 103.918 181.73 103.138 183.037C102.319 184.402 101.655 185.853 101.158 187.366C100.681 188.85 100.337 190.374 100.133 191.92C99.9362 193.401 99.8397 194.893 99.8437 196.387C99.8437 197.832 99.9229 199.226 100.046 200.525C100.168 201.824 100.331 203.031 100.497 204.109C100.706 205.484 100.952 206.854 101.238 208.219C101.523 209.584 101.841 210.944 102.192 212.298C102.543 213.652 102.931 214.996 103.356 216.329C103.781 217.662 104.238 218.982 104.726 220.289L104.33 219.893C104.2 219.762 104.069 219.632 103.934 219.497L103.538 219.101C103.408 218.97 103.273 218.844 103.142 218.705C102.667 218.25 102.172 217.79 101.642 217.343C101.11 216.887 100.551 216.465 99.9665 216.08C99.3708 215.688 98.7397 215.352 98.0815 215.078C97.3998 214.795 96.6854 214.598 95.955 214.492C94.907 214.342 93.8402 214.392 92.8107 214.638C91.8299 214.886 90.8943 215.287 90.0387 215.826C89.191 216.352 88.4173 216.989 87.738 217.719C87.0812 218.413 86.512 219.184 86.0431 220.016C85.5905 220.831 85.2166 221.688 84.9264 222.574C84.6435 223.436 84.4264 224.317 84.2769 225.211C84.1283 226.081 84.0252 226.957 83.9681 227.837C83.9087 228.696 83.8889 229.544 83.8809 230.355C83.8537 234.204 84.1731 238.048 84.8353 241.839C86.1675 249.454 88.804 256.782 92.6286 263.501C94.5293 266.841 96.7267 270.003 99.1943 272.949C99.2905 273.064 99.3994 273.168 99.519 273.258C99.7533 273.434 100.024 273.556 100.311 273.615C100.44 273.653 100.573 273.68 100.707 273.694Z" fill="url(#paint1_linear_16_2654)" stroke="black" stroke-width="0.413091" stroke-miterlimit="10" stroke-linecap="round"/>
<path d="M200.029 164.734C200.16 164.654 200.283 164.563 200.397 164.461C200.513 164.358 200.619 164.246 200.714 164.124C200.81 163.999 200.897 163.867 200.972 163.728C201.048 163.585 201.111 163.435 201.162 163.281C201.269 162.945 201.302 162.589 201.257 162.239C201.212 161.894 201.103 161.561 200.936 161.257C200.764 160.956 200.54 160.688 200.275 160.465C200.002 160.233 199.688 160.055 199.348 159.942C194.799 158.42 190.396 156.492 186.193 154.18C177.737 149.538 170.146 143.472 163.751 136.25C160.571 132.659 157.72 128.789 155.234 124.686C154.758 123.894 154.283 123.083 153.832 122.235C153.38 121.388 152.953 120.505 152.576 119.602C152.201 118.701 151.892 117.775 151.65 116.83C151.411 115.891 151.268 114.93 151.222 113.963C151.193 113.182 151.252 112.401 151.396 111.634C151.547 110.828 151.795 110.043 152.137 109.298C152.47 108.555 152.921 107.87 153.471 107.27C154.026 106.667 154.7 106.186 155.451 105.857C156.035 105.608 156.651 105.444 157.281 105.369C157.938 105.294 158.6 105.275 159.261 105.314C159.948 105.355 160.633 105.433 161.312 105.548C161.997 105.659 162.674 105.793 163.328 105.944C165.062 106.311 166.789 106.719 168.507 107.167C170.226 107.616 171.942 108.099 173.655 108.617C175.353 109.145 177.04 109.702 178.716 110.288C180.387 110.882 182.051 111.511 183.694 112.181C184.179 112.375 184.71 112.428 185.224 112.332C185.738 112.236 186.214 111.995 186.597 111.638C186.855 111.395 187.065 111.105 187.214 110.783C187.364 110.46 187.448 110.112 187.464 109.757C187.497 109.066 187.266 108.388 186.818 107.86C186.59 107.588 186.31 107.363 185.995 107.199C183.091 105.665 180.25 103.991 177.473 102.178C174.696 100.364 172.015 98.4197 169.43 96.3447C166.843 94.2775 164.363 92.0929 161.989 89.7908C159.616 87.4888 157.364 85.085 155.234 82.5797C153.882 80.9957 152.671 79.4566 151.602 77.9623C150.587 76.5603 149.646 75.1063 148.783 73.6063C148.01 72.2565 147.325 70.8583 146.731 69.4206C146.186 68.0953 145.743 66.7305 145.405 65.3378C144.976 63.4587 144.818 61.5276 144.938 59.6038C145.058 57.5114 145.458 55.4445 146.126 53.4578C146.756 51.507 147.742 49.6892 149.032 48.096C150.273 46.5662 151.92 45.4174 153.784 44.7815C154.908 44.4332 156.088 44.2989 157.261 44.3855C158.508 44.4747 159.742 44.6856 160.948 45.0151C162.183 45.3359 163.415 45.7398 164.599 46.1358C165.783 46.5318 166.923 46.9278 167.977 47.2248C169.542 47.671 171.103 48.1382 172.658 48.6266C174.212 49.115 175.76 49.6219 177.299 50.1473C178.838 50.6753 180.372 51.2218 181.9 51.7867C183.429 52.3517 184.948 52.9391 186.458 53.5489C186.774 53.6733 187.109 53.7429 187.448 53.7548C187.779 53.7634 188.108 53.7152 188.422 53.6123C188.732 53.5077 189.02 53.348 189.274 53.141C189.535 52.9231 189.748 52.6535 189.899 52.349C190.075 52.0114 190.176 51.6401 190.196 51.26C190.216 50.8989 190.161 50.5374 190.034 50.1988C189.906 49.8605 189.712 49.551 189.464 49.288C189.205 49.0196 188.891 48.809 188.545 48.6702C186.433 47.8228 184.31 47.0123 182.177 46.2388C180.044 45.4652 177.89 44.7287 175.715 44.0291C173.547 43.3321 171.369 42.6721 169.181 42.0491C166.992 41.426 164.796 40.8466 162.591 40.3106C161.89 40.1364 161.174 39.9661 160.445 39.8196C159.716 39.6731 158.984 39.5424 158.243 39.4553C157.496 39.3614 156.743 39.3151 155.99 39.3167C155.226 39.3187 154.463 39.3836 153.709 39.5107C152.944 39.6425 152.193 39.8413 151.464 40.1047C150.717 40.3744 149.994 40.7042 149.301 41.0908C148.586 41.4939 147.901 41.9506 147.254 42.457C146.578 42.9853 145.941 43.5624 145.349 44.1835C144.048 45.5481 142.949 47.0924 142.086 48.7692C141.198 50.5 140.533 52.3362 140.106 54.234C139.662 56.2143 139.449 58.2396 139.473 60.269C139.5 62.387 139.766 64.4951 140.265 66.5536C140.759 68.5715 141.434 70.5409 142.28 72.4381C143.093 74.2525 144.026 76.0107 145.072 77.701C146.082 79.3444 147.147 80.869 148.193 82.255C149.238 83.641 150.268 84.8963 151.206 86.0011C152.407 87.4109 153.644 88.7916 154.917 90.1433C156.189 91.495 157.5 92.815 158.849 94.1033C160.195 95.3916 161.575 96.6443 162.987 97.8613C164.4 99.0784 165.841 100.26 167.312 101.406L166.595 101.239L165.878 101.073L165.157 100.914C164.92 100.863 164.678 100.808 164.437 100.76C163.585 100.578 162.694 100.4 161.787 100.261C160.869 100.119 159.944 100.033 159.015 100.004C158.067 99.9745 157.117 100.034 156.18 100.182C155.208 100.338 154.26 100.614 153.356 101.006C152.063 101.572 150.889 102.378 149.895 103.382C148.947 104.344 148.157 105.45 147.555 106.66C146.964 107.851 146.531 109.113 146.264 110.415C146.009 111.659 145.904 112.93 145.951 114.2C146.006 115.442 146.18 116.675 146.47 117.883C146.753 119.057 147.122 120.209 147.575 121.328C148.015 122.415 148.511 123.479 149.06 124.516C149.598 125.534 150.161 126.496 150.723 127.435C153.383 131.811 156.431 135.94 159.831 139.77C166.646 147.466 174.735 153.929 183.746 158.877C188.234 161.336 192.935 163.385 197.792 164.999C197.987 165.069 198.191 165.113 198.398 165.13C198.59 165.152 198.784 165.152 198.976 165.13C199.163 165.106 199.348 165.063 199.526 164.999C199.703 164.928 199.871 164.84 200.029 164.734Z" fill="url(#paint2_linear_16_2654)" stroke="black" stroke-width="0.413091" stroke-miterlimit="10" stroke-linecap="round"/>
<path d="M125.846 6.65845C104.585 6.65845 85.3394 16.8198 71.4081 33.2578C57.4768 49.6957 48.8599 72.3588 48.8599 97.4098V276.984H202.833V97.4098C202.833 72.3469 194.216 49.6561 180.261 33.23C166.306 16.804 147.104 6.65845 125.846 6.65845ZM195.966 83.1538H133.794L156.421 62.736L178.993 42.3064C183.369 48.1077 186.995 54.4384 189.784 61.148C192.732 68.2046 194.808 75.5944 195.966 83.1538ZM174.915 37.3326L151.99 58.0553L129.062 78.7978V14.3329C137.8 14.8039 146.339 17.117 154.121 21.1204C161.996 25.1901 169.047 30.6874 174.915 37.3326ZM122.643 14.3329V78.2354L99.8488 57.6434L77.059 37.0514C82.9136 30.489 89.9295 25.064 97.754 21.0491C105.485 17.0942 113.96 14.8061 122.631 14.3329H122.643ZM118.489 83.1538H55.7265C56.8909 75.5217 58.9896 68.0618 61.9754 60.9421C64.8045 54.1777 68.4853 47.8021 72.9287 41.9698L95.7106 62.5618L118.489 83.1538ZM197.114 269.393H54.5741V98.2651C54.5741 96.7999 54.6058 95.3479 54.6692 93.9091C54.7325 92.4703 54.8263 91.0342 54.9503 89.6006H196.738C196.865 91.0262 196.956 92.4637 197.019 93.9091C197.083 95.3545 197.114 96.8078 197.114 98.2651V269.4V269.393Z" fill="#F6991A" stroke="#070707" stroke-width="0.413091" stroke-miterlimit="10" stroke-linecap="round"/>
<path d="M174.76 211.46C174.76 211.005 173.596 210.593 171.663 210.272C169.114 209.894 166.542 209.684 163.965 209.642C163.93 207.076 163.665 204.518 163.173 201.999C162.749 200.071 162.195 198.907 161.589 198.907C160.983 198.907 160.429 200.071 160.005 201.999C159.513 204.518 159.248 207.076 159.213 209.642C156.63 209.683 154.054 209.893 151.499 210.272C149.566 210.593 148.406 211.005 148.406 211.46C148.406 211.915 149.566 212.323 151.499 212.648C154.047 213.023 156.617 213.231 159.193 213.27C159.228 215.836 159.493 218.394 159.985 220.912C160.409 222.841 160.963 224.005 161.569 224.005C162.175 224.005 162.729 222.841 163.153 220.912C163.645 218.394 163.91 215.836 163.945 213.27C166.529 213.232 169.107 213.024 171.663 212.648C173.596 212.319 174.76 211.907 174.76 211.46Z" fill="url(#paint3_linear_16_2654)" stroke="black" stroke-width="0.413091" stroke-miterlimit="10" stroke-linecap="round"/>
<path d="M161.771 234.899C159.72 235.338 158.433 235.818 157.55 236.701C156.666 237.584 156.187 238.871 155.748 240.926C155.735 240.987 155.701 241.042 155.652 241.082C155.604 241.121 155.543 241.143 155.48 241.143C155.418 241.143 155.357 241.121 155.308 241.082C155.26 241.042 155.226 240.987 155.213 240.926C154.774 238.871 154.294 237.584 153.411 236.701C152.528 235.818 151.245 235.338 149.19 234.899C149.128 234.888 149.071 234.856 149.031 234.807C148.991 234.758 148.97 234.697 148.972 234.634C148.971 234.571 148.993 234.509 149.032 234.461C149.072 234.412 149.128 234.379 149.19 234.368C151.245 233.929 152.528 233.449 153.411 232.566C154.294 231.683 154.774 230.396 155.213 228.341C155.226 228.28 155.26 228.225 155.308 228.185C155.357 228.146 155.418 228.125 155.48 228.125C155.543 228.125 155.604 228.146 155.652 228.185C155.701 228.225 155.735 228.28 155.748 228.341C156.187 230.396 156.666 231.683 157.55 232.566C158.433 233.449 159.72 233.929 161.771 234.368C161.833 234.379 161.889 234.412 161.928 234.461C161.968 234.509 161.99 234.571 161.989 234.634C161.991 234.697 161.969 234.758 161.929 234.807C161.889 234.856 161.833 234.888 161.771 234.899Z" fill="url(#paint4_linear_16_2654)" stroke="black" stroke-width="0.413091" stroke-miterlimit="10" stroke-linecap="round"/>
<path d="M122.171 106.768C120.14 107.203 118.865 107.678 117.994 108.553C117.122 109.429 116.643 110.7 116.208 112.731C116.196 112.792 116.164 112.847 116.116 112.886C116.068 112.925 116.008 112.946 115.946 112.945C115.884 112.946 115.823 112.926 115.775 112.886C115.726 112.847 115.693 112.792 115.681 112.731C115.245 110.7 114.774 109.425 113.899 108.553C113.024 107.682 111.753 107.203 109.721 106.768C109.66 106.756 109.606 106.724 109.566 106.676C109.527 106.628 109.506 106.568 109.507 106.506C109.506 106.444 109.527 106.383 109.566 106.335C109.605 106.286 109.66 106.253 109.721 106.241C111.753 105.805 113.024 105.334 113.899 104.459C114.774 103.584 115.245 102.313 115.681 100.281C115.693 100.22 115.726 100.165 115.775 100.126C115.823 100.087 115.884 100.066 115.946 100.067C116.008 100.066 116.068 100.087 116.116 100.126C116.164 100.165 116.196 100.22 116.208 100.281C116.643 102.313 117.119 103.584 117.994 104.459C118.869 105.334 120.14 105.805 122.171 106.241C122.233 106.253 122.288 106.286 122.327 106.335C122.366 106.383 122.387 106.444 122.385 106.506C122.386 106.568 122.365 106.628 122.326 106.676C122.287 106.724 122.232 106.756 122.171 106.768Z" fill="url(#paint5_linear_16_2654)" stroke="black" stroke-width="0.413091" stroke-miterlimit="10" stroke-linecap="round"/>
<path d="M182.404 207.044C181.462 207.043 180.55 206.715 179.822 206.116C179.095 205.518 178.597 204.686 178.415 203.762C178.232 202.838 178.376 201.879 178.821 201.049C179.266 200.219 179.985 199.569 180.856 199.21C181.726 198.85 182.695 198.804 183.596 199.079C184.496 199.353 185.274 199.932 185.796 200.716C186.319 201.5 186.553 202.44 186.459 203.378C186.365 204.315 185.95 205.191 185.283 205.856C184.905 206.234 184.456 206.533 183.962 206.737C183.468 206.941 182.938 207.045 182.404 207.044ZM182.404 201.127C181.977 201.127 181.563 201.275 181.233 201.546C180.903 201.817 180.677 202.193 180.594 202.612C180.51 203.031 180.575 203.465 180.776 203.842C180.977 204.218 181.302 204.513 181.696 204.677C182.09 204.841 182.529 204.863 182.938 204.739C183.346 204.616 183.699 204.354 183.937 204C184.174 203.645 184.282 203.219 184.24 202.794C184.199 202.37 184.012 201.972 183.711 201.67C183.364 201.323 182.894 201.128 182.404 201.127Z" fill="url(#paint6_linear_16_2654)" stroke="black" stroke-width="0.413091" stroke-miterlimit="10" stroke-linecap="round"/>
<path d="M74.468 172.416C73.5364 172.418 72.6329 172.097 71.9114 171.508C71.1899 170.918 70.695 170.097 70.5111 169.184C70.3271 168.271 70.4655 167.322 70.9026 166.499C71.3397 165.676 72.0485 165.031 72.9083 164.672C73.7681 164.313 74.7256 164.264 75.6178 164.532C76.51 164.8 77.2817 165.369 77.8015 166.142C78.3212 166.915 78.5568 167.845 78.4681 168.772C78.3795 169.699 77.972 170.567 77.3152 171.228C76.9426 171.604 76.4991 171.903 76.0104 172.107C75.5217 172.311 74.9975 172.416 74.468 172.416ZM74.468 166.563C74.0457 166.563 73.6364 166.71 73.3099 166.978C72.9835 167.246 72.76 167.618 72.6777 168.033C72.5953 168.447 72.6591 168.877 72.8583 169.249C73.0574 169.622 73.3795 169.914 73.7697 170.075C74.1599 170.237 74.5941 170.258 74.9983 170.136C75.4024 170.013 75.7516 169.754 75.9862 169.403C76.2208 169.052 76.3264 168.63 76.2849 168.21C76.2435 167.789 76.0576 167.396 75.759 167.098C75.4161 166.756 74.952 166.564 74.468 166.563Z" fill="url(#paint7_linear_16_2654)" stroke="black" stroke-width="0.413091" stroke-miterlimit="10" stroke-linecap="round"/>
<path d="M80.5902 139.351L78.535 138.421L76.4837 137.486L74.4285 136.552L72.3772 135.621L74.0166 134.615L75.6561 133.613L77.2955 132.611L78.9349 131.609L76.7253 129.364L74.5156 127.119L72.3059 124.873L70.0923 122.628L72.9039 123.084L75.7115 123.539L78.5191 123.994L81.3307 124.45L80.1309 121.191L78.9349 117.928L77.7351 114.669L76.5352 111.406L79.2993 113.512L82.0594 115.615L84.8195 117.718L87.5796 119.824L88.1776 117.971L88.7755 116.118L89.3735 114.265L89.9715 112.415L91.104 114.502L92.2326 116.589L93.3652 118.676L94.4977 120.767L97.2222 118.577L99.9427 116.387L102.663 114.197L105.388 112.007L104.105 115.413L102.822 118.823L101.543 122.232L100.26 125.642L103.392 125.475L106.524 125.309L109.653 125.143L112.785 124.976L110.306 127.012L107.823 129.047L105.34 131.079L102.861 133.114L104.608 134.932L106.354 136.75L108.104 138.567L109.851 140.381L107.479 140.432L105.107 140.488L102.735 140.539L100.362 140.591L100.782 144.087L101.202 147.584L101.622 151.081L102.042 154.577L99.8477 151.944L97.6539 149.311L95.46 146.673L93.2701 144.04L91.9594 146.998L90.6526 149.956L89.3418 152.91L88.035 155.868L87.5717 152.57L87.1123 149.271L86.653 145.976L86.1897 142.678L83.1682 144.927L80.1427 147.176L77.1173 149.422L74.0958 151.671L75.7194 148.59L77.343 145.509L78.9666 142.432L80.5902 139.351Z" fill="url(#paint8_linear_16_2654)" stroke="black" stroke-width="0.413091" stroke-miterlimit="10" stroke-linecap="round"/>
<path d="M262.851 287.561L227.967 287.49L193.083 287.43C184.906 294.325 175.612 301.381 167.046 309.083C158.481 316.786 150.636 325.141 145.365 334.614C142.144 340.451 140.918 347.181 141.873 353.78C142.766 360.394 145.997 366.469 150.981 370.907C155.115 374.534 160.002 376.554 165.165 377.639C170.329 378.724 175.774 378.827 181.029 378.657C200.793 378.023 216.851 377.797 232.905 377.734C248.959 377.671 265.025 377.766 284.801 377.766H287.074C287.18 377.76 287.281 377.713 287.354 377.636C287.428 377.559 287.469 377.457 287.47 377.35V329.232H257.687C257.857 329.074 258.107 328.836 258.404 328.539C258.701 328.242 259.053 327.874 259.421 327.45C263.757 322.48 265.322 316.211 265.781 311.071C266.079 307.866 265.99 304.637 265.516 301.453L265.349 300.569C265.183 299.706 264.85 297.992 264.189 294.542C264.189 294.451 263.845 292.752 263.52 291.05C263.195 289.347 262.866 287.652 262.851 287.561Z" fill="#DBCAF4" stroke="black" stroke-width="0.413091" stroke-miterlimit="10" stroke-linecap="round"/>
<path d="M274.126 360.468H272.803V338.411H287.499V335.406H272.807V329.232H269.813V335.406H247.02V313.348H265.505C265.584 312.83 265.647 312.323 265.703 311.824C265.758 311.325 265.802 310.834 265.837 310.355H247.02V288.25C247.02 288.123 247.004 287.997 246.972 287.874C246.937 287.755 246.889 287.641 246.829 287.533H244.22C244.159 287.642 244.113 287.757 244.081 287.878C244.046 288 244.029 288.127 244.03 288.254V310.374H221.973V288.25C221.973 288.116 221.953 287.982 221.913 287.854C221.877 287.729 221.825 287.609 221.759 287.497H219.197C219.128 287.611 219.075 287.734 219.038 287.862C218.999 287.99 218.979 288.124 218.979 288.258V310.378H196.922V287.45H193.928V310.374H171.958V304.803L170.457 306.102L168.964 307.404V310.382H165.642C165.114 310.879 164.586 311.375 164.058 311.871C163.527 312.37 163 312.869 162.474 313.376H168.98V335.406H146.919V332C146.653 332.432 146.388 332.863 146.127 333.299C145.865 333.734 145.616 334.17 145.374 334.614C145.028 335.226 144.71 335.85 144.42 336.487C144.123 337.12 143.854 337.762 143.604 338.411H143.925V360.468H143.672C144.086 361.513 144.562 362.533 145.097 363.522C145.641 364.519 146.245 365.482 146.907 366.404V363.45H168.964V378.233C169.463 378.292 169.958 378.348 170.457 378.395C170.956 378.443 171.459 378.482 171.958 378.518V363.47H193.928V378.284L195.433 378.245L196.922 378.209V363.462H218.991V377.825H220.492H221.984V363.462H244.042V377.718H247.031V363.462H269.821V377.718H272.815V363.462H287.499V360.468H274.126ZM168.964 360.468H146.919V338.411H168.976V360.468H168.964ZM193.912 360.468H171.958V338.411H193.928V360.468H193.912ZM193.912 335.421H171.958V313.364H193.928V335.406L193.912 335.421ZM218.991 360.468H196.933V338.411H218.991V360.468ZM218.991 335.406H196.933V313.348H218.991V335.406ZM244.042 360.453H221.984V338.395H244.042V360.453ZM244.042 335.406H221.984V313.348H244.042V335.406ZM269.821 360.453H247.02V338.395H269.809V360.453H269.821Z" fill="#84A1E5" stroke="#070707" stroke-width="0.413091" stroke-miterlimit="10" stroke-linecap="round"/>
<path d="M347.118 378.739C347.21 377.217 347 375.692 346.5 374.252C346.179 373.311 345.751 372.41 345.225 371.567L344.362 370.256L343.483 368.957L331.821 350.864L320.158 332.767C319.85 332.289 319.496 331.842 319.101 331.432C318.703 331.027 318.259 330.67 317.778 330.367C316.665 329.682 315.394 329.292 314.088 329.235L330.478 354.864L346.869 380.497C346.928 380.208 346.979 379.919 347.023 379.622C347.067 379.325 347.094 379.04 347.118 378.739Z" fill="#C6FCDB" stroke="black" stroke-width="0.413091" stroke-miterlimit="10" stroke-linecap="round"/>
<path d="M314.089 329.25H313.915H287.498V373.728H294.04L300.586 373.708C300.586 373.708 303.516 374.916 307.623 376.758C311.729 378.599 317.02 381.066 321.728 383.589C322.199 383.842 322.734 384.115 323.451 384.48C324.167 384.844 325.066 385.272 326.266 385.893C328.817 387.172 330.377 387.905 331.47 388.353C332.253 388.692 333.071 388.947 333.909 389.113C335.33 389.424 336.8 389.444 338.229 389.172C339.658 388.899 341.018 388.341 342.225 387.529C344.614 385.887 346.277 383.386 346.866 380.547L330.476 354.914L314.089 329.25Z" fill="#ECE7E1" stroke="black" stroke-width="0.413091" stroke-miterlimit="10" stroke-linecap="round"/>
<path d="M270.619 234.772C269.606 232.686 268.507 230.671 267.325 228.725C266.161 226.805 264.896 224.948 263.535 223.161C258.312 216.303 251.504 211.61 243.913 208.739C236.322 205.868 227.95 204.83 219.595 205.278C193.249 206.708 181.492 221.383 176.332 235.718C171.172 250.054 172.597 264.032 172.597 264.032L164.428 255.178L156.262 246.307L143.943 256.916L131.619 267.525L143.567 285.163L155.51 302.817C156.93 304.917 158.563 306.867 160.381 308.634C162.196 310.401 164.201 311.962 166.36 313.287C168.169 314.39 170.078 315.318 172.063 316.059C174.308 316.899 176.643 317.477 179.021 317.782C180.987 318.065 182.975 318.171 184.961 318.098C187.895 317.989 190.777 317.294 193.439 316.055C198.013 313.865 201.644 309.949 204.095 304.967C206.547 299.985 207.83 293.958 207.703 287.543H262.85C262.85 287.543 263.515 291.016 264.184 294.489L265.515 301.435C265.515 301.328 266.786 300.365 268.144 299.383C269.503 298.401 270.916 297.403 271.186 297.178C273.569 295.138 275.43 292.558 276.615 289.654C277.814 286.754 278.574 283.693 278.872 280.569C279.625 272.838 279.296 265.04 277.894 257.399C276.513 249.56 274.065 241.947 270.619 234.772Z" fill="#ECE7E1" stroke="black" stroke-width="0.413091" stroke-miterlimit="10" stroke-linecap="round"/>
<path d="M225.229 208.924C229.902 204.988 232.705 198.885 233.672 192.942C234.673 186.764 233.604 180.38 229.712 175.755C229.549 175.561 229.383 175.359 229.209 175.189C229.034 175.019 228.864 174.825 228.686 174.65C225.724 171.763 221.764 170.231 217.685 169.997C213.587 169.735 209.518 170.838 206.114 173.134C204.114 174.583 202.471 176.47 201.31 178.65C200.137 180.824 199.207 183.122 198.538 185.501C198.389 185.999 198.267 186.505 198.174 187.017C198.075 187.524 198 188.039 197.921 188.562C197.893 188.736 197.857 189.374 197.782 189.987C197.707 190.601 197.592 191.175 197.41 191.259L196.42 191.655L195.45 192.051L194.479 192.447L193.509 192.843C193.996 193.239 194.436 193.611 194.82 193.92C195.204 194.229 195.529 194.49 195.79 194.712C196.052 194.933 196.289 195.084 196.535 195.282C196.78 195.474 197.003 195.693 197.2 195.935C197.379 196.175 197.501 196.453 197.556 196.747C197.62 197.032 197.647 197.333 197.695 197.63C199.6 209.732 214.644 217.331 224.738 209.364C224.908 209.189 225.07 209.079 225.229 208.924Z" fill="#F2B3C1" stroke="black" stroke-width="0.413091" stroke-miterlimit="10" stroke-linecap="round"/>
<path d="M205.093 188.701C205.06 188.85 204.999 188.991 204.911 189.116C204.74 189.357 204.484 189.524 204.194 189.584C204.045 189.613 203.891 189.611 203.742 189.579C203.593 189.547 203.451 189.485 203.327 189.398C203.086 189.228 202.92 188.971 202.864 188.681C202.83 188.532 202.83 188.378 202.864 188.229C202.896 188.087 202.957 187.952 203.042 187.833C203.125 187.712 203.231 187.608 203.355 187.528C203.475 187.449 203.61 187.394 203.751 187.366C203.9 187.334 204.053 187.334 204.202 187.366C204.344 187.4 204.479 187.46 204.598 187.544C204.718 187.628 204.82 187.734 204.899 187.857C204.978 187.978 205.034 188.112 205.065 188.253C205.104 188.399 205.113 188.551 205.093 188.701Z" fill="#040400"/>
<path d="M206.733 195.373C206.689 195.516 206.636 195.656 206.575 195.793C206.455 196.056 206.313 196.309 206.151 196.549C205.936 196.862 205.68 197.146 205.391 197.393C204.775 197.921 204.012 198.247 203.205 198.327C202.907 198.357 202.608 198.357 202.31 198.327C202.079 198.299 201.85 198.255 201.625 198.197C201.491 198.158 201.359 198.114 201.229 198.062" stroke="black" stroke-width="0.413091" stroke-miterlimit="10" stroke-linecap="round"/>
<path d="M202.972 183.553L204.62 184.123L206.271 184.693L207.922 185.264L209.574 185.834" stroke="black" stroke-width="0.413091" stroke-miterlimit="10" stroke-linecap="round"/>
<path d="M217.119 195.2C217.002 195.758 216.748 196.278 216.381 196.715C216.014 197.152 215.545 197.492 215.015 197.704C214.485 197.916 213.912 197.994 213.345 197.932C212.777 197.869 212.235 197.667 211.764 197.345C211.293 197.022 210.91 196.589 210.647 196.082C210.384 195.576 210.25 195.013 210.256 194.442C210.263 193.872 210.411 193.312 210.686 192.812C210.961 192.312 211.355 191.887 211.833 191.576C212.208 191.333 212.626 191.164 213.064 191.077C213.626 190.968 214.207 191 214.754 191.17C215.3 191.339 215.797 191.642 216.198 192.05C216.6 192.458 216.894 192.959 217.055 193.509C217.216 194.059 217.238 194.639 217.119 195.2Z" fill="#FF6406" stroke="#070707" stroke-width="0.413091" stroke-miterlimit="10" stroke-linecap="round"/>
<path d="M231.968 199.707C232.218 198.828 232.463 197.889 232.685 196.899C232.907 195.909 233.116 194.864 233.295 193.771C233.437 192.896 233.552 192.048 233.647 191.233C233.742 190.417 233.809 189.625 233.861 188.857C234.125 188.853 234.39 188.864 234.653 188.888C235 188.923 235.345 188.983 235.683 189.07C235.966 189.156 236.242 189.266 236.506 189.399C236.983 189.625 237.417 189.932 237.789 190.306C238.536 191.127 238.95 192.198 238.95 193.308C238.98 194.354 238.798 195.395 238.415 196.369C238.244 196.816 238.028 197.245 237.769 197.648C237.394 198.223 236.902 198.713 236.324 199.085C235.503 199.602 234.554 199.877 233.584 199.877C233.04 199.895 232.496 199.837 231.968 199.707Z" fill="#F2B3C1" stroke="black" stroke-width="0.413091" stroke-miterlimit="10" stroke-linecap="round"/>
<path d="M198.976 183.601C199.344 183.906 198.976 183.601 198.406 183.161C197.836 182.722 197.115 182.096 196.77 181.768C195.852 180.778 195.251 179.537 195.043 178.203C194.836 176.87 195.032 175.505 195.606 174.283C196.262 173.042 197.314 172.056 198.596 171.483C199.274 171.163 199.994 170.942 200.734 170.826C200.51 170.075 200.393 169.297 200.386 168.513C200.344 167.106 200.744 165.721 201.53 164.553C202.209 163.589 203.143 162.834 204.227 162.371C205.006 162.045 205.821 161.811 206.655 161.674C208.528 161.318 210.254 161.769 211.913 162.494C213.573 163.219 215.165 164.221 216.768 164.957C218.834 165.884 220.987 166.602 223.195 167.1C225.366 167.618 227.575 167.999 229.844 168.406C231.77 168.725 233.649 169.284 235.436 170.07C237.227 170.85 238.801 172.056 240.021 173.582C241.208 175.11 241.965 176.927 242.215 178.845C242.45 180.759 242.352 182.699 241.926 184.579C241.737 185.485 241.502 186.382 241.221 187.264C240.939 188.148 240.622 189.018 240.271 189.874C240.14 190.19 239.784 190.761 239.479 191.331C239.174 191.901 238.885 192.483 238.917 192.82C238.891 192.575 238.848 192.333 238.786 192.095C238.691 191.765 238.559 191.448 238.39 191.149C238.179 190.777 237.912 190.44 237.598 190.151C237.392 189.962 237.169 189.792 236.933 189.644C236.388 189.289 235.778 189.047 235.139 188.931C234.721 188.855 234.296 188.828 233.872 188.852C233.872 188.852 233.745 190.436 233.499 192.376C233.296 194.299 232.933 196.201 232.414 198.063C232.414 198.063 231.072 197.75 229.931 195.897C228.791 194.043 227.848 190.654 228.652 184.504C224.178 185.846 219.94 185.775 216.562 184.734C213.185 183.692 210.622 181.668 209.537 179.114C209.185 178.274 208.978 177.379 208.928 176.469C208.841 174.652 209.163 172.839 209.87 171.163C209.166 171.413 208.48 171.713 207.819 172.062C207.027 172.482 206.274 172.973 205.569 173.527C205.153 173.851 204.756 174.2 204.381 174.572C203.663 175.275 203.009 176.039 202.425 176.857C201.993 177.463 201.597 178.094 201.237 178.746C200.909 179.352 200.623 179.934 200.338 180.528C200.053 181.122 199.697 181.918 199.431 182.508C199.166 183.098 198.976 183.601 198.976 183.601Z" fill="#D87D61" stroke="black" stroke-width="0.413091" stroke-miterlimit="10" stroke-linecap="round"/>
<path d="M172.597 264.036L176.862 268.305L181.131 272.578" stroke="black" stroke-width="0.413091" stroke-miterlimit="10" stroke-linecap="round"/>
<path d="M260.429 256.207C260.853 258.555 261.245 261.011 261.581 263.557C261.918 266.103 262.199 268.752 262.417 271.477C262.647 274.348 262.789 277.132 262.853 279.793C262.916 282.454 262.916 285.06 262.853 287.535" stroke="black" stroke-width="0.413091" stroke-miterlimit="10" stroke-linecap="round"/>
<path d="M207.901 256.974C207.87 262.074 207.837 267.172 207.802 272.267C207.768 277.363 207.734 282.46 207.699 287.561" stroke="black" stroke-width="0.413091" stroke-miterlimit="10" stroke-linecap="round"/>
<path d="M156.263 246.303C154.79 244.113 153.4 241.947 152.161 239.693C150.902 237.428 149.842 235.057 148.993 232.609C147.864 229.33 146.799 226.015 145.674 222.709C144.55 219.402 143.377 216.143 142.027 212.944C141.207 210.995 140.297 208.611 139.136 206.402C137.976 204.192 136.57 202.156 134.752 200.893C134.471 200.688 134.165 200.519 133.842 200.39C133.515 200.264 133.163 200.222 132.816 200.268C132.6 200.305 132.391 200.377 132.198 200.481C132.04 200.566 131.892 200.67 131.759 200.79L131.042 199.685L130.325 198.585C128.036 195.207 126.413 194.664 125.355 194.969C125.016 195.097 124.705 195.292 124.441 195.541C124.177 195.791 123.966 196.09 123.819 196.422C123.601 196 123.327 195.61 123.003 195.262C122.431 194.631 121.672 194.199 120.837 194.031C120.528 193.967 120.214 193.938 119.899 193.943C119.455 193.937 119.021 194.076 118.663 194.339C118.148 194.735 117.871 195.504 117.903 196.434C117.965 197.56 118.314 198.65 118.916 199.602C118.372 199.608 117.834 199.721 117.332 199.935C116.916 200.113 116.557 200.402 116.295 200.77C115.697 201.642 115.808 202.846 116.137 204.049C116.465 205.253 117.004 206.457 117.273 207.32C117.717 208.746 118.12 210.183 118.536 211.621C118.952 213.058 119.372 214.484 119.851 215.902C120.297 217.222 120.71 218.542 121.09 219.862C121.486 221.196 121.811 222.547 122.112 223.901C122.387 224.905 122.594 225.926 122.73 226.958C122.821 228.039 122.671 229.081 121.886 229.778C121.658 229.982 121.388 230.133 121.094 230.221C120.915 230.277 120.731 230.315 120.544 230.336C119.566 230.435 118.619 230.027 117.582 229.148C116.266 227.919 115.082 226.556 114.05 225.081C113.44 224.261 112.608 222.875 111.61 221.79C110.612 220.705 109.452 219.925 108.189 220.321C107.326 220.59 107.001 221.303 106.902 222.119C106.854 222.915 106.911 223.714 107.072 224.495C107.282 225.717 107.626 226.912 108.098 228.059C108.549 229.195 109.08 230.304 109.599 231.441C110.276 232.938 115.681 242.046 120.964 250.738C126.246 259.43 131.418 267.706 131.624 267.528L143.948 256.919L156.263 246.303Z" fill="#F2B3C1" stroke="black" stroke-width="0.413091" stroke-miterlimit="10" stroke-linecap="round"/>
<path d="M118.899 199.609C119.743 201.308 120.594 203.13 121.43 205.07C122.265 207.011 123.081 209.078 123.861 211.264C124.594 213.303 125.231 215.279 125.79 217.204C126.348 219.128 126.831 220.938 127.243 222.684" stroke="black" stroke-width="0.413091" stroke-miterlimit="10" stroke-linecap="round"/>
<path d="M123.802 196.454C124.898 198.62 125.999 200.949 127.069 203.436C128.138 205.922 129.175 208.584 130.153 211.395C130.739 213.09 131.274 214.753 131.757 216.373C132.24 217.993 132.672 219.569 133.06 221.101" stroke="black" stroke-width="0.413091" stroke-miterlimit="10" stroke-linecap="round"/>
<path d="M131.741 200.819C132.565 202.952 133.374 205.142 134.169 207.388C134.963 209.635 135.736 211.936 136.485 214.291C136.786 215.225 137.075 216.156 137.36 217.082C137.646 218.009 137.919 218.928 138.184 219.854" stroke="black" stroke-width="0.413091" stroke-miterlimit="10" stroke-linecap="round"/>
<path d="M301.113 373.822L302.772 368.765L304.428 363.704C304.588 363.189 304.85 362.711 305.199 362.299C305.548 361.888 305.977 361.55 306.459 361.308C307.353 360.843 308.394 360.749 309.358 361.045C310.321 361.342 311.129 362.005 311.607 362.892C312.073 363.737 312.221 364.72 312.023 365.664C312.017 365.67 312.014 365.678 312.014 365.686C312.014 365.694 312.017 365.702 312.023 365.708C312.03 365.713 312.038 365.716 312.047 365.716C312.055 365.716 312.063 365.713 312.07 365.708C312.541 364.833 313.305 364.151 314.229 363.783C315.108 363.419 316.087 363.379 316.994 363.669C317.9 363.959 318.674 364.56 319.179 365.367C319.685 366.156 319.916 367.09 319.836 368.024C319.834 368.039 319.838 368.053 319.846 368.066C319.854 368.078 319.866 368.087 319.879 368.092C319.893 368.096 319.908 368.095 319.922 368.09C319.935 368.085 319.947 368.076 319.955 368.064C320.434 367.338 321.162 366.813 322.002 366.587C322.744 366.409 323.523 366.453 324.24 366.713C324.958 366.973 325.584 367.437 326.041 368.048C326.428 368.57 326.68 369.179 326.774 369.822C326.825 370.167 326.825 370.518 326.774 370.864C326.72 371.211 326.625 371.55 326.489 371.873L324.113 377.726L321.717 383.579C319.539 382.486 317.327 381.399 315.08 380.316C312.833 379.234 310.555 378.157 308.245 377.085C307.046 376.525 305.858 375.977 304.681 375.441C303.504 374.905 302.314 374.366 301.113 373.822Z" fill="#F6991A" stroke="#070707" stroke-width="0.413091" stroke-miterlimit="10" stroke-linecap="round"/>
<path d="M312.103 365.707L310.024 371.148L307.942 376.593" fill="#ECE7E1"/>
<path d="M312.103 365.707L310.024 371.148L307.942 376.593" stroke="black" stroke-width="0.413091" stroke-miterlimit="10" stroke-linecap="round"/>
<path d="M319.865 368.174L317.525 374.05L315.185 379.927" fill="#ECE7E1"/>
<path d="M319.865 368.174L317.525 374.05L315.185 379.927" stroke="black" stroke-width="0.413091" stroke-miterlimit="10" stroke-linecap="round"/>
<path d="M287.498 337.661H302.229C302.829 337.74 303.439 337.673 304.008 337.466C304.577 337.259 305.087 336.919 305.496 336.473C306.325 335.606 306.777 334.448 306.755 333.249C306.693 332.121 306.198 331.06 305.373 330.287C304.963 329.886 304.467 329.584 303.921 329.406C303.376 329.227 302.797 329.176 302.229 329.258" stroke="black" stroke-width="0.413091" stroke-miterlimit="10" stroke-linecap="round"/>
<path d="M237.508 315.11C237.508 315.11 236.716 320.258 233.263 326.915C228.728 335.64 221.697 342.817 213.067 347.53" stroke="black" stroke-width="0.413091" stroke-miterlimit="10" stroke-linecap="round"/>
<path d="M257.686 329.235H244.832H231.978" stroke="black" stroke-width="0.413091" stroke-miterlimit="10" stroke-linecap="round"/>
<path d="M162.161 252.713L149.659 264.205L137.154 275.701" stroke="black" stroke-width="0.413091" stroke-miterlimit="10" stroke-linecap="round"/>
<path d="M317.858 334.932L319.304 334.373L320.749 333.815" fill="#F2B3C1"/>
<path d="M317.858 334.932L319.304 334.373L320.749 333.815" stroke="black" stroke-width="0.413091" stroke-miterlimit="10" stroke-linecap="round"/>
<path d="M320.365 338.755L321.553 338.228L322.741 337.698" fill="#F2B3C1"/>
<path d="M320.365 338.755L321.553 338.228L322.741 337.698" stroke="black" stroke-width="0.413091" stroke-miterlimit="10" stroke-linecap="round"/>
<path d="M108.387 307.792H78.6232H48.8599V304.477V301.167H78.6232H108.387V304.477V307.792Z" fill="#DBCAF4" stroke="black" stroke-width="0.413091" stroke-miterlimit="10" stroke-linecap="round"/>
<path d="M101.437 301.162H80.2031H58.9695V297.847V294.537H80.2031H101.437V297.847V301.162Z" fill="#F6C34C" stroke="#070707" stroke-width="0.413091" stroke-miterlimit="10" stroke-linecap="round"/>
<path d="M257.126 228.995C257.143 229.254 257.075 229.511 256.932 229.735C256.796 229.945 256.602 230.118 256.368 230.239C256.133 230.36 255.868 230.423 255.598 230.422C255.309 230.421 255.027 230.345 254.785 230.204C254.544 230.345 254.262 230.421 253.973 230.422C253.703 230.423 253.437 230.36 253.203 230.239C252.969 230.118 252.774 229.945 252.639 229.735C252.496 229.511 252.428 229.254 252.444 228.995C252.188 228.878 251.975 228.697 251.83 228.475C251.696 228.266 251.626 228.029 251.626 227.788C251.626 227.547 251.696 227.311 251.83 227.102C251.975 226.879 252.188 226.699 252.444 226.581C252.428 226.323 252.496 226.067 252.639 225.843C252.774 225.633 252.969 225.46 253.203 225.339C253.437 225.218 253.703 225.155 253.973 225.156C254.262 225.157 254.544 225.234 254.785 225.376C255.027 225.234 255.309 225.158 255.598 225.156C255.868 225.155 256.133 225.218 256.368 225.339C256.602 225.46 256.796 225.633 256.932 225.843C257.075 226.067 257.143 226.323 257.126 226.581C257.383 226.699 257.596 226.879 257.741 227.102C257.875 227.311 257.945 227.547 257.945 227.788C257.945 228.029 257.875 228.266 257.741 228.475C257.596 228.697 257.383 228.878 257.126 228.995Z" fill="#F6C34C" stroke="#070707" stroke-width="0.724508" stroke-miterlimit="10" stroke-linecap="round"/>
<path d="M161.794 288.939C161.821 289.404 161.708 289.867 161.469 290.271C161.243 290.648 160.919 290.961 160.529 291.178C160.138 291.395 159.696 291.508 159.245 291.507C158.764 291.505 158.294 291.369 157.892 291.114C157.49 291.369 157.019 291.506 156.538 291.507C156.088 291.508 155.645 291.395 155.255 291.178C154.864 290.961 154.54 290.648 154.315 290.271C154.076 289.867 153.963 289.404 153.99 288.939C153.563 288.728 153.208 288.403 152.967 288.002C152.743 287.626 152.626 287.2 152.626 286.766C152.626 286.333 152.743 285.907 152.967 285.531C153.208 285.13 153.563 284.805 153.99 284.594C153.963 284.13 154.075 283.668 154.315 283.264C154.54 282.887 154.864 282.575 155.255 282.358C155.645 282.141 156.088 282.027 156.538 282.028C157.02 282.031 157.49 282.168 157.892 282.424C158.294 282.168 158.764 282.031 159.245 282.028C159.696 282.027 160.138 282.141 160.529 282.358C160.919 282.575 161.243 282.887 161.469 283.264C161.708 283.668 161.821 284.13 161.794 284.594C162.22 284.805 162.576 285.13 162.817 285.531C163.04 285.907 163.158 286.333 163.158 286.766C163.158 287.2 163.04 287.626 162.817 288.002C162.576 288.403 162.22 288.728 161.794 288.939Z" fill="#F6C34C" stroke="#070707" stroke-width="0.724508" stroke-miterlimit="10" stroke-linecap="round"/>
<path d="M241.836 272.088C241.863 272.553 241.75 273.016 241.511 273.42C241.286 273.797 240.962 274.11 240.571 274.327C240.181 274.544 239.738 274.657 239.288 274.656C238.807 274.654 238.337 274.518 237.934 274.263C237.532 274.518 237.062 274.654 236.581 274.656C236.13 274.657 235.688 274.544 235.297 274.327C234.907 274.11 234.583 273.797 234.358 273.42C234.118 273.016 234.005 272.553 234.033 272.088C233.606 271.877 233.251 271.552 233.009 271.151C232.786 270.775 232.668 270.349 232.668 269.915C232.668 269.482 232.786 269.056 233.009 268.68C233.251 268.279 233.606 267.954 234.033 267.743C234.005 267.278 234.118 266.816 234.358 266.413C234.583 266.036 234.907 265.724 235.297 265.507C235.688 265.29 236.13 265.176 236.581 265.177C237.062 265.18 237.532 265.317 237.934 265.573C238.337 265.317 238.807 265.18 239.288 265.177C239.738 265.176 240.181 265.29 240.571 265.507C240.962 265.724 241.286 266.036 241.511 266.413C241.751 266.816 241.864 267.278 241.836 267.743C242.263 267.954 242.618 268.279 242.859 268.68C243.083 269.056 243.2 269.482 243.2 269.915C243.2 270.349 243.083 270.775 242.859 271.151C242.618 271.552 242.263 271.877 241.836 272.088Z" fill="#F6C34C" stroke="#070707" stroke-width="0.724508" stroke-miterlimit="10" stroke-linecap="round"/>
<path d="M206.028 236.279C206.055 236.744 205.942 237.207 205.703 237.612C205.477 237.988 205.153 238.301 204.763 238.518C204.372 238.735 203.93 238.849 203.479 238.847C202.998 238.846 202.528 238.709 202.126 238.454C201.724 238.709 201.253 238.846 200.772 238.847C200.322 238.849 199.879 238.735 199.489 238.518C199.098 238.301 198.774 237.988 198.549 237.612C198.31 237.207 198.197 236.744 198.224 236.279C197.797 236.068 197.442 235.743 197.201 235.343C196.977 234.966 196.86 234.54 196.86 234.107C196.86 233.673 196.977 233.247 197.201 232.871C197.442 232.471 197.797 232.145 198.224 231.934C198.197 231.47 198.31 231.008 198.549 230.604C198.774 230.228 199.098 229.915 199.489 229.698C199.879 229.481 200.322 229.367 200.772 229.369C201.254 229.371 201.724 229.508 202.126 229.764C202.528 229.509 202.998 229.371 203.479 229.369C203.93 229.367 204.372 229.481 204.763 229.698C205.153 229.915 205.477 230.228 205.703 230.604C205.942 231.008 206.055 231.47 206.028 231.934C206.454 232.145 206.81 232.471 207.051 232.871C207.274 233.247 207.392 233.673 207.392 234.107C207.392 234.54 207.274 234.966 207.051 235.343C206.81 235.743 206.454 236.068 206.028 236.279Z" fill="#F6C34C" stroke="#070707" stroke-width="0.724508" stroke-miterlimit="10" stroke-linecap="round"/>
<defs>
<linearGradient id="paint0_linear_16_2654" x1="48.8599" y1="229.424" x2="345.242" y2="229.424" gradientUnits="userSpaceOnUse">
<stop offset="0.11" stop-color="#FEC2D9"/>
<stop offset="0.38" stop-color="#DBCAF4"/>
<stop offset="0.65" stop-color="#A4C2FF"/>
<stop offset="0.97" stop-color="#C6FCDB"/>
</linearGradient>
<linearGradient id="paint1_linear_16_2654" x1="83.8691" y1="224.17" x2="139.471" y2="224.17" gradientUnits="userSpaceOnUse">
<stop offset="0.18" stop-color="#FEC2D9"/>
<stop offset="0.51" stop-color="#E3DEDA"/>
<stop offset="0.82" stop-color="#C6FCDB"/>
</linearGradient>
<linearGradient id="paint2_linear_16_2654" x1="200.726" y1="55.6715" x2="151.784" y2="140.439" gradientUnits="userSpaceOnUse">
<stop offset="0.22" stop-color="#FEC2D9"/>
<stop offset="0.68" stop-color="#F6991A"/>
<stop offset="1" stop-color="#FC762B"/>
</linearGradient>
<linearGradient id="paint3_linear_16_2654" x1="161.581" y1="224.005" x2="161.581" y2="198.903" gradientUnits="userSpaceOnUse">
<stop offset="0.11" stop-color="#FEC2D9"/>
<stop offset="0.57" stop-color="#A4C2FF"/>
<stop offset="0.97" stop-color="#C6FCDB"/>
</linearGradient>
<linearGradient id="paint4_linear_16_2654" x1="148.972" y1="234.634" x2="161.989" y2="234.634" gradientUnits="userSpaceOnUse">
<stop offset="0.18" stop-color="#FEC2D9"/>
<stop offset="0.86" stop-color="#F6991A"/>
</linearGradient>
<linearGradient id="paint5_linear_16_2654" x1="113.139" y1="111.369" x2="118.754" y2="101.643" gradientUnits="userSpaceOnUse">
<stop offset="0.11" stop-color="#FEC2D9"/>
<stop offset="0.38" stop-color="#DBCAF4"/>
<stop offset="0.65" stop-color="#A4C2FF"/>
<stop offset="0.97" stop-color="#C6FCDB"/>
</linearGradient>
<linearGradient id="paint6_linear_16_2654" x1="178.333" y1="202.973" x2="186.475" y2="202.973" gradientUnits="userSpaceOnUse">
<stop offset="0.37" stop-color="#A4C2FF"/>
<stop offset="0.62" stop-color="#B5DEED"/>
<stop offset="0.86" stop-color="#C6FCDB"/>
</linearGradient>
<linearGradient id="paint7_linear_16_2654" x1="70.4407" y1="168.389" x2="78.4953" y2="168.389" gradientUnits="userSpaceOnUse">
<stop offset="0.37" stop-color="#A4C2FF"/>
<stop offset="0.62" stop-color="#B5DEED"/>
<stop offset="0.86" stop-color="#C6FCDB"/>
</linearGradient>
<linearGradient id="paint8_linear_16_2654" x1="70.0923" y1="133.637" x2="112.785" y2="133.637" gradientUnits="userSpaceOnUse">
<stop offset="0.14" stop-color="#A4C2FF"/>
<stop offset="0.89" stop-color="#FEC2D9"/>
</linearGradient>
</defs>
</svg>
