<svg width="65" height="65" viewBox="0 0 65 65" fill="none" xmlns="http://www.w3.org/2000/svg">
<path d="M60 32.5023L51.1374 34.5251L42.2747 36.548L47.1102 44.2468L51.9456 51.9456L44.2422 47.1102L36.5434 42.2747L34.5205 51.1374L32.4977 60L30.4749 51.1374L28.452 42.2747L20.7532 47.1102L13.0544 51.9456L17.8898 44.2468L22.7253 36.548L13.8626 34.5251L5 32.5023L13.8626 30.4795L22.7253 28.4566L17.8898 20.7578L13.0544 13.0544L20.7532 17.8898L28.452 22.7253L30.4749 13.8626L32.4977 5L34.5205 13.8626L36.5434 22.7253L44.2422 17.8898L51.9456 13.0544L47.1102 20.7578L42.2747 28.4566L51.1374 30.4795L60 32.5023Z" fill="#D1B7E5" stroke="black" stroke-width="1.9671" stroke-miterlimit="10" stroke-linecap="round"/>
</svg>
