<svg width="74" height="36" viewBox="0 0 74 36" fill="none" xmlns="http://www.w3.org/2000/svg">
<path d="M36.7335 34.9989C35.8065 35.0008 34.8861 34.8436 34.0131 34.5342C33.1473 34.2283 32.3514 33.7544 31.672 33.1401C30.857 32.3959 30.2284 31.4729 29.8366 30.4448C29.3986 29.2945 29.181 28.0731 29.1951 26.8434C29.1951 23.7067 30.5529 21.0115 32.2292 18.8924C33.6167 17.1741 35.2455 15.6623 37.0659 14.4034C37.3703 14.1943 37.684 13.9899 38.0024 13.804C38.3208 13.6181 38.6579 13.4369 38.9997 13.2696C38.4815 12.715 37.9228 12.1682 37.3234 11.6292C36.7241 11.0901 36.0795 10.5526 35.3897 10.0167C31.9717 7.38768 27.9829 5.58647 23.7403 4.75628C19.7189 3.91865 15.5462 4.14625 11.6414 5.41618C8.59495 6.43283 5.87105 8.22598 3.74252 10.6161C1.55289 13.1298 0.00477219 16.1294 -0.771139 19.3618C-0.879325 19.7787 -1.14924 20.1363 -1.52202 20.3566C-1.89479 20.5768 -2.3402 20.6418 -2.76109 20.5375C-2.96969 20.4859 -3.16598 20.3939 -3.33871 20.2669C-3.51145 20.1399 -3.65723 19.9803 -3.76771 19.7972C-3.87819 19.6142 -3.95119 19.4114 -3.98254 19.2003C-4.01388 18.9892 -4.00295 18.774 -3.95037 18.5671C-3.04374 14.8148 -1.2384 11.3349 1.31245 8.42277C3.81583 5.6387 7.00588 3.54884 10.5692 2.35845C14.9873 0.897323 19.7136 0.60896 24.2788 1.522C29.073 2.46015 33.5772 4.50584 37.4264 7.49337C38.3879 8.23689 39.2759 8.99435 40.0906 9.76575C40.8773 10.5075 41.6214 11.2925 42.3194 12.1171C46.3274 11.1134 51.0985 11.3271 56.2256 12.698C61.3526 14.0689 66.8308 16.5968 72.2575 20.2075C72.4386 20.3245 72.5945 20.476 72.7162 20.6532C72.8379 20.8304 72.9229 21.0298 72.9665 21.2398C73.01 21.4498 73.0112 21.6663 72.9698 21.8768C72.9285 22.0873 72.8456 22.2875 72.7257 22.4659C72.4851 22.8259 72.1108 23.0768 71.6845 23.1639C71.2582 23.251 70.8144 23.1671 70.4502 22.9306C66.148 19.9933 61.4341 17.6995 56.4597 16.1228C52.0069 14.7798 47.8819 14.3849 44.3983 14.9936C44.9122 15.8447 45.3569 16.7351 45.728 17.6563C46.0864 18.5422 46.3638 19.4582 46.5568 20.3934C47.0555 22.8443 46.8743 25.3836 46.0324 27.7403C45.2662 29.9915 43.8293 31.9587 41.912 33.3817C41.1515 33.9238 40.3092 34.3425 39.4164 34.6225C38.5474 34.8863 37.6421 35.0133 36.7335 34.9989ZM41.1067 15.9091C40.7278 16.07 40.3575 16.2499 39.997 16.4481C39.6394 16.6453 39.2925 16.8609 38.9575 17.094C37.5447 18.0798 36.2626 19.2383 35.1415 20.5421C33.7369 22.2429 32.4773 24.4177 32.4867 26.8527C32.4796 27.63 32.6047 28.403 32.8566 29.139C33.0597 29.7555 33.4155 30.3116 33.8914 30.7562C34.6946 31.4304 35.7247 31.7789 36.7756 31.732C37.9236 31.7211 39.0408 31.3628 39.9783 30.7051C41.3792 29.6467 42.4187 28.1868 42.9562 26.5228C43.5701 24.7541 43.6994 22.8553 43.3307 21.0207C43.1444 20.1366 42.8666 19.2739 42.502 18.4463C42.1162 17.5599 41.6491 16.7106 41.1067 15.9091Z" fill="#D1B7E5" stroke="black" stroke-width="1.9671" stroke-miterlimit="10" stroke-linecap="round"/>
</svg>
