<svg width="188" height="188" viewBox="0 0 188 188" fill="none" xmlns="http://www.w3.org/2000/svg">
<circle cx="94" cy="94" r="94" fill="#322285"/>
<path fill-rule="evenodd" clip-rule="evenodd" d="M128.913 70.6637C130.811 72.3419 130.989 75.2452 129.311 77.1562L94.092 116.969C93.6853 117.429 93.1905 117.802 92.6369 118.068C92.0833 118.333 91.4821 118.485 90.8688 118.514C90.2556 118.543 89.6427 118.449 89.0664 118.237C88.4902 118.025 87.9622 117.7 87.5137 117.281L64.545 95.8435C63.6614 95.0108 63.1434 93.8622 63.1042 92.6486C63.065 91.4351 63.5079 90.2554 64.336 89.3674C65.164 88.4795 66.31 87.9554 67.5233 87.9099C68.7366 87.8644 69.9186 88.301 70.8109 89.1244L90.3496 107.316L122.445 71.0557C122.845 70.603 123.33 70.2337 123.873 69.9689C124.416 69.7042 125.006 69.5492 125.61 69.5127C126.213 69.4763 126.817 69.5592 127.388 69.7567C127.959 69.9542 128.485 70.2624 128.937 70.6637H128.913Z" fill="white"/>
</svg>
